<svg width="51" height="50" viewBox="0 0 51 50" fill="none" xmlns="http://www.w3.org/2000/svg">
<g id="Layer_1" clip-path="url(#clip0_235_4936)">
<path id="Vector" d="M0.666016 22.756C0.692116 22.7416 0.736488 22.7325 0.743013 22.7103C1.27025 21.156 2.40433 20.557 3.98212 20.6275C4.51849 20.6523 5.05617 20.6223 5.59254 20.6353C5.8144 20.6405 5.9449 20.5975 6.00102 20.3495C6.4878 18.2105 7.32433 16.2138 8.48451 14.3542C8.60849 14.1558 8.56412 14.0475 8.41404 13.9026C7.9116 13.4158 7.41438 12.9238 6.92629 12.4214C5.75045 11.2116 5.75698 9.58684 6.94326 8.37837C7.6271 7.68148 8.31747 6.99111 9.01436 6.30597C10.2163 5.1223 11.9115 5.11838 13.1109 6.29161C13.599 6.76926 14.087 7.24821 14.5582 7.74412C14.7265 7.9203 14.8505 7.92813 15.0528 7.80285C16.8994 6.6518 18.8805 5.82049 21.0064 5.34546C21.2465 5.29195 21.3 5.16536 21.2961 4.93829C21.283 4.25575 21.2843 3.57191 21.2935 2.88807C21.3144 1.18891 22.498 0.013065 24.192 0.00392974C25.1851 -0.00129042 26.1769 -0.00259546 27.1701 0.00392974C28.8079 0.0143701 29.9955 1.18108 30.0346 2.82412C30.0516 3.53928 30.049 4.25575 30.032 4.97222C30.0268 5.19799 30.1038 5.28412 30.3139 5.33241C32.449 5.82963 34.4509 6.65441 36.308 7.81981C36.5024 7.94249 36.612 7.90595 36.7595 7.75326C37.2345 7.26126 37.7187 6.7797 38.2081 6.30205C39.4166 5.1236 41.1092 5.12099 42.3059 6.29814C43.0015 6.98328 43.6932 7.67235 44.3757 8.37054C45.579 9.59858 45.5777 11.2194 44.3757 12.4501C43.8981 12.9395 43.4178 13.4263 42.9232 13.8974C42.7483 14.0644 42.7353 14.1884 42.8619 14.392C44.0142 16.2373 44.8403 18.2223 45.3245 20.3443C45.378 20.5779 45.4928 20.6444 45.7264 20.6392C46.4259 20.6236 47.1254 20.6262 47.8249 20.6353C49.4602 20.6575 50.6477 21.8477 50.6621 23.4816C50.6712 24.5061 50.6725 25.5318 50.6621 26.5576C50.6438 28.138 49.4719 29.3334 47.8915 29.3686C46.8827 29.3908 45.8739 29.3817 44.8651 29.3712C44.0834 29.3634 43.5418 28.8545 43.5496 28.1667C43.5575 27.4789 44.0978 26.9935 44.8899 26.9843C45.8008 26.9752 46.7131 26.9843 47.624 26.9817C48.2047 26.9804 48.2856 26.9034 48.2882 26.3436C48.2935 25.4326 48.283 24.5204 48.2921 23.6095C48.2961 23.2023 48.1342 23.017 47.7114 23.0235C46.687 23.0379 45.6612 23.0314 44.6354 23.0261C43.7845 23.0222 43.3891 22.7051 43.2273 21.8568C42.7366 19.2859 41.7669 16.9199 40.274 14.7652C39.8211 14.1127 39.8851 13.5816 40.4423 13.0191C41.164 12.2909 41.8844 11.5614 42.6204 10.8475C42.9271 10.5487 42.9571 10.2981 42.6361 9.98749C41.9692 9.3428 41.3089 8.69028 40.6707 8.01818C40.3549 7.6854 40.1265 7.72846 39.8277 8.03906C39.1177 8.77902 38.3856 9.49679 37.6574 10.2172C37.0923 10.777 36.5546 10.8449 35.9099 10.3973C33.7292 8.88473 31.3332 7.90334 28.7244 7.427C27.9909 7.29258 27.649 6.85931 27.6438 6.09064C27.6347 5.06618 27.6268 4.04042 27.6477 3.01596C27.6569 2.55398 27.4859 2.36736 27.0226 2.37649C26.1117 2.39476 25.1995 2.39215 24.2885 2.37649C23.8514 2.36997 23.6752 2.54615 23.683 2.98725C23.7013 3.97908 23.6908 4.97222 23.6882 5.96535C23.6856 6.89846 23.3959 7.273 22.4876 7.44657C19.9336 7.93596 17.5833 8.9043 15.4404 10.3816C14.7631 10.8488 14.241 10.7836 13.6551 10.2028C12.9386 9.49288 12.2287 8.7751 11.5135 8.06386C11.0972 7.65016 11.0385 7.65146 10.613 8.0743C9.97878 8.70594 9.35628 9.34932 8.70898 9.96661C8.36967 10.2903 8.39577 10.546 8.72203 10.8606C9.44894 11.5601 10.1563 12.2804 10.8662 12.9956C11.4456 13.579 11.5083 14.0997 11.0385 14.7809C9.54159 16.9512 8.56542 19.3329 8.08908 21.9247C7.95205 22.6673 7.52661 23.0144 6.76708 23.0209C5.72566 23.0301 4.68423 23.0366 3.64281 23.0183C3.19779 23.0105 3.02944 23.1971 3.03466 23.6278C3.04771 24.5387 3.05032 25.4509 3.03466 26.3618C3.02683 26.8264 3.21998 26.9948 3.67935 26.9856C4.68815 26.9648 5.69695 26.9752 6.70574 26.9804C7.53575 26.9843 7.94553 27.3093 8.09561 28.1132C8.57586 30.6867 9.54681 33.0528 11.0333 35.21C11.5161 35.9108 11.4522 36.4198 10.844 37.0318C10.1328 37.7483 9.42414 38.4661 8.69984 39.1682C8.38402 39.4736 8.38663 39.7228 8.70115 40.0269C9.37977 40.6833 10.0453 41.3515 10.7031 42.0275C10.9667 42.2977 11.1781 42.2898 11.4391 42.0236C12.1778 41.2667 12.9295 40.5215 13.6812 39.7776C14.245 39.2191 14.767 39.1669 15.4286 39.6132C16.1829 40.1222 16.966 40.5815 17.7686 41.0096C18.4746 41.3867 18.7226 42.0497 18.4041 42.6696C18.087 43.2882 17.3836 43.4826 16.6841 43.1185C16.1373 42.834 15.5996 42.5313 15.0737 42.2102C14.8544 42.0758 14.7213 42.0836 14.5412 42.2742C14.0714 42.7701 13.5833 43.249 13.0952 43.7267C11.8933 44.9051 10.2568 44.9091 9.0509 43.728C8.34096 43.0337 7.64015 42.3316 6.94587 41.6217C5.74523 40.3936 5.75306 38.7741 6.96153 37.5447C7.42873 37.0684 7.89855 36.5933 8.38141 36.134C8.56281 35.9617 8.60718 35.8325 8.46363 35.6028C7.31911 33.7718 6.49693 31.8038 6.01407 29.6988C5.95926 29.4613 5.8653 29.3517 5.59385 29.3621C4.9596 29.3856 4.32535 29.3699 3.68979 29.3686C2.23598 29.366 1.33159 28.7592 0.79391 27.4267C0.765199 27.3563 0.773029 27.2597 0.666016 27.2453C0.666016 25.7485 0.666016 24.2503 0.666016 22.7534L0.666016 22.756Z" fill="#1E4854"/>
<path id="Vector_2" d="M11.7826 24.9941C11.8021 18.0983 16.8135 12.2921 23.6441 11.2546C29.1396 10.4194 34.8752 13.1652 37.6223 17.9377C37.9095 18.435 37.9786 18.9152 37.625 19.3929C37.3261 19.7987 36.9059 19.9266 36.4152 19.8353C35.9715 19.753 35.7366 19.4294 35.5186 19.0744C34.1092 16.7776 32.1412 15.158 29.6198 14.2053C22.9602 11.6918 15.4771 16.0272 14.3274 23.0652C13.4856 28.2201 16.0513 33.1519 20.7612 35.4148C21.171 35.6119 21.543 35.8285 21.6578 36.3023C21.7687 36.7616 21.6748 37.1792 21.3093 37.5003C20.897 37.8618 20.4311 37.8879 19.9456 37.6647C17.4608 36.5189 15.4628 34.8067 13.9842 32.5046C12.5173 30.2195 11.7839 27.7125 11.7812 24.9941H11.7826Z" fill="#1E4854"/>
<path id="Vector_3" d="M50.1161 44.6155C46.1213 37.7588 42.1749 30.876 38.2037 24.0063C36.6833 21.3766 33.4416 21.3936 31.9199 24.0311C29.9819 27.3902 28.0413 30.7481 26.1033 34.1073C24.0675 37.6348 22.0251 41.1584 19.997 44.6912C18.9739 46.4738 19.5103 48.5241 21.2551 49.5459C21.5683 49.7286 21.9168 49.85 22.2495 50.0001H47.737C47.8427 49.8004 48.0528 49.8957 48.2068 49.8513C50.1304 49.2927 51.4237 46.8575 50.1174 44.6155H50.1161ZM46.8887 47.6223C42.9514 47.6249 39.0154 47.6223 35.0781 47.6223C31.206 47.6223 27.3353 47.6223 23.4632 47.6223C23.3497 47.6223 23.2348 47.6249 23.1213 47.6223C22.0342 47.5975 21.5487 46.7596 22.0903 45.8174C23.3092 43.6928 24.5399 41.5734 25.7653 39.4527C28.515 34.6893 31.2635 29.9246 34.0171 25.1638C34.5783 24.1929 35.5453 24.1903 36.1156 25.1469C36.1574 25.216 36.1952 25.2878 36.2357 25.3583C38.8575 29.8959 41.4793 34.4335 44.0998 38.9725C45.3983 41.2211 46.6969 43.4683 47.9915 45.7182C48.614 46.7988 48.1376 47.6236 46.8887 47.6236V47.6223Z" fill="#1E4854"/>
<path id="Vector_4" d="M33.8745 34.487C33.8745 33.3829 33.8705 32.2776 33.8758 31.1735C33.8797 30.3813 34.3495 29.8411 35.0386 29.8228C35.7459 29.8032 36.2522 30.3435 36.2562 31.1644C36.2653 33.3738 36.2653 35.5819 36.2562 37.7914C36.2535 38.6187 35.7524 39.1603 35.0477 39.1447C34.343 39.129 33.8784 38.5822 33.8758 37.7522C33.8718 36.6638 33.8758 35.5754 33.8758 34.487H33.8745Z" fill="#1E4854"/>
<path id="Vector_5" d="M35.0877 41.5826C35.7454 41.5878 36.2609 42.1059 36.2609 42.7623C36.2609 43.4122 35.7363 43.9395 35.0864 43.9447C34.4247 43.9499 33.8675 43.39 33.8831 42.7362C33.8988 42.0915 34.4365 41.5773 35.0877 41.5826Z" fill="#1E4854"/>
</g>
<defs>
<clipPath id="clip0_235_4936">
<rect width="50.0039" height="50" fill="white" transform="translate(0.666016)"/>
</clipPath>
</defs>
</svg>
