<svg width="60" height="60" viewBox="0 0 60 60" fill="none" xmlns="http://www.w3.org/2000/svg">
<path d="M27.5 27.5H15.5C12.6997 27.5 11.2996 27.5 10.23 28.045C9.28924 28.5243 8.52433 29.2892 8.04497 30.23C7.5 31.2996 7.5 32.6997 7.5 35.5V52.5M52.5 52.5V15.5C52.5 12.6997 52.5 11.2996 51.955 10.23C51.4757 9.28924 50.7108 8.52433 49.77 8.04497C48.7004 7.5 47.3003 7.5 44.5 7.5H35.5C32.6997 7.5 31.2996 7.5 30.23 8.04497C29.2892 8.52433 28.5243 9.28924 28.045 10.23C27.5 11.2996 27.5 12.6997 27.5 15.5V52.5M55 52.5H5M36.25 17.5H43.75M36.25 27.5H43.75M36.25 37.5H43.75" stroke="#9FE2D9" stroke-width="2" stroke-linecap="round" stroke-linejoin="round"/>
</svg>
