<svg width="58" height="50" viewBox="0 0 58 50" fill="none" xmlns="http://www.w3.org/2000/svg">
<g id="Layer_1" clip-path="url(#clip0_243_4296)">
<path id="Vector" d="M56.4547 14.9183C51.7571 10.1827 47.0573 5.44932 42.3564 0.717081C41.4035 -0.241446 40.5165 -0.238091 39.5602 0.721555C38.0615 2.22701 36.5549 3.72464 35.0763 5.24911C34.5607 5.78039 33.9835 6.02869 33.2442 6.02533C30.0577 6.00967 26.8723 6.01079 23.6858 6.02533C22.97 6.02869 22.3973 5.80387 21.8929 5.28826C20.4601 3.82307 19.0039 2.38024 17.5555 0.92959C16.4661 -0.162035 15.6462 -0.162035 14.5602 0.930708C10.111 5.41241 5.66057 9.89523 1.21242 14.3792C0.797468 14.7975 0.403767 15.2348 0 15.6632V17.1172C0.20468 17.3521 0.398175 17.5981 0.616276 17.8185C1.86225 19.0756 3.11717 20.3238 4.36538 21.5799C5.16509 22.384 5.67734 23.3213 5.72767 24.4845C5.79031 25.9095 6.02742 27.2964 6.80476 28.53C6.97141 28.794 6.79917 28.9472 6.68397 29.1217C4.57342 32.3194 6.32382 36.4163 10.0819 37.0505C10.4577 37.1143 10.6143 37.2328 10.6769 37.6478C11.0203 39.8903 12.7729 41.6855 14.86 41.9114C15.3532 41.9651 15.4595 42.1664 15.521 42.5813C15.9549 45.5184 18.8652 47.4556 21.7464 46.7063C22.1501 46.6011 22.2732 46.6895 22.4342 47.044C23.6467 49.6982 26.8611 50.7875 29.409 49.3872C30.6919 48.6826 31.6504 47.6245 32.3674 46.345C32.5955 46.3942 32.7454 46.5709 32.9277 46.694C33.6357 47.1693 34.4119 47.4758 35.2619 47.5205C38.1565 47.6726 40.2671 45.9781 40.7615 43.1104C40.8129 42.8095 40.8912 42.6675 41.2144 42.6205C43.3552 42.3096 44.8137 41.1094 45.3841 39.0414C45.6268 38.1634 45.9634 37.8156 46.856 37.5538C50.2002 36.5707 51.5043 32.7813 49.5985 29.8644C49.4452 29.6295 49.3558 29.4561 49.5459 29.1765C50.6073 27.6106 51.1263 25.8614 51.1699 23.9812C51.1867 23.2386 51.4652 22.6748 51.9842 22.1615C53.4818 20.6817 54.9548 19.1774 56.4357 17.6809C57.3673 16.7391 57.3763 15.8466 56.4558 14.9194L56.4547 14.9183ZM11.8871 33.411C11.2518 33.9949 10.2754 33.8942 9.65685 33.2992C9.0238 32.6896 8.89294 31.6271 9.48349 30.9716C10.3525 30.0064 11.2943 29.106 12.2237 28.1967C12.4944 27.9328 12.8624 27.8276 13.2516 27.8377C13.9652 27.85 14.4987 28.1744 14.8108 28.813C15.1217 29.4483 15.1072 30.1205 14.6318 30.6417C13.7572 31.6025 12.8423 32.5319 11.886 33.411H11.8871ZM16.8139 38.207C16.2894 38.7215 15.6194 38.7931 14.9483 38.4743C14.3007 38.1679 13.9842 37.6288 13.9551 36.9197C13.9316 36.3783 14.1565 35.9399 14.5233 35.5697C16.0959 33.9803 17.664 32.3865 19.2522 30.8139C19.9781 30.0948 21.0261 30.0903 21.7106 30.7513C22.4007 31.419 22.4734 32.4905 21.7777 33.2119C20.1492 34.9019 18.4894 36.5629 16.8151 38.207H16.8139ZM24.2473 40.4395C23.4196 41.3432 22.5517 42.2145 21.6625 43.0578C20.9869 43.6987 20.0027 43.6651 19.3428 43.0533C18.6907 42.4482 18.5464 41.4293 19.1258 40.7348C19.9826 39.708 20.9556 38.7841 21.9466 37.8849C22.2094 37.6455 22.5662 37.5572 22.9353 37.5684C23.6455 37.5963 24.1846 37.9173 24.481 38.5649C24.7819 39.2237 24.7394 39.9026 24.2473 40.4395ZM29.4303 44.5577C29.2166 45.4983 27.9248 46.6336 27.058 46.6414C25.8814 46.6526 25.0828 45.5721 25.3825 44.372C25.5492 43.7065 26.8007 42.5702 27.483 42.4661C28.7144 42.2782 29.7065 43.343 29.4303 44.5566V44.5577ZM47.1244 32.8428C47.0595 33.5486 46.7061 34.0754 46.0384 34.3394C45.3505 34.61 44.7096 34.4803 44.184 33.9624C43.1617 32.9558 42.1573 31.9313 41.1462 30.9135C40.6988 30.4627 40.1731 30.2234 39.5323 30.3632C38.2091 30.6506 37.7449 32.1897 38.699 33.1974C39.6598 34.2118 40.6619 35.1871 41.6462 36.1781C41.9526 36.4868 42.2065 36.8224 42.2703 37.2709C42.3832 38.075 42.0343 38.792 41.3531 39.1443C40.6764 39.4944 39.945 39.3993 39.3499 38.8255C38.5581 38.0627 37.7953 37.2709 37.0202 36.4913C36.7573 36.2273 36.5023 35.9544 36.2294 35.7016C35.5203 35.0429 34.5238 35.0339 33.8661 35.6703C33.1905 36.3235 33.1749 37.3458 33.8717 38.0694C34.8403 39.0761 35.8346 40.0592 36.8211 41.049C37.1443 41.3734 37.3937 41.7335 37.4519 42.1988C37.5481 42.9594 37.1779 43.6763 36.5202 44.0152C35.8614 44.3541 35.0942 44.2523 34.5126 43.6875C33.6178 42.8173 32.7465 41.9226 31.8719 41.0323C30.8843 40.0268 29.777 39.2483 28.3207 39.1186C28.0724 39.0962 27.9818 38.9698 27.9528 38.7249C27.7391 36.951 26.8242 35.6435 25.2572 34.8091C24.934 34.6369 24.9508 34.5049 25.0839 34.2197C26.0156 32.231 25.6375 29.9784 24.1343 28.4361C22.6311 26.8937 20.3807 26.4978 18.3183 27.4227C18.0957 27.5223 17.938 27.6185 17.7915 27.3087C16.3744 24.3123 12.226 23.394 9.56067 26.0716C9.52264 26.1097 9.47231 26.1343 9.41303 26.1768C9.10657 25.603 9.12446 24.9778 9.09315 24.3749C8.98913 22.3863 8.22074 20.7063 6.82601 19.3015C5.9592 18.4291 5.0991 17.55 4.21551 16.6955C3.96944 16.4573 3.97727 16.3387 4.21551 16.0983C8.06975 12.2317 11.9162 8.35734 15.7514 4.4729C16.031 4.18992 16.1619 4.26039 16.3967 4.50086C17.4112 5.54103 18.4525 6.55548 19.4681 7.59566C20.3516 8.5005 21.3717 9.13467 22.6546 9.30692C22.6635 9.55186 22.4667 9.66147 22.3459 9.80687C20.0731 12.5438 17.7948 15.2751 15.5176 18.0086C14.5345 19.1886 14.634 20.061 15.8509 20.9748C19.241 23.5204 24.0549 23.0864 26.9528 19.9547C27.5177 19.3452 28.097 18.8475 28.9952 18.8955C29.343 18.9146 29.6528 19.0342 29.9537 19.1696C31.4972 19.863 33.1111 20.1415 34.7933 20.0095C35.121 19.9838 35.3414 20.0822 35.5718 20.3149C39.1866 23.9723 42.8094 27.6218 46.4366 31.268C46.8772 31.711 47.1837 32.2008 47.1244 32.8451V32.8428ZM49.8121 19.5856C48.565 20.7656 47.8369 22.157 47.8145 23.9085C47.8 24.9934 47.5338 26.0303 46.9868 26.9206C44.2466 24.2318 41.522 21.5597 38.7762 18.8665C39.3097 18.4795 39.8018 18.1495 40.2637 17.7804C41.2502 16.9919 42.013 16.0133 42.636 14.9205C43.146 14.0257 42.9279 13.0325 42.0991 12.5426C41.2815 12.0606 40.3006 12.2977 39.7929 13.1813C38.8712 14.7863 37.5906 15.9316 35.7966 16.4416C34.4354 16.8286 33.0709 16.8051 31.7488 16.2671C30.495 15.7571 29.239 15.3422 27.8532 15.6263C26.7661 15.8488 25.8232 16.3253 25.0425 17.1161C24.377 17.7916 23.7283 18.4772 22.8167 18.8486C21.611 19.3396 20.402 19.3966 19.165 18.9861C19.165 18.7703 19.3372 18.6629 19.4502 18.5264C21.7352 15.7773 24.0437 13.0482 26.2963 10.2722C26.7862 9.6693 27.3566 9.45343 28.0579 9.40534C29.6394 9.29573 31.2254 9.31698 32.8047 9.36731C34.7955 9.43107 36.4252 8.78571 37.7662 7.29927C38.6878 6.27699 39.7045 5.33971 40.6664 4.3521C40.8688 4.14407 40.9863 4.07584 41.2301 4.32302C45.1436 8.28464 49.0683 12.2362 52.9908 16.19C53.0165 16.2157 53.0355 16.2492 53.1172 16.36C52.0233 17.4292 50.9317 18.522 49.8087 19.5834L49.8121 19.5856Z" fill="#1E4854"/>
</g>
<defs>
<clipPath id="clip0_243_4296">
<rect width="57.1403" height="50" fill="white"/>
</clipPath>
</defs>
</svg>
