<svg width="51" height="50" viewBox="0 0 51 50" fill="none" xmlns="http://www.w3.org/2000/svg">
<g id="Layer_1" clip-path="url(#clip0_235_4893)">
<path id="Vector" d="M0.0518901 48.8767C0.289333 49.3542 0.648107 49.7091 1.1243 49.9491C0.766828 49.9491 0.269764 50.0887 0.0910291 49.91C-0.0877054 49.7312 0.0518901 49.2342 0.0518901 48.8767Z" fill="#1E4854"/>
<path id="Vector_2" d="M50.0312 4.69408C50.0312 3.70387 49.495 3.11939 48.51 3.03198C48.283 3.01241 48.0547 3.01894 47.8277 3.01894C43.8786 3.01894 39.9294 3.01894 35.9803 3.01894C30.9914 3.01894 26.0025 3.01111 21.0136 3.02937C20.4643 3.03198 20.0977 2.85977 19.8042 2.40185C19.4546 1.85521 19.0527 1.34249 18.6783 0.811501C18.2843 0.250509 17.769 -0.0025893 17.0658 1.99619e-05C11.9151 0.0156755 6.76311 0.00784775 1.61112 0.00915238C0.657435 0.00915238 0.340409 0.237463 0.0507812 1.12853V48.8767C0.178635 49.4638 0.536104 49.8213 1.12319 49.9491H48.9105C49.8016 49.6595 50.0299 49.3438 50.0299 48.3914C50.0299 46.882 50.0299 45.3712 50.0299 43.8617C50.0299 30.8063 50.0299 17.7521 50.0299 4.69669L50.0312 4.69408ZM22.7983 6.11483C30.7109 6.11483 38.6248 6.11874 46.5374 6.10309C46.9771 6.10309 47.0723 6.21789 47.0632 6.63799C47.0345 7.96871 47.0436 9.30074 47.0593 10.6315C47.0632 10.9211 46.9992 11.0189 46.6887 11.0176C39.8316 11.0085 32.9758 11.0098 26.1186 11.0124C25.9177 11.0124 25.7533 10.9955 25.6176 10.8037C24.5596 9.30726 23.4911 7.81868 22.4265 6.32748C22.3926 6.27921 22.3782 6.21789 22.3339 6.11483H22.7996H22.7983ZM28.4109 46.7397C28.4187 47.0568 28.2282 47.0176 28.0325 47.0176C26.343 47.0176 24.6522 47.0176 22.9627 47.0176H18.8192C15.7807 47.0176 12.7409 47.0111 9.70245 47.0268C9.34498 47.0281 9.22756 46.9537 9.24061 46.5767C9.29279 45.0385 9.13493 43.4886 9.45326 41.9635C10.2452 38.1605 13.2876 35.2225 17.1232 34.5441C22.5309 33.5891 27.5211 37.1742 28.3078 42.6041C28.5061 43.9739 28.3809 45.3608 28.4135 46.7397H28.4109ZM14.7788 27.3829C14.7814 25.1494 16.6026 23.3399 18.844 23.3438C21.0788 23.349 22.8818 25.1703 22.874 27.4155C22.8662 29.6243 21.0514 31.4299 18.8362 31.4338C16.6026 31.4377 14.7775 29.6152 14.7801 27.3829H14.7788ZM47.0645 46.5127C47.0645 46.9681 46.9249 47.0281 46.5231 47.0268C41.679 47.0124 36.8362 47.0176 31.9921 47.0176C31.3424 47.0176 31.3489 47.0176 31.3411 46.3418C31.3241 44.7202 31.4363 43.0933 31.088 41.4886C30.1969 37.3816 27.846 34.424 24.0743 32.5819C23.9621 32.5271 23.8173 32.518 23.7364 32.3614C24.6574 31.409 25.3241 30.3053 25.632 28.9915C26.4865 25.3438 24.1695 21.4782 20.6 20.621C16.7188 19.6895 12.9523 21.9335 12.0534 25.7404C11.4872 28.137 12.026 30.2714 13.6907 32.1005C13.8968 32.3262 13.9699 32.4149 13.6176 32.5858C9.53676 34.5623 7.13232 37.8017 6.42912 42.2766C6.20603 43.6934 6.3104 45.1298 6.32084 46.5571C6.32345 46.9563 6.19951 47.0359 5.83291 47.0242C5.03708 46.9968 4.23865 46.9902 3.44413 47.0268C3.03969 47.045 2.97576 46.9028 2.97576 46.5388C2.9862 40.514 2.98359 34.4893 2.98359 28.4632C2.98359 20.1487 2.98751 11.833 2.97185 3.51861C2.97185 3.05938 3.10492 2.97328 3.53284 2.97588C7.6607 2.99154 11.7899 2.99154 15.9177 2.97588C16.3091 2.97458 16.5257 3.11157 16.7409 3.41424C19.0149 6.6145 21.3124 9.79911 23.5759 13.0072C24.0443 13.6713 24.5948 13.9609 25.4089 13.9583C32.4461 13.94 39.4846 13.9504 46.5217 13.9387C46.9236 13.9387 47.0645 13.9974 47.0645 14.454C47.0488 25.1403 47.0488 35.8265 47.0645 46.5127Z" fill="#1E4854"/>
<path id="Vector_3" d="M13.3707 13.9478C12.7149 13.9478 12.3866 14.2774 12.3857 14.9367C12.3857 15.229 12.3922 15.5225 12.3583 15.8108C12.2735 16.5153 11.6838 17.0463 10.9741 17.0802C10.2866 17.1141 9.63946 16.6145 9.49465 15.9191C9.38115 15.3738 9.4516 14.8193 9.45029 14.2687C9.45029 14.0117 9.37332 13.9295 9.11761 13.9413C8.71317 13.9595 8.30613 13.9517 7.90039 13.9452C6.97019 13.9282 6.30091 13.3007 6.31265 12.4618C6.32439 11.6334 6.9754 11.0293 7.88343 11.0124C8.28917 11.0046 8.69621 10.9928 9.10065 11.0163C9.38767 11.0333 9.46073 10.925 9.44768 10.6562C9.42811 10.2518 9.43464 9.84474 9.44507 9.439C9.46595 8.53619 10.0817 7.88387 10.9076 7.87605C11.7308 7.86822 12.357 8.51532 12.3844 9.41812C12.3975 9.83952 12.4001 10.2622 12.3831 10.6836C12.3727 10.9406 12.464 11.0254 12.7184 11.015C13.1398 10.998 13.5625 11.0019 13.9852 11.0124C14.8815 11.0346 15.5338 11.6673 15.5234 12.4931C15.5129 13.3033 14.8776 13.9139 14.0048 13.9452C13.7934 13.953 13.5821 13.9452 13.372 13.9465L13.3707 13.9478Z" fill="#1E4854"/>
<path id="Vector_4" d="M36.7877 18.0651C38.5594 18.0651 40.331 18.0625 42.1027 18.0651C43.0512 18.0664 43.7127 18.66 43.7244 19.5067C43.7361 20.343 43.0577 20.9927 42.134 20.994C38.5581 21.0005 34.9834 20.9992 31.4074 20.994C30.575 20.994 29.9736 20.5061 29.8327 19.7546C29.71 19.1036 30.108 18.4278 30.7564 18.1564C30.9912 18.0586 31.2325 18.0651 31.4752 18.0651C33.2469 18.0638 35.0186 18.0651 36.7903 18.0651H36.7877Z" fill="#1E4854"/>
<path id="Vector_5" d="M36.7567 27.2461C34.985 27.2461 33.2133 27.2474 31.4416 27.2461C30.4775 27.2461 29.7952 26.6212 29.8108 25.7614C29.8265 24.92 30.4997 24.3211 31.4377 24.3198C34.9967 24.3185 38.5571 24.3185 42.1161 24.3198C43.0463 24.3198 43.7221 24.9395 43.7234 25.781C43.7247 26.6238 43.0502 27.2435 42.12 27.2448C40.3327 27.2474 38.544 27.2448 36.7567 27.2448V27.2461Z" fill="#1E4854"/>
</g>
<defs>
<clipPath id="clip0_235_4893">
<rect width="50.0326" height="50" fill="white"/>
</clipPath>
</defs>
</svg>
