<svg width="41" height="51" viewBox="0 0 41 51" fill="none" xmlns="http://www.w3.org/2000/svg">
<g clip-path="url(#clip0_235_4306)">
<path d="M40.149 11.3274C40.149 10.3565 39.6948 9.74373 38.7681 9.49071C36.1053 8.76062 33.5949 7.65557 31.1333 6.43011C27.7359 4.73672 24.4604 2.83146 21.2809 0.758545C20.4654 0.226598 19.6927 0.20221 18.8528 0.76769C16.7921 2.15776 14.6521 3.42133 12.4725 4.61478C8.87996 6.58101 5.24168 8.4512 1.25436 9.52272C0.437387 9.7422 0.00756166 10.4205 0.00603746 11.3518C0.00298905 14.6395 0.00603746 17.9287 0.00603746 21.2164C0.00603746 24.4675 0.0106101 27.7171 0.00146484 30.9683C0.00146484 31.4377 0.0974897 31.8599 0.320024 32.2745C4.56798 40.2019 10.6145 46.2454 18.833 50.0437C19.6988 50.4446 20.4349 50.4613 21.3083 50.0635C25.0746 48.3472 28.466 46.0808 31.4854 43.261C34.828 40.1379 37.6295 36.5926 39.7344 32.5169C39.9615 32.0779 40.1566 31.6344 40.1566 31.1176C40.1505 24.5224 40.1551 17.9257 40.1505 11.3304L40.149 11.3274ZM36.5031 30.4013C36.5031 30.6497 36.4863 30.8799 36.3568 31.11C32.5981 37.7327 27.492 42.9607 20.6163 46.3688C20.2414 46.5548 19.9563 46.5731 19.5677 46.381C12.6889 42.9775 7.57676 37.7586 3.81502 31.1375C3.6748 30.8905 3.65346 30.6451 3.65346 30.3769C3.65651 27.4885 3.65498 24.6001 3.65498 21.7118C3.65498 18.8234 3.65651 15.935 3.65193 13.0467C3.65193 12.7662 3.66108 12.5772 4.00707 12.4599C8.86929 10.829 13.3184 8.35213 17.7051 5.74727C18.3727 5.35097 19.0449 4.9562 19.6866 4.51876C19.9929 4.30994 20.2033 4.35109 20.4944 4.53247C23.6571 6.52004 26.89 8.38414 30.2523 10.0181C32.1439 10.9372 34.0659 11.7846 36.0718 12.4279C36.4452 12.5467 36.5107 12.722 36.5107 13.0711C36.5001 18.8478 36.5031 24.6245 36.5046 30.4013H36.5031Z" fill="#1E4854"/>
<path d="M29.1001 21.291C29.1047 21.8748 28.8943 22.2893 28.5468 22.6384C25.5517 25.6365 22.5597 28.6377 19.554 31.6251C18.7446 32.4284 17.7448 32.4116 16.9293 31.6022C15.1612 29.8494 13.4023 28.0889 11.6495 26.3209C10.8615 25.5268 10.8462 24.4872 11.5824 23.7358C12.3354 22.9676 13.3916 22.9768 14.2101 23.7831C15.428 24.9841 16.6443 26.1852 17.8347 27.4137C18.1517 27.7414 18.3133 27.7856 18.6623 27.432C21.0767 24.9826 23.5124 22.5546 25.9526 20.1295C26.9159 19.1723 28.3136 19.3827 28.9126 20.5472C29.0452 20.8063 29.1199 21.0761 29.1016 21.291H29.1001Z" fill="#1E4854"/>
</g>
<defs>
<clipPath id="clip0_235_4306">
<rect width="40.1552" height="50" fill="white" transform="translate(0 0.351562)"/>
</clipPath>
</defs>
</svg>
