<svg width="52" height="52" viewBox="0 0 52 52" fill="none" xmlns="http://www.w3.org/2000/svg">
<g id="Layer_1">
<path id="Vector" d="M1.00066 21.2162C1.17552 21.1314 1.14811 20.9448 1.19901 20.8025C1.68966 19.4167 2.95284 18.4197 4.42351 18.3688C5.91897 18.3179 7.41704 18.344 8.9125 18.3427C11.7429 18.3401 14.5746 18.3427 17.405 18.3427C17.5838 18.3427 17.7652 18.3362 17.9401 18.3649C18.3224 18.4288 18.5482 18.6637 18.5808 19.0513C18.6147 19.4584 18.4255 19.7325 18.0353 19.8682C17.8291 19.9399 17.6177 19.9204 17.4063 19.9204C13.241 19.9204 9.07561 19.9204 4.91156 19.9204C3.37695 19.9204 2.56136 20.7334 2.56136 22.2601C2.56136 26.9305 2.56136 31.6009 2.56136 36.2712C2.56136 37.7432 3.41218 38.5888 4.8972 38.5914C6.49184 38.594 8.08647 38.6045 9.6798 38.5862C10.2253 38.5797 10.6455 38.765 11.02 39.1512C12.2557 40.4236 13.5059 41.6815 14.7338 42.929C14.9687 42.8338 14.8878 42.6811 14.8891 42.5702C14.8969 41.7729 14.8852 40.9755 14.8956 40.1782C14.9087 39.1382 15.4659 38.594 16.5072 38.594C18.8339 38.5927 21.1606 38.5966 23.4873 38.5901C23.858 38.5901 24.1607 38.6776 24.3395 39.0286C24.6239 39.5871 24.2246 40.1456 23.52 40.1495C21.8927 40.1574 20.2655 40.1521 18.6395 40.1521C18.0536 40.1521 17.4677 40.1717 16.8831 40.1443C16.549 40.1286 16.4407 40.2187 16.4459 40.5684C16.4668 41.9021 16.4498 43.237 16.4563 44.5707C16.459 45.0078 16.4511 45.4306 15.9618 45.6303C15.492 45.8221 15.2036 45.535 14.9061 45.2375C13.3088 43.6363 11.7025 42.0443 10.1104 40.4379C9.89772 40.2226 9.68632 40.1417 9.3888 40.1443C7.909 40.1587 6.42789 40.1508 4.94679 40.1508C2.87324 40.1508 1.57091 39.133 1.05155 37.1116C1.04372 37.0829 1.01632 37.0594 0.998047 37.0333C0.998047 31.7601 0.998047 26.4868 0.998047 21.2149L1.00066 21.2162Z" fill="black" stroke="#1E4854"/>
<path id="Vector_2" d="M1 9.40122C1.1579 9.10108 1.40845 8.92622 1.71641 8.78399C3.29278 8.05974 4.8574 7.31071 6.43376 6.58647C6.67909 6.47425 6.75608 6.34636 6.75999 6.08015C6.76913 5.33373 6.67387 4.58339 6.84482 3.84349C7.22455 2.19927 8.66651 1.00916 10.3577 1.00786C17.6301 0.998725 24.9039 0.996116 32.1763 1.00786C34.135 1.01177 35.7218 2.56596 35.7662 4.51945C35.804 6.16236 35.7818 7.80659 35.7779 9.4495C35.7766 9.99366 35.4699 10.3303 35.0145 10.3316C34.563 10.3316 34.2302 9.98975 34.225 9.45864C34.2133 7.92925 34.2237 6.39986 34.2198 4.86917C34.2159 3.40242 33.382 2.56465 31.927 2.56465C24.8164 2.56465 17.7071 2.56465 10.5965 2.56465C9.1663 2.56465 8.31809 3.40634 8.31157 4.82741C8.30896 5.2998 8.30113 5.77088 8.31287 6.24327C8.33245 7.03015 7.9762 7.58083 7.27414 7.91098C6.21845 8.40947 5.16014 8.90012 4.10184 9.3947C4.01441 9.43515 3.92959 9.48343 3.78865 9.55651C4.87828 9.97539 5.91701 10.3721 6.95574 10.7727C8.01404 11.1812 8.31026 11.617 8.31026 12.7562C8.31026 13.7493 8.31287 14.741 8.31026 15.7341C8.30765 16.3435 8.01404 16.7115 7.53513 16.7206C7.04839 16.7311 6.75347 16.3748 6.75217 15.7589C6.74825 14.7658 6.73912 13.7728 6.75869 12.781C6.76521 12.4783 6.68561 12.3308 6.38548 12.2186C4.85087 11.6496 3.32931 11.0454 1.79732 10.4674C1.46978 10.346 1.19835 10.175 1 9.88927V9.40122Z" fill="black" stroke="#1E4854"/>
<path id="Vector_3" d="M13.0525 12.4417C12.9234 11.2529 13.4205 10.4856 14.5115 10.0184C15.3858 9.64391 15.7786 8.67173 15.5293 7.77524C15.3049 6.96748 14.4527 6.35286 13.615 6.39201C12.7093 6.43507 11.9708 7.09276 11.8024 8.01144C11.7815 8.12235 11.7737 8.23719 11.758 8.34941C11.6954 8.81789 11.3718 9.11933 10.9581 9.09714C10.5249 9.07365 10.213 8.71349 10.2091 8.23197C10.196 6.69345 11.4527 5.19277 12.9899 4.90699C14.762 4.57814 16.448 5.55815 16.9935 7.23369C17.5402 8.91445 16.7625 10.6996 15.113 11.4565C14.7059 11.6444 14.5441 11.8819 14.5911 12.3151C14.6185 12.5722 14.6054 12.8358 14.5885 13.0955C14.5584 13.5313 14.3157 13.7806 13.8812 13.8171C13.4584 13.8523 13.1217 13.59 13.0604 13.1568C13.0264 12.918 13.0539 12.6701 13.0539 12.4417H13.0525Z" fill="black" stroke="#1E4854"/>
<path id="Vector_4" d="M24.9226 5.47077C26.4337 5.47077 27.9461 5.46816 29.4572 5.47077C30.0849 5.47207 30.4438 5.74611 30.4581 6.2185C30.4725 6.70654 30.0836 7.03017 29.4533 7.03017C26.4298 7.03278 23.4075 7.03408 20.384 7.03017C19.635 7.03017 19.1978 6.50689 19.4549 5.93272C19.6245 5.55298 19.9521 5.46424 20.3383 5.46685C21.8664 5.47338 23.3945 5.46946 24.9213 5.46946L24.9226 5.47077Z" fill="#010101" stroke="#1E4854"/>
<path id="Vector_5" d="M24.924 10.5078C23.4612 10.5078 21.9983 10.5078 20.5355 10.5078C20.3737 10.5078 20.2092 10.5117 20.0487 10.4882C19.6351 10.4256 19.4106 10.1515 19.3937 9.75874C19.3754 9.36073 19.5894 9.07625 19.9952 8.98621C20.1518 8.95098 20.3176 8.94837 20.4794 8.94706C23.4377 8.94445 26.396 8.94576 29.3542 8.94706C29.4834 8.94706 29.6152 8.94445 29.7431 8.96272C30.1777 9.02797 30.4726 9.35942 30.4569 9.75221C30.4426 10.1528 30.1372 10.4595 29.7014 10.4999C29.5565 10.513 29.4091 10.5091 29.2629 10.5091C27.8157 10.5091 26.3699 10.5091 24.9227 10.5091L24.924 10.5078Z" fill="#010101" stroke="#1E4854"/>
<path id="Vector_6" d="M13.451 28.8331C12.2974 28.8331 11.1439 28.8357 9.99029 28.8331C9.4109 28.8305 9.07162 28.5408 9.07031 28.0619C9.07031 27.5817 9.41221 27.2776 9.98246 27.2776C12.2739 27.2737 14.5654 27.275 16.8569 27.2776C17.4232 27.2776 17.7782 27.5843 17.7834 28.0541C17.7873 28.5251 17.4337 28.8318 16.8647 28.8331C15.7268 28.837 14.5902 28.8331 13.4523 28.8331H13.451Z" fill="black" stroke="#1E4854"/>
<path id="Vector_7" d="M13.4153 32.3302C12.2618 32.3302 11.1082 32.3302 9.95595 32.3302C9.56447 32.3302 9.24737 32.1854 9.11427 31.7978C8.99813 31.4611 9.08556 31.1571 9.37134 30.9261C9.53185 30.7956 9.72107 30.7695 9.92072 30.7695C12.2592 30.7695 14.5989 30.7656 16.9374 30.7734C17.4411 30.7748 17.7725 31.0892 17.7817 31.5264C17.7908 31.9714 17.4372 32.3224 16.923 32.3289C15.7538 32.342 14.5846 32.3328 13.414 32.3328L13.4153 32.3302Z" fill="black" stroke="#1E4854"/>
<path id="Vector_8" d="M13.4014 25.3424C12.2805 25.3424 11.1595 25.3451 10.0386 25.3411C9.4083 25.3385 9.06901 25.0632 9.07032 24.5712C9.07032 24.0806 9.42134 23.783 10.0334 23.7817C12.2922 23.7778 14.5497 23.7778 16.8086 23.7817C17.4115 23.7817 17.7808 24.0871 17.7834 24.566C17.7873 25.0488 17.4324 25.3385 16.8138 25.3411C15.6772 25.3464 14.5393 25.3425 13.4014 25.3411V25.3424Z" fill="#010101" stroke="#1E4854"/>
<path id="Vector_9" d="M5.17033 28.1022C5.17033 27.0452 5.16641 25.9882 5.17163 24.9325C5.17555 24.3505 5.46525 24.0099 5.93894 24.0047C6.41394 23.9995 6.73756 24.3479 6.73887 24.9129C6.74539 27.0426 6.74539 29.1723 6.73887 31.3019C6.73756 31.8643 6.41785 32.2297 5.95721 32.2362C5.49265 32.2428 5.17424 31.8865 5.17033 31.3215C5.1625 30.2488 5.16772 29.1749 5.16772 28.1022H5.17033Z" fill="black" stroke="#1E4854"/>
<path id="Vector_10" d="M11.7859 35.808C11.1687 35.808 10.5527 35.8185 9.93549 35.8041C9.39133 35.7911 9.07031 35.4883 9.07031 35.0251C9.07031 34.5631 9.39133 34.2565 9.94071 34.2512C11.1739 34.2382 12.407 34.2395 13.6402 34.2512C14.1857 34.2565 14.5276 34.5618 14.5393 35.0068C14.5511 35.4701 14.1974 35.795 13.635 35.8067C13.0191 35.8185 12.4018 35.8093 11.7846 35.8093L11.7859 35.808Z" fill="#010101" stroke="#1E4854"/>
<path id="Vector_11" d="M21.9738 13.9973C21.4049 13.9973 20.8359 14.0038 20.267 13.996C19.7424 13.9882 19.3887 13.6698 19.3848 13.2222C19.3796 12.7772 19.7359 12.4431 20.2591 12.4392C21.4297 12.4301 22.5989 12.4301 23.7694 12.4392C24.2744 12.4431 24.6059 12.7511 24.6215 13.1896C24.6372 13.6476 24.2966 13.9856 23.7785 13.9947C23.177 14.0065 22.5754 13.9973 21.9751 13.9973H21.9738Z" fill="black" stroke="#1E4854"/>
<path id="Vector_12" d="M5.17191 34.653C5.17583 34.178 5.49293 33.8283 5.93139 33.8178C6.37768 33.8074 6.74306 34.1897 6.74175 34.666C6.74175 35.1515 6.38942 35.5025 5.91964 35.4882C5.46552 35.4738 5.168 35.1423 5.17191 34.653Z" fill="#020202" stroke="#1E4854"/>
<path id="Vector_13" d="M14.5945 15.2929C14.5919 15.7614 14.2553 16.1228 13.8233 16.1189C13.3992 16.115 13.0404 15.734 13.0391 15.2877C13.0391 14.8349 13.3875 14.4734 13.8272 14.4734C14.2774 14.4734 14.5972 14.814 14.5945 15.2929Z" fill="#020202" stroke="#1E4854"/>
<path id="Vector_14" d="M50.8926 24.9119C50.2806 19.7613 47.7281 15.8791 43.0264 13.6046C38.8597 11.5898 34.4934 11.5167 30.1075 12.8321C24.8017 14.4228 20.8125 19.298 20.3583 24.8114C20.0791 28.2016 20.2866 31.6088 20.2644 35.0082C20.2592 35.7389 20.7524 36.287 21.4662 36.3001C22.8612 36.3275 24.3175 36.5963 25.5376 35.521C25.6029 35.7102 25.6499 35.842 25.6942 35.9764C26.4433 38.2549 27.6425 40.2579 29.3781 41.9178C31.0079 43.4759 32.8949 44.5316 35.1994 44.6543C37.8197 44.7939 39.965 43.7121 41.8193 41.9661C43.6071 40.2827 44.8142 38.2275 45.5671 35.8994C45.6533 35.6332 45.6924 35.4962 45.9925 35.7337C46.3762 36.0378 46.8342 36.2244 47.3314 36.2687C47.5598 36.2896 47.625 36.3849 47.6107 36.6146C47.5689 37.2814 47.501 37.9443 47.3732 38.5981C46.5119 42.9735 44.0338 45.9723 39.8058 47.4821C39.5318 47.5799 39.3752 47.6217 39.2525 47.2511C39.0333 46.5856 38.5113 46.228 37.8067 46.2202C36.3425 46.2045 34.8784 46.2006 33.4142 46.2202C32.5412 46.2319 31.8927 46.9027 31.8588 47.7796C31.8431 48.1854 31.8822 48.5952 31.8496 48.9997C31.77 49.9941 32.2033 50.6452 33.1193 50.9976H38.1968C38.7788 50.6818 39.3191 50.3086 39.353 49.5765C39.3674 49.2477 39.5109 49.1902 39.7732 49.1132C42.1312 48.4177 44.1708 47.1989 45.8164 45.3589C47.976 42.9435 48.9495 40.0531 49.1453 36.8664C49.1688 36.488 49.2196 36.3066 49.6829 36.304C50.4959 36.3001 50.9813 35.735 50.9865 34.9103C50.9944 33.7228 51.0022 32.5353 50.9865 31.3478C50.9552 29.2012 51.147 27.0454 50.8939 24.9106L50.8926 24.9119ZM37.7336 49.3651C37.4948 49.617 36.9337 49.4303 36.5161 49.4343C35.5896 49.4447 34.6631 49.4277 33.7366 49.4434C33.4782 49.4473 33.3934 49.369 33.4155 49.1159C33.4534 48.6839 33.2394 48.1241 33.5017 47.8501C33.7431 47.5982 34.3016 47.794 34.7205 47.7796C35.0284 47.7692 35.3377 47.777 35.647 47.777C36.2642 47.777 36.8828 47.79 37.5 47.7705C37.7636 47.7613 37.8393 47.8475 37.8184 48.0993C37.7806 48.5312 37.9946 49.0911 37.7349 49.3651H37.7336ZM25.0287 33.0964C25.0235 34.0347 24.4115 34.712 23.4771 34.755C22.946 34.7798 22.2779 34.9729 21.9177 34.6793C21.5941 34.4157 21.8264 33.7332 21.8199 33.2374C21.8042 32.0995 21.8264 30.9616 21.8081 29.825C21.8029 29.5079 21.8877 29.3956 22.2127 29.4191C22.6002 29.4478 22.9917 29.4191 23.3819 29.4283C24.3593 29.4517 25.017 30.1225 25.0235 31.0973C25.0261 31.4222 25.0235 31.7471 25.0235 32.0721H25.0313C25.0313 32.414 25.0326 32.7545 25.0313 33.0964H25.0287ZM44.6419 28.6936C44.6445 28.8828 44.5845 28.9546 44.3966 28.952C43.9581 28.9454 43.5197 28.9493 43.0812 28.9493C40.9568 28.9246 38.9211 28.5252 37.0876 27.3847C35.6705 26.5026 34.5887 25.3268 33.9597 23.7622C33.8149 23.4007 33.5917 23.1476 33.1689 23.1646C32.75 23.1815 32.5399 23.436 32.4264 23.8157C32.1902 24.613 31.8744 25.3751 31.3668 26.0432C30.2354 27.5348 28.6956 27.955 26.913 27.7344C26.6925 27.707 26.5972 27.6209 26.5894 27.3612C26.442 22.9701 30.0201 18.7839 34.3681 18.2789C39.3347 17.7021 43.5458 20.7752 44.5023 25.6779C44.6967 26.6748 44.6289 27.6862 44.6445 28.6936H44.6419ZM39.9807 41.4767C36.9545 43.9157 33.3712 43.639 30.4847 40.8125C27.9727 38.3527 26.6168 35.3579 26.6155 31.8006C26.6155 31.1012 26.6194 30.4004 26.5894 29.7023C26.5751 29.3643 26.6494 29.2664 27.0122 29.3056C28.5416 29.47 29.994 29.243 31.2872 28.3412C32.1732 27.724 32.7918 26.8797 33.3059 25.884C35.8127 29.3199 39.2969 30.4826 43.2939 30.5335C43.6515 30.5388 44.009 30.5244 44.3666 30.5087C44.5323 30.5022 44.6354 30.51 44.6432 30.728C44.8168 35.0617 43.3853 38.7325 39.9807 41.4767ZM49.1035 34.7707C48.682 34.7498 48.2592 34.7772 47.8377 34.7615C46.8695 34.7263 46.2079 34.0347 46.2039 33.0664C46.2 32.4153 46.2013 31.7654 46.2052 31.1142C46.2105 30.1486 46.8825 29.4557 47.8482 29.4296C48.271 29.4178 48.6951 29.4452 49.1166 29.4217C49.3906 29.4061 49.4363 29.5183 49.4324 29.7584C49.4193 30.5388 49.4271 31.3204 49.4271 32.1008C49.4271 32.8811 49.418 33.6628 49.4324 34.4431C49.4363 34.6963 49.3645 34.7837 49.1048 34.7707H49.1035ZM49.0409 27.8741C48.4249 27.8623 47.8077 27.8193 47.1918 27.9367C46.8564 28.0007 46.5628 28.1755 46.2274 28.2616C46.8616 22.0006 41.6745 16.5355 35.5322 16.6294C32.4434 16.6764 29.8531 17.8717 27.7808 20.1488C25.7021 22.4338 24.8904 25.1755 25.0496 28.3099C24.1126 27.7658 23.1457 27.8702 22.1918 27.8636C22.0052 27.8623 21.8186 27.9211 21.8068 27.5961C21.6881 24.3847 22.3575 21.399 24.3058 18.7774C26.378 15.9887 29.198 14.4006 32.5752 13.8251C35.7383 13.2849 38.8754 13.448 41.8468 14.7725C46.2483 16.7338 48.6833 20.1867 49.341 24.9341C49.4571 25.777 49.4023 26.6226 49.4324 27.4669C49.4441 27.7762 49.3697 27.8806 49.0396 27.8741H49.0409Z" fill="black" stroke="#1E4854"/>
<path id="Vector_15" d="M35.6396 40.4327C34.7301 40.4066 33.9275 40.0973 33.2372 39.5088C32.8757 39.2008 32.8157 38.7663 33.0663 38.427C33.3325 38.0656 33.7853 37.9899 34.1833 38.2991C35.1568 39.056 36.1002 39.0416 37.0698 38.2926C37.4587 37.9925 37.8789 38.0616 38.1516 38.3996C38.4256 38.7402 38.3708 39.2113 38.0002 39.5206C37.3191 40.0908 36.5322 40.4001 35.6396 40.4314V40.4327Z" fill="black" stroke="#1E4854"/>
<path id="Vector_16" d="M31.7076 31.837C32.7933 31.8304 33.682 32.6447 33.7577 33.7148C33.7916 34.1858 33.5385 34.5408 33.1222 34.6099C32.6589 34.6869 32.3275 34.4507 32.2244 33.9444C32.1644 33.6521 32.0808 33.3924 31.7207 33.4029C31.3657 33.412 31.2953 33.6573 31.2483 33.964C31.1778 34.4233 30.819 34.6687 30.374 34.6165C29.9603 34.5682 29.7045 34.2615 29.6993 33.8061C29.6876 32.7491 30.6102 31.8448 31.7076 31.837Z" fill="black" stroke="#1E4854"/>
<path id="Vector_17" d="M39.5422 31.837C40.6227 31.8488 41.5192 32.7152 41.5348 33.7631C41.5413 34.259 41.2934 34.5735 40.8615 34.6178C40.4178 34.6635 40.0942 34.4286 39.9976 33.9497C39.9428 33.6783 39.8958 33.4238 39.5591 33.4056C39.246 33.3873 39.1037 33.553 39.0463 33.8623C38.9367 34.4443 38.6039 34.6922 38.1133 34.61C37.667 34.5343 37.4556 34.1872 37.5078 33.6091C37.5965 32.603 38.4891 31.8266 39.5435 31.837H39.5422Z" fill="black" stroke="#1E4854"/>
</g>
</svg>
