<svg width="48" height="52" viewBox="0 0 48 52" fill="none" xmlns="http://www.w3.org/2000/svg">
<g id="Layer_1">
<path id="Vector" d="M32.9063 28.3386C27.6446 29.5079 23.9141 34.1571 23.9141 39.5023C23.9141 44.8753 27.6446 49.5246 32.9063 50.7217C33.296 50.8052 33.7136 50.7773 34.0477 51.0001H36.3862C36.5533 50.833 36.776 50.9165 36.9709 50.8887C42.9007 50.0814 47.2158 44.6526 46.7426 38.6393C46.1858 31.7072 39.6156 26.8353 32.8784 28.3386H32.9063ZM35.384 48.9121C30.2058 48.9121 25.9742 44.6805 26.002 39.5023C26.002 34.352 30.2058 30.176 35.384 30.1482C40.5622 30.1482 44.7381 34.3241 44.7381 39.5023C44.7381 44.6805 40.5343 48.8843 35.384 48.8843V48.9121Z" fill="#1E4854" stroke="#1E4854" stroke-width="0.8"/>
<path id="Vector_2" d="M35.3839 6.62361C35.3561 5.20379 35.4674 3.8118 36.2748 2.55902C36.6924 1.91871 36.2191 1.08352 35.4396 1C35.3282 1 35.2169 1 35.1055 1C25.5565 1 16.0075 1 6.45852 1C3.22913 1 1.00195 3.25501 1.00195 6.48441C1.00195 18.1214 1.00195 29.7305 1.00195 41.3675C1.00195 41.8129 1.00195 42.2584 1.11331 42.676C1.6701 45.2094 3.73024 46.7962 6.43068 46.7962C11.6089 46.7962 16.787 46.7962 21.9652 46.7962C22.1044 46.7962 22.2158 46.7962 22.355 46.7962C22.8839 46.7405 23.2458 46.3229 23.2737 45.8218C23.2737 45.1537 22.8282 44.7361 22.0487 44.7361C16.8706 44.7361 11.6645 44.7361 6.48636 44.7361C6.06877 44.7361 5.67901 44.7082 5.28926 44.569C3.89728 44.1236 3.11777 42.9543 3.11777 41.3396C3.11777 31.1782 3.11777 20.9889 3.11777 10.8274V10.3263C4.37055 11.2728 5.70685 11.412 7.12668 11.412C16.0075 11.412 24.8884 11.412 33.7692 11.412C34.2703 11.412 34.3817 11.5234 34.3817 12.0245C34.3817 16.2283 34.3817 20.4321 34.3817 24.608C34.3817 24.8586 34.3817 25.1091 34.4652 25.3319C34.6322 25.7773 35.1334 26.0557 35.6066 25.9722C36.1077 25.8886 36.4697 25.471 36.4697 24.8864C36.4697 20.098 36.4697 15.3096 36.4697 10.5212C36.4697 10.2706 36.414 10.0479 36.2748 9.82517C35.6623 8.85078 35.4674 7.73719 35.4118 6.62361H35.3839ZM6.15229 7.23608C6.31933 7.23608 6.48636 7.23608 6.6534 7.23608C15.3951 7.23608 24.1367 7.23608 32.8783 7.23608C33.2403 7.23608 33.463 7.23608 33.463 7.73719C33.463 8.12695 33.5465 8.54454 33.6579 8.9343C33.7692 9.32405 33.6579 9.32405 33.3238 9.32405C30.2893 9.32405 27.2269 9.32405 24.1924 9.32405H19.6545C15.2559 9.32405 10.8293 9.32405 6.43068 9.32405C4.84382 9.32405 3.64672 8.46103 3.25696 7.09688C2.70017 5.14811 4.03647 3.25501 6.09661 3.08797C6.26365 3.08797 6.45852 3.08797 6.62556 3.08797C15.4786 3.08797 24.3316 3.08797 33.1846 3.08797C33.63 3.08797 33.7971 3.14365 33.63 3.64477C33.4908 4.06236 33.463 4.5078 33.4351 4.95323C33.4351 5.17595 33.3516 5.23163 33.1289 5.23163C33.0175 5.23163 32.9062 5.23163 32.7948 5.23163C24.1089 5.23163 15.4507 5.23163 6.76476 5.23163C6.56988 5.23163 6.375 5.23163 6.18013 5.23163C5.62333 5.28731 5.20574 5.7049 5.20574 6.26169C5.20574 6.79065 5.62333 7.26392 6.18013 7.29176L6.15229 7.23608Z" fill="#1E4854" stroke="#1E4854" stroke-width="0.8"/>
<path id="Vector_3" d="M34.3561 40.5881C34.3561 40.2819 34.3561 40.0035 34.3561 39.6972C34.3561 38.9456 34.6345 38.6393 35.3584 38.4723C36.0265 38.3331 36.6947 38.1939 37.3072 37.8877C37.9196 37.6093 38.4486 37.2474 38.5043 36.4678C38.5599 35.7162 38.1145 35.1872 37.502 34.8531C36.0822 34.0458 34.6624 34.0736 33.2426 34.8531C32.6858 35.1594 32.3517 35.6327 32.2403 36.273C32.129 36.9133 31.6 37.2752 31.0154 37.1638C30.4586 37.0525 30.1245 36.5235 30.208 35.911C30.3751 34.7975 30.9597 33.9344 31.8784 33.2663C33.855 31.8465 36.8617 31.8465 38.8383 33.2663C41.4274 35.1037 41.1212 38.3888 38.2259 39.7529C37.7526 39.9756 37.2515 40.1705 36.7225 40.2819C36.472 40.3376 36.4163 40.4489 36.4163 40.6716C36.4163 40.95 36.4163 41.2563 36.4163 41.5625C36.4163 42.175 35.9709 42.6482 35.3862 42.6482C34.8294 42.6482 34.3561 42.2028 34.3561 41.5903C34.3561 41.2563 34.3561 40.8943 34.3561 40.5603V40.5881Z" fill="#1E4854" stroke="#1E4854" stroke-width="0.8"/>
<path id="Vector_4" d="M35.3855 46.824C34.8009 46.824 34.3555 46.3786 34.3555 45.794C34.3555 45.2372 34.8009 44.7917 35.3855 44.7917C35.9423 44.7917 36.4156 45.2372 36.4434 45.794C36.4434 46.3508 35.9702 46.8519 35.4134 46.8519L35.3855 46.824Z" fill="#1E4854" stroke="#1E4854" stroke-width="0.8"/>
</g>
</svg>
