<svg width="51" height="51" viewBox="0 0 51 51" fill="none" xmlns="http://www.w3.org/2000/svg">
<g id="Layer_1" clip-path="url(#clip0_235_4742)">
<path id="Vector" d="M0.333984 23.1076C0.360085 23.0932 0.404457 23.0841 0.410982 23.0619C0.938218 21.5076 2.0723 20.9086 3.65009 20.979C4.18646 21.0038 4.72414 20.9738 5.26051 20.9869C5.48237 20.9921 5.61287 20.949 5.66899 20.7011C6.15577 18.5621 6.9923 16.5654 8.15248 14.7057C8.27646 14.5073 8.23209 14.399 8.08201 14.2542C7.57957 13.7674 7.08235 13.2754 6.59426 12.7729C5.41842 11.5632 5.42495 9.9384 6.61123 8.72993C7.29507 8.03304 7.98543 7.34268 8.68233 6.65753C9.88427 5.47386 11.5795 5.46994 12.7788 6.64318C13.2669 7.12082 13.755 7.59977 14.2261 8.09569C14.3945 8.27187 14.5185 8.2797 14.7207 8.15441C16.5674 7.00337 18.5484 6.17206 20.6743 5.69702C20.9145 5.64351 20.968 5.51693 20.9641 5.28985C20.951 4.60731 20.9523 3.92347 20.9614 3.23963C20.9823 1.54047 22.166 0.364628 23.8599 0.355492C24.8531 0.350272 25.8449 0.348967 26.838 0.355492C28.4759 0.365933 29.6635 1.53264 29.7026 3.17568C29.7196 3.89085 29.717 4.60731 29.7 5.32378C29.6948 5.54955 29.7718 5.63568 29.9819 5.68397C32.1169 6.18119 34.1189 7.00598 35.9759 8.17138C36.1704 8.29405 36.28 8.25751 36.4275 8.10482C36.9025 7.61282 37.3867 7.13126 37.8761 6.65362C39.0845 5.47516 40.7772 5.47255 41.9739 6.6497C42.6695 7.33485 43.3612 8.02391 44.0437 8.7221C45.2469 9.95015 45.2456 11.571 44.0437 12.8017C43.566 13.291 43.0858 13.7778 42.5912 14.2489C42.4163 14.416 42.4033 14.54 42.5298 14.7436C43.6822 16.5889 44.5083 18.5739 44.9925 20.6958C45.046 20.9295 45.1608 20.996 45.3944 20.9908C46.0939 20.9751 46.7934 20.9777 47.4929 20.9869C49.1281 21.0091 50.3157 22.1993 50.3301 23.8332C50.3392 24.8576 50.3405 25.8834 50.3301 26.9091C50.3118 28.4895 49.1399 29.685 47.5595 29.7202C46.5507 29.7424 45.5419 29.7333 44.5331 29.7228C43.7514 29.715 43.2098 29.206 43.2176 28.5183C43.2254 27.8305 43.7657 27.345 44.5579 27.3359C45.4688 27.3268 46.381 27.3359 47.2919 27.3333C47.8727 27.332 47.9536 27.255 47.9562 26.6951C47.9614 25.7842 47.951 24.872 47.9601 23.9611C47.964 23.5539 47.8022 23.3686 47.3794 23.3751C46.3549 23.3895 45.3292 23.3829 44.3034 23.3777C43.4525 23.3738 43.0571 23.0567 42.8953 22.2084C42.4046 19.6375 41.4349 17.2714 39.942 15.1168C39.4891 14.4643 39.5531 13.9331 40.1103 13.3707C40.832 12.6424 41.5524 11.9129 42.2884 11.1991C42.5951 10.9002 42.6251 10.6496 42.3041 10.339C41.6372 9.69436 40.9768 9.04184 40.3387 8.36974C40.0229 8.03696 39.7945 8.08002 39.4956 8.39062C38.7857 9.13058 38.0536 9.84835 37.3253 10.5687C36.7603 11.1286 36.2226 11.1965 35.5779 10.7488C33.3972 9.23629 31.0011 8.2549 28.3923 7.77856C27.6589 7.64414 27.317 7.21087 27.3118 6.4422C27.3026 5.41774 27.2948 4.39198 27.3157 3.36752C27.3248 2.90554 27.1539 2.71892 26.6906 2.72806C25.7797 2.74633 24.8674 2.74372 23.9565 2.72806C23.5193 2.72153 23.3431 2.89771 23.351 3.33881C23.3692 4.33064 23.3588 5.32378 23.3562 6.31692C23.3536 7.25002 23.0639 7.62457 22.1556 7.79814C19.6016 8.28753 17.2512 9.25587 15.1083 10.7332C14.431 11.2004 13.909 11.1351 13.323 10.5544C12.6066 9.84444 11.8966 9.12667 11.1815 8.41542C10.7652 8.00172 10.7064 8.00303 10.281 8.42586C9.64675 9.0575 9.02425 9.70088 8.37695 10.3182C8.03764 10.6418 8.06374 10.8976 8.39 11.2121C9.1169 11.9116 9.82424 12.632 10.5342 13.3472C11.1136 13.9305 11.1763 14.4512 10.7064 15.1325C9.20956 17.3027 8.23339 19.6844 7.75705 22.2763C7.62002 23.0188 7.19458 23.366 6.43505 23.3725C5.39362 23.3816 4.3522 23.3881 3.31078 23.3699C2.86576 23.362 2.69741 23.5487 2.70263 23.9793C2.71568 24.8902 2.71829 25.8025 2.70263 26.7134C2.6948 27.178 2.88795 27.3463 3.34732 27.3372C4.35612 27.3163 5.36491 27.3268 6.37371 27.332C7.20372 27.3359 7.6135 27.6608 7.76358 28.4648C8.24383 31.0383 9.21478 33.4043 10.7012 35.5616C11.1841 36.2624 11.1201 36.7713 10.512 37.3834C9.80075 38.0999 9.09211 38.8176 8.36781 39.5197C8.05199 39.8251 8.0546 40.0744 8.36912 40.3785C9.04774 41.0349 9.71331 41.7031 10.371 42.3791C10.6347 42.6492 10.8461 42.6414 11.1071 42.3752C11.8457 41.6183 12.5974 40.8731 13.3491 40.1292C13.9129 39.5706 14.4349 39.5184 15.0966 39.9648C15.8509 40.4737 16.6339 40.9331 17.4365 41.3612C18.1426 41.7383 18.3905 42.4013 18.0721 43.0212C17.755 43.6398 17.0515 43.8342 16.352 43.4701C15.8052 43.1856 15.2676 42.8828 14.7416 42.5618C14.5224 42.4274 14.3893 42.4352 14.2092 42.6257C13.7394 43.1217 13.2513 43.6006 12.7632 44.0783C11.5612 45.2567 9.92472 45.2606 8.71887 44.0796C8.00893 43.3853 7.30812 42.6832 6.61384 41.9732C5.4132 40.7452 5.42103 39.1256 6.6295 37.8963C7.0967 37.4199 7.56652 36.9449 8.04938 36.4855C8.23078 36.3133 8.27515 36.1841 8.1316 35.9544C6.98708 34.1234 6.1649 32.1554 5.68204 30.0504C5.62723 29.8129 5.53326 29.7032 5.26182 29.7137C4.62757 29.7372 3.99332 29.7215 3.35776 29.7202C1.90395 29.7176 0.999555 29.1107 0.461878 27.7783C0.433167 27.7078 0.440998 27.6113 0.333984 27.5969C0.333984 26.1 0.333984 24.6018 0.333984 23.105L0.333984 23.1076Z" fill="#1E4854" stroke="#1E4854" stroke-width="0.6"/>
<path id="Vector_2" d="M11.4505 25.3456C11.4701 18.4498 16.4815 12.6437 23.312 11.6062C28.8076 10.771 34.5432 13.5168 37.2903 18.2893C37.5774 18.7865 37.6466 19.2668 37.2929 19.7444C36.9941 20.1503 36.5739 20.2782 36.0832 20.1868C35.6394 20.1046 35.4045 19.781 35.1866 19.426C33.7771 17.1291 31.8092 15.5096 29.2878 14.5569C22.6282 12.0434 15.1451 16.3787 13.9954 23.4168C13.1536 28.5717 15.7193 33.5035 20.4292 35.7664C20.839 35.9635 21.2109 36.1801 21.3258 36.6538C21.4367 37.1132 21.3427 37.5308 20.9773 37.8519C20.5649 38.2133 20.099 38.2394 19.6135 38.0163C17.1288 36.8705 15.1307 35.1582 13.6521 32.8562C12.1853 30.571 11.4518 28.064 11.4492 25.3456H11.4505Z" fill="#1E4854" stroke="#1E4854" stroke-width="0.6"/>
<path id="Vector_3" d="M49.784 44.967C45.7893 38.1103 41.8429 31.2276 37.8716 24.3578C36.3513 21.7282 33.1095 21.7451 31.5879 24.3826C29.6499 27.7418 27.7093 31.0997 25.7713 34.4588C23.7354 37.9864 21.693 41.51 19.665 45.0427C18.6419 46.8254 19.1782 48.8756 20.9231 49.8975C21.2363 50.0802 21.5847 50.2015 21.9175 50.3516H47.4049C47.5107 50.152 47.7208 50.2472 47.8748 50.2028C49.7984 49.6443 51.0917 47.2091 49.7853 44.967H49.784ZM46.5567 47.9738C42.6194 47.9764 38.6834 47.9738 34.7461 47.9738C30.874 47.9738 27.0033 47.9738 23.1312 47.9738C23.0177 47.9738 22.9028 47.9764 22.7893 47.9738C21.7022 47.949 21.2167 47.1112 21.7583 46.169C22.9772 44.0444 24.2079 41.925 25.4333 39.8043C28.183 35.0409 30.9314 30.2762 33.6851 25.5154C34.2462 24.5445 35.2133 24.5418 35.7836 25.4984C35.8253 25.5676 35.8632 25.6394 35.9036 25.7099C38.5254 30.2475 41.1473 34.7851 43.7678 39.324C45.0663 41.5726 46.3648 43.8199 47.6594 46.0698C48.2819 47.1504 47.8056 47.9751 46.5567 47.9751V47.9738Z" fill="#1E4854" stroke="#1E4854" stroke-width="0.6"/>
<path id="Vector_4" d="M33.5424 34.8386C33.5424 33.7345 33.5385 32.6291 33.5437 31.5251C33.5476 30.7329 34.0175 30.1926 34.7065 30.1743C35.4139 30.1548 35.9202 30.6951 35.9241 31.5159C35.9333 33.7254 35.9333 35.9335 35.9241 38.1429C35.9215 38.9703 35.4204 39.5119 34.7157 39.4962C34.0109 39.4806 33.5463 38.9338 33.5437 38.1038C33.5398 37.0154 33.5437 35.927 33.5437 34.8386H33.5424Z" fill="#1E4854" stroke="#1E4854" stroke-width="0.6"/>
<path id="Vector_5" d="M34.7557 41.9341C35.4134 41.9393 35.9289 42.4574 35.9289 43.1139C35.9289 43.7638 35.4043 44.291 34.7544 44.2962C34.0927 44.3015 33.5354 43.7416 33.5511 43.0878C33.5668 42.4431 34.1044 41.9289 34.7557 41.9341Z" fill="#1E4854" stroke="#1E4854" stroke-width="0.6"/>
</g>
<defs>
<clipPath id="clip0_235_4742">
<rect width="50.0039" height="50" fill="white" transform="translate(0.333984 0.351562)"/>
</clipPath>
</defs>
</svg>
