<svg width="44" height="52" viewBox="0 0 44 52" fill="none" xmlns="http://www.w3.org/2000/svg">
<g id="Layer_1">
<path id="Vector" d="M42.6218 30.9185C41.2684 27.8814 39.8457 24.881 38.5656 21.8113C38.427 21.4811 38.3128 21.1509 38.2965 20.784C38.1661 18.1586 37.734 15.5822 36.8167 13.1118C34.2607 6.21001 29.4176 2.03553 22.047 1.15497C16.7311 0.519015 11.8432 1.87246 7.57904 5.14193C3.39233 8.35432 1.1461 12.6226 1.00342 17.9426C0.942271 20.2907 1.41108 22.5655 1.99812 24.8199C2.75638 27.7387 3.75923 30.5598 5.57334 33.0221C5.72825 33.23 5.70379 33.446 5.70379 33.6703C5.70379 39.1207 5.70786 44.5712 5.69563 50.0217C5.69563 50.4212 5.78532 50.7432 6.08699 51.0001H25.1208C25.4307 50.7962 25.5448 50.519 25.5407 50.1399C25.5244 48.5948 25.5489 47.0498 25.5244 45.5047C25.5163 45.1052 25.6467 45.0319 26.0136 45.0359C28.7287 45.0522 31.4478 45.0319 34.1628 45.0522C34.9251 45.0604 35.4673 44.7465 35.8872 44.1472C36.4335 43.3645 36.7556 42.4799 37.0287 41.5789C37.9296 38.5989 38.3821 35.5292 38.7776 32.4513C38.8183 32.1293 38.9203 32.0559 39.2219 32.06C40.1147 32.0763 41.0116 32.0681 41.9044 32.0641C42.7482 32.0641 42.9765 31.6972 42.63 30.9185H42.6218ZM38.4841 30.7962C37.8563 30.7962 37.681 30.9715 37.6035 31.5789C37.1673 34.9789 36.7189 38.3788 35.6589 41.6564C35.4633 42.2597 35.2268 42.8427 34.8722 43.3767C34.6846 43.658 34.4563 43.7803 34.1057 43.7762C31.2439 43.764 28.3781 43.7518 25.5163 43.7762C24.7621 43.7844 24.1547 43.5153 23.6206 43.0343C22.5444 42.0641 22.1979 40.7758 22.1041 39.3979C22.0674 38.815 22.1041 38.2279 22.1327 37.645C22.1571 37.1476 21.99 36.8582 21.5986 36.8093C21.1991 36.7563 20.93 36.9846 20.8811 37.4738C20.7181 39.1126 20.7996 40.7228 21.4967 42.2516C22.0063 43.3727 22.8012 44.2288 23.9304 44.7343C24.171 44.8403 24.2688 44.9503 24.2647 45.2275C24.2484 46.6095 24.2484 47.9956 24.2647 49.3776C24.2647 49.6466 24.2077 49.7322 23.9223 49.7322C18.3903 49.7241 12.8624 49.72 7.33037 49.7322C6.95124 49.7322 6.96755 49.561 6.96755 49.296C6.97162 43.9597 6.96755 38.6234 6.96755 33.283C6.96755 33.0221 6.9757 32.7693 6.8004 32.541C5.05152 30.2907 4.08536 27.6817 3.35157 24.9748C2.76453 22.8101 2.25495 20.6209 2.27533 18.3584C2.32833 12.8509 4.66424 8.50923 9.23823 5.5129C14.7865 1.88877 20.7507 1.15089 26.9186 3.77217C31.354 5.65558 34.0731 9.19003 35.6589 13.658C36.4906 16.0021 36.9146 18.4277 37.0287 20.9104C37.0532 21.4811 37.2529 21.9907 37.473 22.4921C38.6267 25.1012 39.7886 27.7061 40.9504 30.3152C41.0157 30.4579 41.1257 30.5883 41.1053 30.7962C40.2289 30.7962 39.3565 30.7962 38.48 30.7962H38.4841Z" fill="#1E4854" stroke="#1E4854" stroke-width="2"/>
<path id="Vector_2" d="M25.3507 21.4158C25.3507 20.8777 25.3425 20.3436 25.3507 19.8055C25.3588 19.2185 25.5504 19.0228 26.1375 18.982C27.7559 18.8679 29.0237 17.6408 29.1175 16.1039C29.2153 14.457 28.1595 13.0872 26.5411 12.7611C24.7759 12.4064 22.9903 13.7762 22.868 15.5821C22.8599 15.6963 22.868 15.8104 22.8436 15.9205C22.7661 16.2874 22.5378 16.5075 22.1587 16.4749C21.7877 16.4382 21.5839 16.2058 21.588 15.8145C21.6002 14.4447 22.1505 13.3237 23.1901 12.4553C24.5761 11.2935 26.5451 11.1263 28.1147 11.9987C29.6964 12.8793 30.6136 14.6893 30.3609 16.4178C30.0877 18.2768 28.7751 19.7362 26.9773 20.1398C26.6634 20.2091 26.6022 20.3477 26.6104 20.6331C26.6267 21.4443 26.6185 22.2597 26.6104 23.0709C26.6104 23.6172 26.3984 23.8781 25.9826 23.8781C25.5708 23.8781 25.3507 23.609 25.3425 23.075C25.3344 22.5206 25.3425 21.9702 25.3425 21.4158H25.3507Z" fill="#1E4854" stroke="#1E4854" stroke-width="2"/>
<path id="Vector_3" d="M12.301 21.4076C12.301 20.8858 12.301 20.3681 12.301 19.8463C12.3051 19.194 12.4722 19.031 13.1367 18.978C14.3393 18.8842 15.224 18.289 15.7458 17.2128C16.2676 16.1365 16.1738 15.0644 15.5053 14.0697C14.7552 12.9568 13.3691 12.4716 12.0727 12.8304C10.8049 13.181 9.87542 14.3469 9.79796 15.684C9.76943 16.2099 9.53706 16.4912 9.1457 16.4831C8.73804 16.4749 8.51382 16.161 8.53013 15.6107C8.59943 13.3644 10.5725 11.4647 12.8677 11.4484C15.2158 11.428 17.2134 13.2666 17.3194 15.5414C17.4213 17.812 16.1045 19.5854 13.8746 20.1439C13.5933 20.2132 13.5689 20.3559 13.5689 20.5882C13.577 21.4321 13.577 22.28 13.5689 23.1239C13.5689 23.5234 13.4221 23.8292 12.9737 23.8699C12.5782 23.9025 12.3214 23.6579 12.3092 23.2095C12.2929 22.6103 12.3092 22.0069 12.3092 21.4036L12.301 21.4076Z" fill="#1E4854" stroke="#1E4854" stroke-width="2"/>
<path id="Vector_4" d="M25.9826 26.104C25.3915 26.104 25.0939 25.8757 25.1143 25.4395C25.1346 25.0156 25.42 24.828 26.0437 24.8362C26.5574 24.8403 26.8591 25.0686 26.8713 25.4558C26.8835 25.8757 26.5696 26.1081 25.9826 26.1081V26.104Z" fill="#1E4854" stroke="#1E4854" stroke-width="2"/>
<path id="Vector_5" d="M12.9173 26.0917C12.3588 26.0999 12.0571 25.8838 12.049 25.4802C12.0408 25.0644 12.3629 24.832 12.9458 24.832C13.5003 24.832 13.7734 25.0155 13.8019 25.4068C13.8264 25.7697 13.6429 25.9939 13.3046 26.0836C13.1823 26.1162 13.0478 26.0876 12.9173 26.0876V26.0917Z" fill="#1E4854" stroke="#1E4854" stroke-width="2"/>
</g>
</svg>
