<svg width="50" height="50" viewBox="0 0 50 50" fill="none" xmlns="http://www.w3.org/2000/svg">
<g id="Layer_1" clip-path="url(#clip0_243_4263)">
<path id="Vector" d="M26.4701 3.45854C26.4701 4.07586 26.4766 4.69318 26.4688 5.31049C26.457 6.17578 25.8359 6.82311 25.0197 6.83486C24.1825 6.84661 23.5378 6.19014 23.5313 5.30136C23.5234 4.04976 23.5247 2.79946 23.5313 1.54787C23.5352 0.651257 24.1667 -0.00260243 25.004 7.7872e-06C25.8412 0.002618 26.4609 0.657782 26.4688 1.557C26.474 2.19128 26.4688 2.82426 26.4688 3.45854H26.4701Z" fill="#1E4854"/>
<path id="Vector_2" d="M3.42226 26.3673C2.7855 26.3673 2.15005 26.3752 1.51329 26.366C0.652489 26.3517 0.00262832 25.72 7.91226e-06 24.9056C-0.0026125 24.0912 0.645938 23.4465 1.50543 23.44C2.79467 23.4295 4.0826 23.4282 5.37184 23.44C6.22741 23.4478 6.87334 24.1069 6.86155 24.9213C6.84975 25.7174 6.21299 26.3464 5.3797 26.3634C4.72722 26.3765 4.07474 26.366 3.42226 26.366V26.3673Z" fill="#1E4854"/>
<path id="Vector_3" d="M46.566 26.367C45.9293 26.367 45.2938 26.3748 44.6571 26.3657C43.7923 26.3526 43.1438 25.7262 43.1372 24.9118C43.132 24.0987 43.7806 23.4488 44.6374 23.4409C45.9267 23.4292 47.2146 23.4292 48.5038 23.4409C49.3607 23.4488 50.0079 24.1026 49.9988 24.917C49.9896 25.7118 49.3528 26.3461 48.5222 26.3644C47.8697 26.3787 47.2172 26.367 46.5647 26.367H46.566Z" fill="#1E4854"/>
<path id="Vector_4" d="M16.6618 8.00673C16.6526 8.62275 16.2438 9.17872 15.6608 9.37318C15.0607 9.57286 14.3833 9.41625 14.0492 8.87855C13.2959 7.6648 12.5687 6.43147 11.8926 5.17334C11.5376 4.51427 11.873 3.68422 12.5229 3.32531C13.1819 2.96119 14.0257 3.12171 14.4279 3.77166C15.1524 4.94626 15.8272 6.15218 16.5137 7.34896C16.6264 7.54603 16.6775 7.77312 16.6644 8.00673H16.6618Z" fill="#1E4854"/>
<path id="Vector_5" d="M8.03554 16.601C7.73158 16.6089 7.46167 16.5045 7.20356 16.3557C6.13182 15.7397 5.05483 15.1302 3.9857 14.5076C3.1891 14.043 2.92968 13.2025 3.33846 12.4704C3.75511 11.7265 4.6408 11.5124 5.45706 11.9744C6.56156 12.5996 7.66607 13.2273 8.75616 13.876C9.37719 14.2453 9.6091 14.8927 9.4165 15.5556C9.23962 16.1638 8.6723 16.5919 8.03423 16.5997L8.03554 16.601Z" fill="#1E4854"/>
<path id="Vector_6" d="M46.8478 13.244C46.8203 13.7178 46.6002 14.1589 46.1298 14.4356C44.9925 15.1025 43.8553 15.7681 42.701 16.4037C41.9581 16.8122 41.1065 16.559 40.7069 15.8634C40.3046 15.1639 40.5208 14.3064 41.2493 13.8731C42.3826 13.201 43.5212 12.5367 44.6794 11.9063C45.6673 11.3686 46.8478 12.0786 46.8478 13.244Z" fill="#1E4854"/>
<path id="Vector_7" d="M34.8567 9.45698C33.7286 9.4609 32.9844 8.30457 33.4994 7.34271C34.1427 6.1407 34.8371 4.96349 35.5485 3.80064C35.9612 3.12721 36.8155 2.95232 37.4876 3.33211C38.1493 3.70537 38.4506 4.54717 38.0785 5.22974C37.4195 6.44218 36.712 7.62853 36.0045 8.81356C35.7437 9.24947 35.3035 9.42566 34.8554 9.45698H34.8567Z" fill="#1E4854"/>
<path id="Vector_8" d="M40.1931 24.933C40.1866 22.6099 38.7991 20.6457 36.6084 19.8509C36.3411 19.7543 36.2638 19.6447 36.2678 19.3732C36.2835 18.2834 36.2861 17.1924 36.2717 16.1026C36.2298 12.9925 33.1796 10.9213 30.2605 12.0307C29.9867 12.1351 29.8779 12.1011 29.7233 11.8636C27.8956 9.0485 24.0737 9.05633 22.225 11.8767C22.0835 12.092 21.9892 12.1416 21.7297 12.0437C19.6452 11.2567 17.5633 11.9445 16.3553 13.8121C16.2059 14.0431 16.1024 14.094 15.822 13.987C12.8793 12.8659 9.81606 14.9528 9.8082 18.0994C9.79248 24.1369 9.77938 30.173 9.81475 36.2104C9.83178 39.0973 11.0699 41.4087 13.4204 43.1105C13.6419 43.271 13.7349 43.4264 13.7323 43.7017C13.7178 45.1504 13.7637 46.5991 13.7113 48.0451C13.6785 48.9548 13.9642 49.6113 14.804 50.0002H35.196C36.0346 49.6113 36.3202 48.9535 36.2874 48.0451C36.2363 46.5991 36.2822 45.1491 36.2678 43.7017C36.2651 43.4264 36.3608 43.2723 36.5809 43.1131C38.9288 41.41 40.1565 39.0973 40.1866 36.2104C40.2259 32.4517 40.2036 28.693 40.1931 24.9343V24.933ZM30.3954 16.113C30.4072 15.2895 31.0532 14.6552 31.8498 14.6487C32.6647 14.6422 33.3133 15.2882 33.3303 16.1378C33.3408 16.6403 33.3316 17.1441 33.3329 17.6465C33.3329 18.166 33.3224 18.6854 33.3382 19.2048C33.3447 19.4437 33.2975 19.5455 33.0237 19.5377C32.2415 19.5181 31.4593 19.5207 30.6771 19.5377C30.4282 19.5429 30.385 19.4515 30.3876 19.2296C30.3981 18.1908 30.381 17.1519 30.3954 16.1144V16.113ZM24.5205 13.9896C24.5205 13.8957 24.5637 13.8004 24.5939 13.709C24.8205 13.0408 25.4651 12.6219 26.1412 12.7015C26.8382 12.7837 27.4304 13.3606 27.4409 14.0666C27.4658 15.8037 27.4435 17.5421 27.4566 19.2792C27.4593 19.5716 27.2942 19.5311 27.1147 19.5324C26.2539 19.535 25.3865 19.4698 24.5165 19.7752C24.5165 17.8162 24.5166 15.9029 24.5192 13.9896H24.5205ZM20.1103 14.6487C20.9633 14.6565 21.5647 15.3195 21.5673 16.2644C21.5699 17.533 21.5673 18.8003 21.5673 20.0688C21.5673 21.3374 21.5699 22.5394 21.5673 23.7753C21.5647 24.7189 20.962 25.3832 20.109 25.3898C19.2548 25.3976 18.6298 24.732 18.6285 23.7975C18.6246 21.2774 18.6246 18.7585 18.6285 16.2383C18.6285 15.3052 19.2548 14.6409 20.1103 14.6487ZM12.7457 18.1673C12.7522 17.2655 13.3667 16.609 14.2026 16.6025C15.0398 16.5959 15.6792 17.2511 15.6832 18.1438C15.691 19.7204 15.691 21.2969 15.6832 22.8722C15.6792 23.7649 15.0385 24.4214 14.2013 24.4135C13.3654 24.4057 12.7509 23.7505 12.7444 22.8474C12.7391 22.0513 12.7444 21.2552 12.7444 20.4591C12.7444 19.6629 12.7404 18.9321 12.7444 18.1673H12.7457ZM37.2295 36.4362C37.1928 38.4461 36.1839 40.0083 34.4217 41.0028C33.6447 41.4413 33.291 41.9933 33.3224 42.8808C33.3657 44.1324 33.3224 45.3866 33.3408 46.6395C33.3447 46.9567 33.3002 47.082 32.932 47.0807C27.6388 47.0676 22.3455 47.0676 17.0523 47.0807C16.7195 47.0807 16.6566 46.9789 16.6593 46.6735C16.675 45.3227 16.6593 43.9719 16.6697 42.6211C16.675 41.9542 16.4011 41.4674 15.8155 41.1476C13.7113 39.9978 12.726 38.2137 12.7404 35.8371C12.7575 33.1199 12.7444 30.4014 12.7444 27.6841V27.1112C13.6576 27.3709 14.5354 27.4309 15.4277 27.1751C15.8522 27.0525 16.2518 26.6505 16.6226 26.7236C16.9737 26.7927 17.2226 27.2782 17.5725 27.5249C19.1237 28.616 21.1493 28.5951 22.7347 27.4323C22.9823 27.2508 23.1159 27.2574 23.3492 27.4362C24.1366 28.043 25.0433 28.3223 26.0377 28.3223C26.7033 28.3223 27.3689 28.3223 28.1117 28.3223C27.4252 29.279 26.9601 30.2669 26.7242 31.3541C26.5578 32.1189 26.4609 32.8928 26.4714 33.6759C26.4832 34.5007 27.1173 35.1454 27.9165 35.1585C28.7131 35.1715 29.384 34.5438 29.4049 33.7229C29.422 33.0534 29.477 32.3917 29.6565 31.7456C30.119 30.0738 31.2667 29.0467 32.8363 28.4228C33.0027 28.3563 33.1731 28.3001 33.3382 28.2323C34.0312 27.9465 34.4204 27.2809 34.2946 26.6022C34.1623 25.8883 33.5688 25.3989 32.7866 25.3963C30.5972 25.3884 28.4079 25.3937 26.2185 25.3924C26.039 25.3924 25.8556 25.3976 25.6826 25.3597C24.9424 25.1979 24.4366 24.5049 24.5139 23.7819C24.5939 23.0471 25.2057 22.4715 25.9748 22.4689C28.9477 22.4598 31.9218 22.4507 34.8947 22.4728C36.1734 22.482 37.2386 23.5443 37.2452 24.8207C37.2635 28.6943 37.3002 32.5679 37.2282 36.4401L37.2295 36.4362Z" fill="#1E4854"/>
</g>
<defs>
<clipPath id="clip0_243_4263">
<rect width="50" height="50" fill="white"/>
</clipPath>
</defs>
</svg>
