<svg width="50" height="51" viewBox="0 0 50 51" fill="none" xmlns="http://www.w3.org/2000/svg">
<g clip-path="url(#clip0_235_4314)">
<path d="M50.001 0.840787C50.001 0.418097 49.8797 0.352867 49.4922 0.352867C36.0862 0.364608 22.6815 0.364608 9.27673 0.351562C8.85796 0.351562 8.7849 0.466367 8.7862 0.857746C8.79925 8.40615 8.79403 15.9545 8.80186 23.5029C8.80186 23.8448 8.76011 23.9843 8.35308 24.0104C5.82738 24.1709 3.74002 25.9804 3.10338 28.5087C2.50848 30.8713 3.55607 33.4375 5.64473 34.7695C6.32312 35.2026 7.06935 35.457 7.84037 35.6696C7.66816 35.6996 7.50639 35.6983 7.34332 35.6996C3.99833 35.7192 1.15301 37.9031 0.256748 41.1268C0.171949 41.432 0.198041 41.7673 0.0114834 42.0439C0.0114834 44.6792 0.019311 47.3158 0.0010466 49.951C-0.00156259 50.2863 0.0675811 50.3516 0.401558 50.3516C6.12874 50.3385 11.8546 50.3424 17.5818 50.3424C17.5818 47.9028 17.6118 45.4619 17.574 43.0223C17.5296 40.2344 16.2733 38.1157 13.8898 36.6702C13.0757 36.1771 12.1769 35.9136 11.2519 35.6996H11.9342C24.444 35.6996 36.9538 35.6983 49.4649 35.7075C49.8615 35.7075 50.0037 35.6553 50.0037 35.1987C49.988 23.7456 49.988 12.2925 50.0023 0.840787H50.001ZM14.6334 42.7366C14.6869 44.1978 14.6373 45.6615 14.6608 47.124C14.6673 47.488 14.4547 47.4123 14.2577 47.4123C12.4378 47.4136 10.6179 47.4123 8.79795 47.4123C6.97803 47.4123 5.15812 47.4058 3.33821 47.4188C3.03815 47.4214 2.92334 47.3679 2.92856 47.0314C2.95074 45.6824 2.92465 44.3335 2.9403 42.9858C2.96901 40.5827 4.88024 38.6519 7.27939 38.6376C8.54355 38.6298 9.81684 38.511 11.0745 38.7185C13.0144 39.0394 14.5604 40.7641 14.6334 42.7366ZM8.80577 32.7708C7.18807 32.7773 5.8613 31.4493 5.86652 29.8289C5.87173 28.2308 7.18285 26.9197 8.78229 26.9145C10.4026 26.9093 11.7281 28.2334 11.7229 29.855C11.7176 31.4519 10.4039 32.7656 8.80577 32.7708ZM47.0683 32.3194C47.0683 32.6599 47.0226 32.7826 46.6326 32.7812C35.8318 32.7682 25.031 32.7708 14.2303 32.7708H13.878C14.8408 30.9196 14.9204 29.1049 14.0568 27.2785C13.6093 26.3339 12.9348 25.5668 12.0607 24.9928C11.8168 24.8323 11.7176 24.6745 11.7176 24.3744C11.7268 17.494 11.7281 10.6122 11.7163 3.73177C11.7163 3.37301 11.7933 3.27908 12.1625 3.28038C23.6469 3.29213 35.1312 3.29082 46.6143 3.28169C46.9626 3.28169 47.0722 3.3417 47.0722 3.72134C47.0592 13.254 47.0605 22.7854 47.0696 32.3181L47.0683 32.3194Z" fill="#1E4854"/>
<path d="M22.0164 27.5774C21.8442 27.5917 21.7816 27.7222 21.6942 27.8083C20.8984 28.5989 20.1 29.3868 19.3172 30.1905C19.1202 30.3927 19.008 30.4436 18.7889 30.2061C18.2814 29.6582 17.7478 29.1311 17.2038 28.6184C16.9924 28.4188 17.0277 28.3105 17.2168 28.1253C18.0205 27.3425 18.7993 26.535 19.6068 25.7561C19.8443 25.5265 19.8704 25.3935 19.616 25.1508C18.8058 24.3746 18.0322 23.5618 17.2247 22.783C17.0029 22.5703 17.012 22.4581 17.2286 22.2546C17.7621 21.7536 18.2801 21.2357 18.7797 20.7021C18.9846 20.4843 19.0954 20.4764 19.3081 20.6982C20.0869 21.5058 20.8997 22.2807 21.6746 23.0908C21.9173 23.3452 22.0504 23.3191 22.28 23.0817C23.0588 22.2742 23.8664 21.4953 24.6491 20.6917C24.8344 20.5025 24.9413 20.4647 25.1423 20.6773C25.6667 21.2331 26.2081 21.7719 26.7626 22.299C26.9596 22.4868 26.9204 22.5886 26.7482 22.7569C25.9355 23.554 25.1423 24.3707 24.3256 25.1625C24.1051 25.3765 24.0712 25.4978 24.3151 25.7313C25.137 26.5193 25.9237 27.3412 26.7404 28.1344C26.9413 28.3301 26.9361 28.4384 26.7365 28.6276C26.1938 29.1429 25.6654 29.6725 25.1501 30.2139C24.9622 30.4109 24.8539 30.4227 24.6569 30.2192C23.8638 29.4025 23.0523 28.6041 22.2474 27.8004C22.1678 27.7222 22.0856 27.6465 22.0138 27.5787L22.0164 27.5774Z" fill="#1E4854"/>
<path d="M36.6657 9.34293C38.9435 9.34293 41.2201 9.35206 43.4979 9.3338C43.8632 9.33119 43.9649 9.41729 43.9467 9.78388C43.914 10.4649 43.9127 11.1511 43.9467 11.8321C43.9649 12.2013 43.8593 12.2822 43.4966 12.2809C39.9181 12.2652 36.3396 12.2718 32.7597 12.2718C31.7187 12.2718 30.6776 12.2626 29.6365 12.2783C29.36 12.2822 29.2804 12.2052 29.2882 11.9299C29.3078 11.1981 29.3117 10.4649 29.2869 9.73431C29.2765 9.41338 29.3704 9.3338 29.6874 9.33641C32.0135 9.35076 34.3396 9.34423 36.6657 9.34423V9.34293Z" fill="#1E4854"/>
<path d="M36.6306 21.057C38.924 21.057 41.2175 21.0635 43.511 21.0492C43.8372 21.0465 43.9611 21.1026 43.9454 21.4627C43.9141 22.1933 43.9285 22.9265 43.9402 23.6584C43.9441 23.8971 43.8998 23.9923 43.6271 23.9923C38.958 23.9832 34.2901 23.9832 29.621 23.9923C29.3222 23.9923 29.2818 23.884 29.2883 23.6283C29.3039 22.8965 29.3157 22.1633 29.2844 21.4327C29.2687 21.0831 29.4096 21.0492 29.7005 21.0505C32.011 21.0609 34.3201 21.0557 36.6306 21.0557V21.057Z" fill="#1E4854"/>
<path d="M27.3545 8.95142C27.2984 9.01274 27.2345 9.08579 27.1666 9.15363C25.0271 11.2932 22.885 13.4301 20.7532 15.5762C20.5536 15.7771 20.4506 15.7614 20.2601 15.5683C19.1199 14.4086 17.9692 13.2592 16.8107 12.1164C16.6151 11.9233 16.5459 11.8111 16.7873 11.5867C17.3365 11.0792 17.8623 10.5456 18.375 10.0016C18.5759 9.78897 18.6881 9.82289 18.8707 10.016C19.3064 10.4765 19.7774 10.9044 20.2066 11.3714C20.4362 11.6219 20.5719 11.6193 20.8119 11.3741C22.2026 9.95857 23.6181 8.56787 25.0088 7.15108C25.2567 6.89798 25.3911 6.85754 25.6481 7.14064C26.1282 7.67031 26.6539 8.15823 27.1575 8.66702C27.2332 8.74399 27.3441 8.80009 27.3558 8.95012L27.3545 8.95142Z" fill="#1E4854"/>
<path d="M33.6639 18.1294C32.3306 18.1294 30.996 18.1189 29.6627 18.1372C29.3639 18.1411 29.2765 18.0706 29.287 17.7641C29.3117 17.0165 29.3052 16.2677 29.2896 15.5202C29.2843 15.2658 29.3548 15.1953 29.6118 15.1953C32.328 15.2044 35.0441 15.2044 37.7616 15.1953C38.0147 15.1953 38.093 15.2579 38.0878 15.5175C38.0708 16.2651 38.0656 17.0139 38.0891 17.7615C38.0982 18.0628 38.0199 18.1411 37.716 18.1372C36.3657 18.1189 35.0154 18.1294 33.6665 18.1294H33.6639Z" fill="#1E4854"/>
<path d="M33.6391 29.8434C32.3214 29.8434 31.0038 29.833 29.6861 29.8512C29.3678 29.8551 29.2765 29.7716 29.2869 29.452C29.3117 28.7045 29.3039 27.9556 29.2895 27.2081C29.2856 26.972 29.3548 26.9094 29.5883 26.9107C32.3214 26.9185 35.0532 26.9185 37.7864 26.9107C38.0199 26.9107 38.089 26.9733 38.0851 27.2094C38.0708 27.9739 38.0669 28.7384 38.0851 29.5029C38.0916 29.7795 38.0108 29.8538 37.7355 29.8512C36.3696 29.8369 35.0024 29.8447 33.6364 29.8447L33.6391 29.8434Z" fill="#1E4854"/>
</g>
<defs>
<clipPath id="clip0_235_4314">
<rect width="50.0026" height="50" fill="white" transform="translate(0 0.351562)"/>
</clipPath>
</defs>
</svg>
