<svg width="47" height="50" viewBox="0 0 47 50" fill="none" xmlns="http://www.w3.org/2000/svg">
<g id="Layer_1" clip-path="url(#clip0_243_4285)">
<path id="Vector" d="M46.0708 30.5807C44.982 27.3015 43.8946 24.021 42.7981 20.7431C42.6976 20.4442 42.6454 20.1504 42.6519 19.8371C42.6884 18.007 42.5292 16.2003 42.0775 14.4197C39.686 5.00502 30.7295 -1.07561 21.0238 0.159317C16.3517 0.753281 12.4211 2.83281 9.30245 6.34176C3.7218 12.6195 2.84195 21.3749 6.99839 28.6865C7.20203 29.0455 7.18767 29.2361 6.89265 29.5272C4.99197 31.4005 3.0965 33.2816 1.23107 35.1914C-0.0991514 36.553 -0.364151 38.5816 0.497423 40.2512C1.34594 41.8947 3.11347 42.8164 4.94889 42.601C6.18251 42.4561 7.1224 41.8177 7.95134 40.9444C8.6641 40.1938 9.40819 39.4732 10.1379 38.7396C10.1888 38.7539 10.2397 38.7683 10.2906 38.7826V50.0001H33.8325C33.8325 46.7287 33.8377 43.456 33.8247 40.1846C33.8234 39.823 33.8886 39.6938 34.2894 39.699C36.4211 39.7225 38.5542 39.699 40.6859 39.7199C41.0971 39.7238 41.1924 39.6063 41.1898 39.2082C41.1715 36.5713 41.1872 33.9343 41.1728 31.2961C41.1715 30.9554 41.2577 30.8457 41.6049 30.8601C42.2381 30.8875 42.8738 30.8679 43.5082 30.8679C44.3789 30.8679 45.251 30.8679 46.1621 30.8679C46.1178 30.7308 46.0943 30.6564 46.0695 30.5807H46.0708ZM6.54019 38.1926C6.14987 38.5607 5.7948 38.9654 5.39403 39.3192C4.928 39.7304 4.37973 39.81 3.80665 39.5554C3.24663 39.3061 2.98685 38.8479 2.96205 38.4354C2.94638 37.8545 3.07692 37.5112 3.34714 37.2305C3.71788 36.8441 4.10689 36.4747 4.47502 36.0856C4.61601 35.9368 4.70216 35.9199 4.8562 36.0778C5.4097 36.6496 5.97233 37.2135 6.54411 37.7657C6.71511 37.9315 6.70859 38.0333 6.54019 38.1926ZM9.07269 35.6483C8.99567 35.7253 8.90952 35.7932 8.81944 35.8716C8.73851 35.7958 8.67846 35.7423 8.62232 35.6862C8.07014 35.134 7.52839 34.5701 6.96053 34.0348C6.7595 33.8442 6.81172 33.7476 6.9775 33.5832C8.97218 31.5963 10.9642 29.6069 12.9472 27.6083C13.1482 27.4059 13.2474 27.4072 13.4249 27.6292C13.904 28.227 14.4471 28.7688 15.0463 29.2453C15.2682 29.4215 15.216 29.5116 15.0489 29.6787C13.0529 31.6642 11.0648 33.6576 9.07269 35.647V35.6483ZM13.237 19.1126C13.2344 13.4315 17.8425 8.81161 23.5276 8.79594C29.1957 8.78028 33.8299 13.4093 33.8338 19.0931C33.8377 24.7873 29.2427 29.3889 23.5484 29.3928C17.8555 29.3967 13.2396 24.7951 13.237 19.1126ZM38.703 27.915C38.297 27.9033 38.2317 28.043 38.2344 28.4059C38.2487 31.0272 38.2304 33.6484 38.2539 36.2697C38.2579 36.69 38.1364 36.7645 37.7435 36.7645C33.1863 36.7501 28.6278 36.7618 24.0706 36.7449C23.6411 36.7436 23.508 36.8428 23.5354 37.2788C23.5759 37.9432 23.5641 38.6142 23.538 39.28C23.5249 39.6207 23.6268 39.7186 23.9714 39.716C26.1031 39.7003 28.2362 39.7238 30.3679 39.6951C30.8353 39.6886 30.9136 39.8387 30.9084 40.2617C30.8875 42.3777 30.8901 44.4951 30.9084 46.6112C30.911 46.9663 30.8366 47.072 30.4606 47.0707C24.8774 47.0563 19.2941 47.0577 13.7121 47.0694C13.3388 47.0694 13.2226 46.9898 13.2265 46.5955C13.2448 44.4299 13.2331 42.2655 13.2278 40.0998C13.2252 38.844 13.0921 37.5986 12.878 36.3624C12.8401 36.1431 12.8806 36.0021 13.0359 35.8481C14.5607 34.3338 16.0841 32.8195 17.5892 31.2843C17.8242 31.0441 17.9874 31.1303 18.2158 31.2295C25.3068 34.3181 33.4983 30.7491 36.0465 23.4636C38.7787 15.652 33.7241 7.266 25.5288 6.0141C18.2119 4.89667 11.3572 10.04 10.4107 17.366C10.0935 19.8241 10.4277 22.1973 11.4446 24.4622C11.5647 24.7285 11.5399 24.8865 11.3298 25.0862C10.7619 25.6227 10.2097 26.1762 9.67188 26.7428C9.46171 26.9634 9.37294 26.9412 9.23718 26.6801C7.83777 23.9923 7.17462 21.1334 7.39785 18.1153C7.78164 12.9406 10.1014 8.80769 14.3453 5.81699C23.3644 -0.540385 36.1392 4.05468 39.1142 14.6951C39.6103 16.4692 39.7695 18.2746 39.7121 20.1034C39.6977 20.5669 39.7787 21.0016 39.9262 21.4376C40.6233 23.4962 41.306 25.5601 41.9939 27.6226C42.0188 27.6983 42.0383 27.7754 42.0827 27.9255C40.9183 27.9255 39.8126 27.9464 38.7082 27.915H38.703Z" fill="#1E4854"/>
<path id="Vector_2" d="M23.5262 14.6962C23.1528 14.6962 22.7781 14.6845 22.4048 14.7001C22.1542 14.7119 22.0602 14.6309 22.0654 14.3712C22.0798 13.6075 22.0784 12.8438 22.0654 12.0802C22.0615 11.8334 22.128 11.7342 22.393 11.7395C23.1567 11.7538 23.9204 11.7525 24.6841 11.7395C24.9308 11.7355 25.0287 11.8034 25.0235 12.0684C25.0078 12.8321 25.0052 13.5958 25.0235 14.3594C25.0313 14.661 24.9008 14.7106 24.6462 14.7001C24.2728 14.6845 23.8995 14.6962 23.5248 14.6962H23.5262Z" fill="#1E4854"/>
<path id="Vector_3" d="M16.1754 19.1258C16.1754 18.8007 16.2028 18.4717 16.1688 18.1506C16.1271 17.7564 16.238 17.6089 16.661 17.6311C17.3581 17.6676 18.0591 17.6493 18.7588 17.6363C19.0107 17.6311 19.1374 17.6689 19.1295 17.9705C19.1073 18.7341 19.1126 19.5004 19.1282 20.2641C19.1334 20.5278 19.0395 20.5917 18.7901 20.5878C18.0265 20.5735 17.2615 20.5722 16.4965 20.5878C16.2302 20.593 16.161 20.4964 16.1728 20.2484C16.1897 19.8751 16.1767 19.5004 16.1767 19.1258H16.1754Z" fill="#1E4854"/>
<path id="Vector_4" d="M30.8653 19.1246C30.8653 19.592 31.0494 20.2212 30.817 20.4836C30.5455 20.7903 29.9045 20.5632 29.4241 20.5762C28.9568 20.5893 28.3328 20.742 28.0626 20.5058C27.7519 20.2342 27.9829 19.5946 27.9621 19.1155C27.9451 18.7434 27.9725 18.3688 27.9542 17.9967C27.9425 17.7409 27.9908 17.6234 28.2884 17.6312C29.0495 17.6534 29.8118 17.6482 30.5742 17.6338C30.8235 17.6286 30.9188 17.6939 30.9032 17.9563C30.881 18.344 30.8979 18.7343 30.8979 19.1233C30.8862 19.1233 30.8757 19.1233 30.864 19.1233L30.8653 19.1246Z" fill="#1E4854"/>
<path id="Vector_5" d="M22.0706 24.8602C22.1124 24.4764 21.8669 23.8576 22.1646 23.5953C22.4244 23.3668 23.0275 23.5261 23.4804 23.5209C23.9021 23.5156 24.3237 23.5287 24.7454 23.5169C24.9582 23.5104 25.0247 23.5861 25.0221 23.7976C25.0117 24.5926 25.0117 25.3876 25.0221 26.1826C25.0247 26.3967 24.9529 26.4633 24.7428 26.4606C23.9321 26.4515 23.1201 26.4515 22.3095 26.4606C22.1111 26.4633 22.0628 26.3875 22.0667 26.2048C22.0771 25.7831 22.0706 25.3615 22.0706 24.8602Z" fill="#1E4854"/>
</g>
<defs>
<clipPath id="clip0_243_4285">
<rect width="46.1634" height="50" fill="white"/>
</clipPath>
</defs>
</svg>
