<svg width="37" height="38" viewBox="0 0 37 38" fill="none" xmlns="http://www.w3.org/2000/svg">
<path opacity="0.1" fill-rule="evenodd" clip-rule="evenodd" d="M18.5 36.3516C28.165 36.3516 36 28.5165 36 18.8516C36 9.18658 28.165 1.35156 18.5 1.35156C8.83502 1.35156 1 9.18658 1 18.8516C1 28.5165 8.83502 36.3516 18.5 36.3516Z" stroke="#0A142F" stroke-width="1.5"/>
<path d="M20.0932 14.3721H21.7016C21.8495 14.3721 21.9696 14.2589 21.9696 14.1195V12.6039C21.9696 12.4645 21.8495 12.3513 21.7016 12.3513H20.0932C18.4677 12.3513 17.1445 13.5976 17.1445 15.1299V16.8981H15.2681C15.1201 16.8981 15 17.0112 15 17.1507V18.6663C15 18.8057 15.1201 18.9189 15.2681 18.9189H17.1445V24.2234C17.1445 24.3629 17.2646 24.476 17.4126 24.476H19.0209C19.1689 24.476 19.289 24.3629 19.289 24.2234V18.9189H21.1655C21.2807 18.9189 21.3831 18.8491 21.4201 18.7461L21.9562 17.2305C21.9836 17.1537 21.9696 17.0688 21.9192 17.0027C21.8683 16.937 21.7879 16.8981 21.7016 16.8981H19.289V15.1299C19.289 14.7121 19.6498 14.3721 20.0932 14.3721Z" fill="#1E4854"/>
</svg>
