<svg width="60" height="60" viewBox="0 0 60 60" fill="none" xmlns="http://www.w3.org/2000/svg">
<path d="M37.5 6.14451C35.1324 5.40088 32.613 5 30 5C16.1929 5 5 16.1929 5 30C5 43.8071 16.1929 55 30 55C43.8071 55 55 43.8071 55 30C55 25.7117 53.9203 21.6755 52.0179 18.1486M42.5 14.375H42.5125M26.2501 54.7206L26.2504 49.2123C26.2504 48.914 26.3572 48.6254 26.5513 48.3989L32.7658 41.1485C33.2765 40.5527 33.1182 39.6391 32.4369 39.2497L25.2963 35.1693C25.1023 35.0585 24.9416 34.8976 24.8308 34.7036L20.1761 26.5466C19.9339 26.122 19.4664 25.8777 18.9796 25.921L5.16046 27.1519M52.5 15C52.5 20.5228 47.5 25 42.5 30C37.5 25 32.5 20.5228 32.5 15C32.5 9.47715 36.9772 5 42.5 5C48.0228 5 52.5 9.47715 52.5 15ZM43.125 14.375C43.125 14.7202 42.8452 15 42.5 15C42.1548 15 41.875 14.7202 41.875 14.375C41.875 14.0298 42.1548 13.75 42.5 13.75C42.8452 13.75 43.125 14.0298 43.125 14.375Z" stroke="#9FE2D9" stroke-width="2" stroke-linecap="round" stroke-linejoin="round"/>
</svg>
