<svg width="48" height="47" viewBox="0 0 48 47" fill="none" xmlns="http://www.w3.org/2000/svg">
<rect width="48" height="46.3514" rx="23.1757" fill="#1E4854"/>
<path d="M39.3123 28.7082C39.2535 28.7669 32.1817 34.6108 29.7858 36.4226C28.4265 37.4045 26.8457 38.0356 25.1838 38.2599C23.522 38.4841 21.8304 38.2946 20.2594 37.7082C19.5398 37.4604 18.8529 37.1264 18.2134 36.7137C10.7095 32.6327 15.5834 19.2977 15.5834 19.2977L17.9793 12.4603C18.1342 12.024 18.4521 11.6646 18.8663 11.4577C19.2804 11.2507 19.7587 11.2121 20.2006 11.3501C20.6196 11.525 20.9692 11.8332 21.1951 12.227C21.389 12.6504 21.4101 13.1327 21.2539 13.5714L19.1483 19.5319C19.095 19.711 19.1069 19.9031 19.1819 20.0743C19.2569 20.2454 19.3901 20.3844 19.5578 20.4667C19.6166 20.4667 19.7332 20.5254 19.792 20.5254C19.942 20.5256 20.0887 20.4812 20.2136 20.398C20.3384 20.3148 20.4359 20.1965 20.4936 20.058L22.5974 14.0966C22.5974 14.0379 22.5974 14.0379 22.6562 13.98L24.1172 9.94695C24.2721 9.51087 24.5899 9.1517 25.0038 8.94473C25.4178 8.73777 25.8958 8.69907 26.3376 8.83675C26.7566 9.01168 27.1062 9.31992 27.3321 9.7137C27.5272 10.1571 27.5482 10.6577 27.3909 11.1159L27.3321 11.2913L24.4101 19.766C24.3549 19.9521 24.3724 20.1521 24.4592 20.3257C24.546 20.4993 24.6955 20.6334 24.8775 20.7008C24.9363 20.7008 25.0529 20.7596 25.1117 20.7596C25.2617 20.7597 25.4084 20.7154 25.5333 20.6322C25.6581 20.549 25.7556 20.4307 25.8133 20.2922L28.8528 11.6421L29.7298 9.18753C29.8855 8.75253 30.2032 8.39451 30.6167 8.1883C31.0301 7.98208 31.5073 7.94362 31.9484 8.08095C32.3674 8.25588 32.717 8.56412 32.9429 8.95789C33.1368 9.38127 33.1579 9.86357 33.0017 10.3022L31.7143 13.8046C31.6555 13.9212 31.6555 13.98 31.5976 14.0966C31.5976 14.1554 31.5976 14.2132 31.5389 14.2132L28.9089 21.4612C28.8556 21.6402 28.8675 21.8324 28.9425 22.0036C29.0175 22.1747 29.1507 22.3137 29.3184 22.396C29.3772 22.396 29.4938 22.4547 29.5526 22.4547C29.7026 22.4548 29.8493 22.4105 29.9742 22.3273C30.099 22.2441 30.1965 22.1258 30.2542 21.9873L33.0008 14.3932C33.1863 13.9992 33.505 13.6833 33.9007 13.5014C34.2963 13.3194 34.7435 13.2831 35.1634 13.3987C35.5824 13.5736 35.9319 13.8818 36.1579 14.2756C36.3518 14.699 36.3729 15.1813 36.2167 15.62L32.3571 26.0782C31.7143 26.3124 31.1293 26.5456 30.8373 26.6623C27.1549 25.2601 25.1677 26.8964 23.5313 28.182C23.4584 28.2396 23.3976 28.311 23.3523 28.3921C23.307 28.4732 23.2781 28.5624 23.2672 28.6546C23.2564 28.7469 23.2638 28.8404 23.2891 28.9298C23.3144 29.0192 23.3571 29.1027 23.4147 29.1756C23.4723 29.2485 23.5437 29.3093 23.6247 29.3546C23.7058 29.3999 23.7951 29.4288 23.8873 29.4397C23.9796 29.4505 24.0731 29.443 24.1625 29.4177C24.2519 29.3924 24.3354 29.3498 24.4083 29.2922C25.9859 28.0066 27.4479 26.7789 30.5453 28.0645C30.7158 28.1228 30.9009 28.1228 31.0715 28.0645C31.2469 28.0057 35.28 26.4281 36.6823 25.8432C37.4417 25.5512 38.8449 25.1416 39.6043 26.194C39.753 26.3771 39.8635 26.588 39.9294 26.8145C39.9953 27.041 40.0152 27.2783 39.988 27.5126C39.9608 27.7469 39.887 27.9733 39.771 28.1787C39.6549 28.384 39.499 28.564 39.3123 28.7082Z" fill="#FE906D"/>
<path d="M12.2659 17.0912L13.4384 19.0644C13.475 19.1318 13.4938 19.2075 13.4931 19.2843C13.4919 19.3484 13.4727 19.411 13.4377 19.4647C13.4027 19.5185 13.3533 19.5614 13.2952 19.5885C13.2519 19.6157 13.2034 19.6336 13.1528 19.6411C13.1022 19.6486 13.0506 19.6455 13.0013 19.6321C12.9519 19.6186 12.9059 19.595 12.8661 19.5629C12.8264 19.5307 12.7937 19.4907 12.7702 19.4452L11.594 17.4728C11.5669 17.4295 11.5489 17.381 11.5414 17.3304C11.5339 17.2798 11.537 17.2282 11.5505 17.1789C11.5639 17.1295 11.5875 17.0835 11.6197 17.0437C11.6518 17.004 11.6919 16.9713 11.7373 16.9478C11.7807 16.92 11.8295 16.9016 11.8805 16.8938C11.9315 16.8859 11.9836 16.8889 12.0333 16.9024C12.0831 16.9159 12.1295 16.9397 12.1696 16.9722C12.2096 17.0047 12.2424 17.0452 12.2659 17.0912Z" fill="#FE906D" stroke="#FE906D" stroke-width="1.01124"/>
<path d="M11.7887 21.6241C11.864 21.6538 11.9277 21.707 11.9703 21.7758C12.0129 21.8446 12.0321 21.9253 12.025 22.0059C12.0282 22.0499 12.0158 22.0937 11.9899 22.1294C11.9506 22.2261 11.8756 22.304 11.7805 22.3471C11.6855 22.3902 11.5775 22.3952 11.4788 22.3611L8.43784 21.1954C8.34231 21.156 8.26532 21.0818 8.22245 20.9878C8.17957 20.8938 8.174 20.787 8.20687 20.6891C8.24613 20.5934 8.32031 20.5162 8.41437 20.4732C8.50843 20.4301 8.61533 20.4244 8.71343 20.4572L11.7887 21.6241Z" fill="#FE906D" stroke="#FE906D" stroke-width="1.01124"/>
<path d="M11.3909 24.9732C11.4142 25.0107 11.4236 25.0552 11.4172 25.0989C11.4184 25.176 11.3931 25.2512 11.3455 25.3119C11.2979 25.3726 11.231 25.4151 11.1558 25.4325L8.98189 26.1357C8.88557 26.1609 8.78343 26.1511 8.69367 26.108C8.60391 26.0649 8.53235 25.9914 8.49173 25.9006C8.46654 25.8043 8.47636 25.7021 8.51943 25.6124C8.56251 25.5227 8.63604 25.4511 8.72695 25.4105L10.9018 24.7082C11.0017 24.6823 11.1078 24.6952 11.1985 24.7444C11.2893 24.7935 11.3581 24.8753 11.3909 24.9732Z" fill="#FE906D" stroke="#FE906D" stroke-width="1.01124"/>
</svg>
