<svg width="50" height="50" viewBox="0 0 50 50" fill="none" xmlns="http://www.w3.org/2000/svg">
<g id="Layer_1" clip-path="url(#clip0_243_4277)">
<path id="Vector" d="M49.9765 12.7281C49.9765 12.6147 49.9804 12.5 49.9765 12.3867C49.9478 11.709 49.6233 11.2725 48.9887 11.0262C48.6564 10.8971 48.3201 10.9349 47.9787 10.9532C44.7664 11.1213 42.048 13.7758 41.7939 16.9829C41.7548 17.4847 41.7157 17.9864 41.6688 18.4868C41.5371 19.9086 41.4329 21.3329 41.3065 22.7547C41.2127 23.805 41.1488 24.858 41.0328 25.9071C41.0015 26.1885 40.9116 26.2407 40.664 26.1182C40.3135 25.9448 39.9382 25.8302 39.5563 25.7494C39.2761 25.6894 39.1654 25.5409 39.1237 25.2542C39.0481 24.7381 39.0794 24.2142 38.9803 23.7034C38.5646 21.544 37.4765 19.816 35.6638 18.5572C35.4149 18.3839 35.1907 18.2588 35.3888 17.8665C36.7376 15.1976 35.51 12.1404 32.7017 11.1552C32.372 11.0392 32.1491 10.8685 31.9875 10.5557C31.3568 9.33856 30.5097 8.29993 29.3434 7.55582C29.0085 7.3421 28.9915 7.14011 29.1701 6.79607C30.111 4.98597 29.7291 2.83053 28.2865 1.30321C26.9195 -0.143304 24.4357 -0.291866 22.9422 0.406633C20.5392 1.53127 19.5501 4.43603 20.762 6.81041C20.9249 7.12968 20.9288 7.33037 20.6069 7.53627C19.4706 8.26214 18.6157 9.25255 18.0032 10.4436C17.7908 10.8554 17.4924 11.0561 17.0675 11.2073C14.3882 12.1612 13.304 15.2602 14.4195 17.6697C14.6879 18.2496 14.7062 18.247 14.1615 18.6223C12.9065 19.4876 12.0477 20.6644 11.4274 22.0406C10.9687 23.057 10.8879 24.1413 10.8006 25.2255C10.7758 25.537 10.652 25.6933 10.3497 25.7546C9.96656 25.8315 9.59125 25.9475 9.2433 26.126C8.96703 26.268 8.92663 26.1442 8.89145 25.8966C8.82629 25.4444 8.82238 24.9896 8.77937 24.5374C8.64254 23.1157 8.5422 21.6913 8.41579 20.2695C8.30632 19.0407 8.25811 17.8052 8.07957 16.5855C7.62867 13.4944 4.93633 11.0405 1.83739 10.9441C0.770094 10.9102 0.22146 11.2412 -0.00268555 12.1664V34.7895C0.0572602 35.1895 0.27098 35.488 0.556374 35.772C3.83385 39.0352 7.09959 42.3113 10.3771 45.5745C10.6768 45.8729 10.8253 46.1792 10.8058 46.604C10.781 47.1709 10.7797 47.7404 10.8058 48.3072C10.8488 49.2651 11.2671 49.8046 12.0894 50.0014H22.232C23.0751 49.7225 23.4153 49.2612 23.4452 48.3489C23.4492 48.2356 23.4478 48.1222 23.4478 48.0075C23.4478 44.0602 23.4505 40.1129 23.4478 36.1656C23.4439 33.0771 21.5465 30.588 18.5466 29.8921C17.5302 29.6563 17.0727 28.8822 16.4029 28.2984C16.4159 28.2658 16.429 28.2345 16.4433 28.2019C22.1264 28.2019 27.8096 28.2019 33.5917 28.2019C33.3233 28.546 33.077 28.7349 32.8776 28.9656C32.4527 29.4608 31.9406 29.7423 31.289 29.9091C28.4729 30.6297 26.5285 32.9976 26.4934 35.8242C26.4425 39.9982 26.4725 44.1736 26.4855 48.3476C26.4881 49.2585 26.8517 49.7212 27.6949 49.9987H37.8374C38.1476 49.9179 38.4617 49.8645 38.678 49.5765C38.9855 49.1686 39.1211 48.7125 39.1354 48.2147C39.1497 47.7117 39.1641 47.2061 39.1328 46.7043C39.1015 46.2065 39.284 45.8508 39.6332 45.5028C42.8377 42.3179 46.02 39.1095 49.2337 35.9336C49.7614 35.4124 49.9895 34.8689 49.9882 34.1314C49.97 26.9965 49.9778 19.8617 49.9778 12.7268L49.9765 12.7281ZM31.1874 13.9687C32.11 13.944 32.8815 14.6789 32.8906 15.5912C32.901 16.5659 32.1843 17.2996 31.2239 17.297C30.2947 17.2957 29.5662 16.5659 29.5571 15.6277C29.5493 14.7454 30.2882 13.9909 31.1861 13.9674L31.1874 13.9687ZM24.9804 2.99864C25.8978 3.00646 26.6406 3.7662 26.6263 4.68363C26.6119 5.63365 25.9004 6.32693 24.9465 6.32042C23.9965 6.3139 23.2993 5.60628 23.3006 4.64975C23.3006 3.73493 24.059 2.98951 24.9804 2.99864ZM18.7186 13.9687C19.6152 13.9791 20.3659 14.7219 20.3711 15.6068C20.3776 16.5542 19.6165 17.3166 18.6782 17.2996C17.7295 17.2827 17.0389 16.5725 17.0389 15.6159C17.0389 14.6985 17.7921 13.9596 18.7186 13.97V13.9687ZM17.3634 32.7865C19.137 32.9272 20.3646 34.2916 20.3711 36.0718C20.3828 39.6138 20.3711 43.1571 20.3815 46.6991C20.3815 46.9884 20.3255 47.0849 20.0127 47.0823C18.0957 47.0666 16.1775 47.0666 14.2605 47.0823C13.9543 47.0849 13.8839 46.9949 13.8852 46.7004C13.8917 44.5359 14.0663 44.9763 12.4686 43.3747C9.38144 40.2797 6.28641 37.1925 3.19399 34.1027C3.04543 33.9541 2.91902 33.8212 2.91902 33.571C2.92814 27.1685 2.92554 20.766 2.92554 14.2737C4.15052 14.8966 4.91939 15.8075 5.05752 17.1068C5.30252 19.416 5.46411 21.7343 5.65698 24.0487C5.85897 26.4765 6.05575 28.9043 6.25904 31.3321C6.29423 31.7505 6.46234 32.1088 6.76337 32.4099C8.29459 33.9346 9.8167 35.4697 11.3518 36.9905C11.9669 37.6004 12.8765 37.6121 13.4512 37.0478C14.0403 36.4705 14.0324 35.5479 13.4056 34.912C12.1142 33.6062 10.8214 32.303 9.50524 31.022C9.22115 30.7457 9.20421 30.5059 9.33322 30.1697C9.91834 28.6554 11.8066 28.1811 13.0264 29.294C13.9738 30.1593 14.8652 31.0845 15.7578 32.0072C16.2074 32.4711 16.6909 32.7331 17.362 32.7865H17.3634ZM23.1273 25.1434C21.6482 25.1317 20.1691 25.1382 18.69 25.1382C17.2109 25.1382 15.7644 25.1252 14.3022 25.1473C13.9425 25.1525 13.8904 25.0509 13.9191 24.7133C14.1419 22.0836 16.1201 20.2422 18.7317 20.2604C21.3276 20.2774 23.3058 22.1657 23.4961 24.7824C23.5208 25.116 23.4061 25.146 23.1273 25.1447V25.1434ZM25.1511 20.2878C24.9869 20.5054 24.9061 20.452 24.7654 20.2682C24.1959 19.5254 23.5052 18.9142 22.7037 18.4334C22.5031 18.3135 22.5004 18.2327 22.6125 18.0307C23.9079 15.7137 23.3123 13.2246 21.1021 11.7247C20.9093 11.5943 20.8793 11.5292 21.0083 11.3259C22.7324 8.61921 27.1462 8.60878 28.9029 11.3142C28.9472 11.3819 28.9915 11.4497 29.0345 11.5175C29.028 11.6413 28.9199 11.6582 28.8443 11.7116C26.5989 13.2702 26.0242 15.6615 27.33 18.0555C27.429 18.2366 27.4421 18.3109 27.2505 18.4243C26.4321 18.909 25.7258 19.5293 25.1524 20.2891L25.1511 20.2878ZM31.2551 25.1369C29.776 25.1369 28.2969 25.1291 26.8178 25.1434C26.5064 25.146 26.4073 25.0848 26.436 24.7472C26.6563 22.0992 28.6436 20.2474 31.2786 20.2578C33.8719 20.2682 35.8201 22.1422 36.0156 24.7928C36.0378 25.0874 35.9648 25.1447 35.6911 25.1421C34.212 25.1304 32.7329 25.1369 31.2538 25.1369H31.2551ZM46.6547 34.1939C43.4176 37.4153 40.2053 40.6615 36.95 43.8634C36.2958 44.5072 35.9674 45.1718 36.0247 46.0931C36.086 47.0718 36.0378 47.0744 35.0578 47.0744C33.3676 47.0744 31.6774 47.0666 29.9872 47.0809C29.6692 47.0836 29.5441 47.0353 29.5454 46.6718C29.561 43.1454 29.5493 39.619 29.5571 36.0926C29.561 34.2695 30.8199 32.9025 32.6404 32.7774C33.2373 32.7357 33.679 32.5063 34.0856 32.0919C35.0174 31.1393 35.9413 30.1762 36.9252 29.2797C38.1437 28.1707 40.0307 28.6698 40.6041 30.1945C40.7253 30.5164 40.7096 30.7431 40.4386 31.0064C39.1471 32.2652 37.8791 33.5488 36.6046 34.8259C35.9114 35.5205 35.8553 36.421 36.46 37.0296C37.0673 37.6408 37.9717 37.5939 38.665 36.9045C40.1388 35.4371 41.6036 33.9593 43.0814 32.4959C43.4619 32.1206 43.6418 31.6866 43.6848 31.1588C44.0275 26.9665 44.382 22.7742 44.7312 18.5819C44.7846 17.9356 44.7768 17.2801 44.9541 16.6493C45.2551 15.5742 45.9288 14.808 47.0013 14.2724C47.0013 14.5043 47.0013 14.6646 47.0013 14.8249C47.0013 21.0006 46.9974 27.175 47.0105 33.3508C47.0105 33.7091 46.8984 33.9463 46.6521 34.1926L46.6547 34.1939Z" fill="#1E4854"/>
</g>
<defs>
<clipPath id="clip0_243_4277">
<rect width="49.9883" height="50" fill="white"/>
</clipPath>
</defs>
</svg>
