<svg width="37" height="38" viewBox="0 0 37 38" fill="none" xmlns="http://www.w3.org/2000/svg">
<path opacity="0.1" fill-rule="evenodd" clip-rule="evenodd" d="M18.5 36.3516C28.165 36.3516 36 28.5165 36 18.8516C36 9.18658 28.165 1.35156 18.5 1.35156C8.83502 1.35156 1 9.18658 1 18.8516C1 28.5165 8.83502 36.3516 18.5 36.3516Z" stroke="#0A142F" stroke-width="1.5"/>
<path d="M17.9998 16.8887C17.4372 16.8887 16.8976 17.1122 16.4998 17.51C16.1019 17.9078 15.8784 18.4474 15.8784 19.01C15.8784 19.5727 16.1019 20.1122 16.4998 20.5101C16.8976 20.9079 17.4372 21.1314 17.9998 21.1314C18.5624 21.1314 19.102 20.9079 19.4998 20.5101C19.8977 20.1122 20.1212 19.5727 20.1212 19.01C20.1212 18.4474 19.8977 17.9078 19.4998 17.51C19.102 17.1122 18.5624 16.8887 17.9998 16.8887Z" fill="#1E4854"/>
<path fill-rule="evenodd" clip-rule="evenodd" d="M14.5862 13.1886C16.8551 12.9371 19.1449 12.9371 21.4138 13.1886C22.6533 13.327 23.6526 14.3028 23.7982 15.5469C24.0673 17.8476 24.0673 20.1717 23.7982 22.4724C23.6526 23.7165 22.6533 24.6923 21.4144 24.8313C19.1453 25.0829 16.8554 25.0829 14.5862 24.8313C13.3467 24.6923 12.3474 23.7165 12.2018 22.473C11.9327 20.1722 11.9327 17.8478 12.2018 15.5469C12.3474 14.3028 13.3467 13.327 14.5862 13.1886ZM21.2637 15.0933C21.0905 15.0933 20.9245 15.1621 20.8021 15.2845C20.6797 15.4069 20.6109 15.5729 20.6109 15.746C20.6109 15.9191 20.6797 16.0852 20.8021 16.2076C20.9245 16.33 21.0905 16.3987 21.2637 16.3987C21.4368 16.3987 21.6028 16.33 21.7252 16.2076C21.8476 16.0852 21.9164 15.9191 21.9164 15.746C21.9164 15.5729 21.8476 15.4069 21.7252 15.2845C21.6028 15.1621 21.4368 15.0933 21.2637 15.0933ZM14.8996 19.0097C14.8996 18.1874 15.2262 17.3987 15.8077 16.8173C16.3891 16.2358 17.1777 15.9092 18 15.9092C18.8223 15.9092 19.6109 16.2358 20.1924 16.8173C20.7738 17.3987 21.1005 18.1874 21.1005 19.0097C21.1005 19.8319 20.7738 20.6206 20.1924 21.202C19.6109 21.7835 18.8223 22.1101 18 22.1101C17.1777 22.1101 16.3891 21.7835 15.8077 21.202C15.2262 20.6206 14.8996 19.8319 14.8996 19.0097Z" fill="#1E4854"/>
</svg>
