<svg width="37" height="38" viewBox="0 0 37 38" fill="none" xmlns="http://www.w3.org/2000/svg">
<path opacity="0.1" fill-rule="evenodd" clip-rule="evenodd" d="M18.5 36.3516C28.165 36.3516 36 28.5165 36 18.8516C36 9.18658 28.165 1.35156 18.5 1.35156C8.83502 1.35156 1 9.18658 1 18.8516C1 28.5165 8.83502 36.3516 18.5 36.3516Z" stroke="#0A142F" stroke-width="1.5"/>
<path d="M14.4835 15.3187C15.3029 15.3187 15.9671 14.6545 15.9671 13.8351C15.9671 13.0158 15.3029 12.3516 14.4835 12.3516C13.6642 12.3516 13 13.0158 13 13.8351C13 14.6545 13.6642 15.3187 14.4835 15.3187Z" fill="#1E4854"/>
<path d="M15.7198 16.3096H13.2473C13.1108 16.3096 13 16.4203 13 16.5568V23.9746C13 24.1111 13.1108 24.2218 13.2473 24.2218H15.7198C15.8563 24.2218 15.9671 24.1111 15.9671 23.9746V16.5568C15.9671 16.4203 15.8563 16.3096 15.7198 16.3096Z" fill="#1E4854"/>
<path d="M23.088 15.8982C22.0313 15.5362 20.7094 15.8542 19.9167 16.4244C19.8895 16.3181 19.7926 16.2389 19.6774 16.2389H17.2048C17.0683 16.2389 16.9575 16.3497 16.9575 16.4862V23.9039C16.9575 24.0404 17.0683 24.1512 17.2048 24.1512H19.6774C19.8138 24.1512 19.9246 24.0404 19.9246 23.9039V18.573C20.3242 18.2289 20.839 18.1191 21.2603 18.2981C21.6688 18.4707 21.9027 18.892 21.9027 19.4533V23.9039C21.9027 24.0404 22.0135 24.1512 22.1499 24.1512H24.6225C24.759 24.1512 24.8698 24.0404 24.8698 23.9039V18.9553C24.8416 16.9233 23.8857 16.1712 23.088 15.8982Z" fill="#1E4854"/>
</svg>
