<svg width="135" height="40" viewBox="0 0 135 40" fill="none" xmlns="http://www.w3.org/2000/svg">
<path d="M49.6051 24.6884L49.9697 28.8633C50.1521 30.9507 50.8291 33.2724 53.3119 33.0555C54.0595 33.0114 54.7726 32.7261 55.3443 32.2425C56.2137 31.3366 55.728 28.0022 55.7015 27.2505C55.6169 25.835 55.5839 24.0855 55.3087 20.9355C55.2743 20.5413 55.4253 20.4511 55.7795 20.4201C56.9354 20.3728 58.0428 19.9424 58.9273 19.1966C59.8753 18.2412 58.6823 17.7502 57.1456 17.8844C56.6695 17.8774 56.1577 17.9221 55.6846 17.9634C55.2116 18.0047 55.0299 17.7432 55.0309 17.2664C55.1149 15.5126 54.8459 13.7908 54.8522 12.0438C54.9052 9.93579 55.2161 10.3058 56.5643 9.83118C57.2013 9.66959 57.82 9.44271 58.4105 9.15415C59.4947 8.42748 58.4432 7.28861 55.5673 7.53981C54.0873 7.70106 52.6369 8.06718 51.2576 8.62766C49.1466 9.44995 49.0267 13.072 49.6051 24.6884ZM62.8301 12.5409C64.273 12.256 64.1529 11.7898 63.5958 9.49798C63.5607 9.05309 63.3589 8.63784 63.0309 8.33524C62.7029 8.03263 62.2728 7.86496 61.8265 7.86573C61.46 7.786 61.0832 7.76449 60.7099 7.80201C60.5245 7.81144 60.3407 7.84061 60.1615 7.88905C58.9606 8.23107 59.3777 8.90604 59.5341 11.1582C59.6019 12.383 61.293 12.6716 62.5532 12.5615L62.8301 12.5409ZM64.7152 15.9474C64.413 14.3068 63.0499 14.1484 61.632 14.2723C60.2541 14.3926 59.8577 14.8636 59.9062 16.3284C59.9464 20.4979 60.2833 24.6594 60.9145 28.7811C61.2477 30.7759 62.3286 31.3953 64.263 31.2263C64.5904 31.2278 64.9141 31.1578 65.2117 31.0214C65.5093 30.8849 65.7735 30.6852 65.986 30.4361C66.1984 30.1871 66.354 29.8947 66.4419 29.5793C66.5298 29.264 66.5478 28.9333 66.4948 28.6102C66.323 27.0779 65.4131 18.9419 64.7152 15.9474ZM71.8859 22.6236C71.6628 22.2431 71.5062 21.8274 71.4228 21.3942C69.8478 15.5786 69.7775 13.9188 67.2454 13.5448C66.9703 13.4962 66.6903 13.4808 66.4115 13.4991C65.0724 13.6161 65.8179 15.3365 66.9688 19.8791C67.6357 22.5194 68.2272 25.2054 69.013 27.8354C69.2913 28.5315 69.7824 29.1221 70.416 29.5228C71.0497 29.9234 71.7938 30.1138 72.542 30.0668C72.897 30.0374 73.2404 29.9263 73.5452 29.742C75.8905 28.4262 75.56 23.7326 77.1286 16.2539C77.4161 14.9981 77.4101 14.0465 75.0369 13.6586C74.7364 13.5839 74.4259 13.5574 74.1171 13.5801C73.411 13.6418 73.1345 14.1402 73.0814 15.2973C72.8203 17.7598 72.4212 20.2058 71.8859 22.6236ZM90.9064 18.6608C90.9319 16.2374 90.3807 14.4608 90.4238 13.5832C90.4082 11.5998 88.0016 10.8971 85.8836 11.0821C85.4605 11.1173 85.0419 11.1935 84.6336 11.3098C83.4328 11.6518 82.2755 12.0316 81.0723 12.3323C80.4163 12.4213 79.8103 12.7314 79.3544 13.2115C78.8986 13.6915 78.6202 14.3127 78.5652 14.9724C78.1725 17.0404 77.9986 19.144 78.0463 21.2484C78.2813 27.5771 77.8523 29.4796 82.1849 29.1012C83.7993 28.9602 86.0992 28.4818 89.337 27.8409C91.3284 27.469 91.1773 26.6487 90.4802 26.3918C90.19 26.2374 89.8711 26.1442 89.5434 26.1179C88.5532 26.0555 87.5595 26.0761 86.5727 26.1794C85.8218 26.236 85.0753 26.3409 84.3379 26.4932C83.9849 26.524 83.7072 26.5483 83.6661 26.0776C83.2533 21.352 83.0223 20.975 83.613 20.9234L83.7707 20.9096C85.6788 20.941 87.1916 21.008 88.3342 20.9082C90.0181 20.7611 90.8475 20.2535 90.9064 18.6608ZM86.2071 18.4784C86.2223 18.5522 86.2206 18.6285 86.2021 18.7016C86.1836 18.7746 86.1489 18.8426 86.1004 18.9003C86.052 18.958 85.9911 19.004 85.9224 19.0349C85.8536 19.0657 85.7788 19.0807 85.7035 19.0785L85.6246 19.0854C83.6777 19.0575 83.1761 19.2198 83.2002 18.5858C83.3821 15.6733 83.2744 14.8883 84.5175 14.5817C84.9083 14.5085 85.1767 14.4056 85.3732 14.3884C85.7674 14.354 85.8611 14.5438 85.9607 15.2097L86.2071 18.4784Z" fill="#1E4854"/>
<path d="M9.33006 24.1963C9.29218 25.9888 9.25343 29.9973 9.17339 30.8592C8.98703 31.8477 8.91474 31.9702 7.95574 32.054C7.22605 32.1569 6.60829 32.2108 6.10703 32.2546C5.06448 32.3457 4.40567 32.3641 3.75026 32.4213C2.78538 32.5056 2.57644 35.0138 4.20144 34.8718C5.24399 34.7808 7.95476 34.6625 10.0387 34.4805C10.852 34.4243 11.6607 34.3141 12.4594 34.1505C15.1152 33.3352 14.4287 28.6513 14.5289 18.2205C14.542 16.733 14.4383 15.2466 14.2189 13.7753C14.204 13.143 13.9413 12.5419 13.4874 12.1014C13.0336 11.6609 12.4249 11.4163 11.7924 11.4203C10.5773 11.2846 9.35146 11.2725 8.13386 11.3841C4.85325 11.6707 1.09659 12.7375 1.09124 14.916C1.07021 17.5693 1.30162 20.2186 1.78236 22.8281C2.18287 24.6985 3.0052 25.2491 4.94844 25.2347C6.4543 25.1199 7.93283 24.7695 9.33006 24.1963ZM6.10167 20.6284C5.83135 18.6281 5.72005 16.6095 5.76881 14.5916C5.72832 14.128 5.90444 13.9182 6.29039 13.8845C8.76822 13.7463 9.01743 13.491 9.13882 14.8806C9.36896 17.0297 9.45404 19.1918 9.39346 21.3523C9.4013 21.5162 9.35472 21.6781 9.26098 21.8128C9.16725 21.9475 9.03161 22.0475 8.87518 22.0971C8.37712 22.3098 7.85454 22.4598 7.31946 22.5436C6.47107 22.6177 6.29954 22.0114 6.10167 20.6284ZM18.3218 7.82292C19.7369 7.544 19.6187 7.08717 19.0727 4.8406C19.0397 4.40348 18.8424 3.99505 18.5206 3.69742C18.1988 3.39978 17.7762 3.23499 17.3379 3.23617C16.9771 3.1586 16.6064 3.13856 16.2395 3.17679C16.058 3.18631 15.8781 3.21514 15.7028 3.26279C14.5266 3.60266 14.9341 4.26306 15.0886 6.46675C15.1543 7.66683 16.8129 7.94998 18.0473 7.84216L18.3218 7.82292ZM20.1691 11.1617C19.8728 9.54776 18.5372 9.3929 17.1487 9.51418C15.7979 9.63218 15.4102 10.0941 15.4584 11.5281C15.4976 15.6137 15.8276 19.6913 16.446 23.73C16.7721 25.6852 17.8365 26.2917 19.7274 26.1266C20.048 26.1279 20.3651 26.0593 20.6565 25.9256C20.9479 25.7919 21.2067 25.5963 21.4149 25.3524C21.623 25.1085 21.7755 24.8222 21.8617 24.5134C21.9479 24.2046 21.9658 23.8807 21.914 23.5642C21.7436 22.0615 20.8529 14.0898 20.1686 11.1558L20.1691 11.1617ZM27.1953 17.7034C26.9741 17.331 26.8182 16.9236 26.7343 16.4987C25.1861 10.8005 25.1219 9.16987 22.6406 8.80682C22.3698 8.75819 22.0942 8.74246 21.8196 8.75997C20.5076 8.87458 21.2382 10.5608 22.3657 15.0117C23.0197 17.5986 23.5994 20.2311 24.3688 22.8092C24.6414 23.4914 25.1224 24.0703 25.7432 24.4631C26.3641 24.856 27.0931 25.0428 27.8264 24.997C28.1747 24.9668 28.5112 24.8563 28.8096 24.674C31.1074 23.3849 30.7851 18.7854 32.3218 11.4565C32.6032 10.2261 32.6004 9.29798 30.2721 8.90853C29.9779 8.83546 29.6738 8.80959 29.3715 8.83188C28.6772 8.89252 28.4082 9.38317 28.3518 10.5157C28.1011 12.9289 27.7152 15.3262 27.1958 17.6962L27.1953 17.7034ZM45.8328 13.8227C45.8626 11.4487 45.318 9.70713 45.3591 8.84749C45.3447 6.90426 42.995 6.21551 40.9064 6.39795C40.4916 6.43319 40.0813 6.50875 39.6812 6.62354C38.505 6.96341 37.3716 7.33038 36.1917 7.62788C35.5491 7.71501 34.9553 8.01874 34.5085 8.48891C34.0618 8.95907 33.7887 9.56755 33.7345 10.2139C33.3481 12.2401 33.176 14.3014 33.2212 16.3637C33.4523 22.5659 33.0317 24.4297 37.276 24.059C38.8587 23.9207 41.1119 23.4512 44.2822 22.8245C46.2339 22.4596 46.0855 21.6556 45.4031 21.4046C45.1191 21.251 44.8067 21.1572 44.4851 21.1291C43.5146 21.0678 42.5407 21.0878 41.5736 21.1889C40.838 21.2452 40.1069 21.3487 39.3846 21.4987C39.0316 21.5296 38.7668 21.5527 38.7263 21.0891C38.3218 16.4576 38.0951 16.0885 38.674 16.038L38.8282 16.0245C40.6971 16.0557 42.1813 16.1205 43.3004 16.0227C44.9626 15.8728 45.7751 15.3738 45.8332 13.8131L45.8328 13.8227ZM41.2285 13.6415C41.2433 13.7137 41.2417 13.7884 41.2236 13.8599C41.2055 13.9314 41.1715 13.9979 41.1241 14.0544C41.0766 14.1108 41.0171 14.1559 40.9498 14.1861C40.8825 14.2163 40.8093 14.2309 40.7356 14.2288L40.6579 14.2356C38.7501 14.2078 38.2589 14.3669 38.2815 13.7436C38.4603 10.8895 38.354 10.121 39.5727 9.82009C39.9552 9.74754 40.219 9.64507 40.412 9.62821C40.7979 9.5945 40.8924 9.78069 40.9874 10.434L41.2285 13.6415Z" fill="#1E4854"/>
<path d="M26.7739 28.8666C26.8953 28.7691 27.0456 28.7143 27.2013 28.7107L27.3449 28.6981C27.9605 28.674 27.9605 28.674 28.128 29.2475C28.5448 30.6528 29.1507 37.2503 29.282 38.3866C29.3893 38.9368 30.0074 38.9409 30.4451 38.9027C31.1511 38.841 31.9143 38.5372 31.9134 37.8627C32.2274 35.2733 32.1979 32.6538 31.8258 30.0722C31.7683 29.7535 31.9078 29.6536 32.1958 29.5988C32.3964 29.551 32.5993 29.5135 32.8038 29.4864C33.6216 29.415 33.4687 30.3117 33.9964 36.7334C34.0959 37.8724 34.0932 38.52 34.9237 38.5945C35.0502 38.6111 35.178 38.6142 35.3051 38.6038C35.8561 38.5706 36.374 38.3294 36.7541 37.9292C37.1342 37.5289 37.3482 36.9993 37.3529 36.4473C37.3787 35.3851 37.3766 34.3561 37.3423 33.2991C37.2052 29.3675 37.0904 28.0532 34.9571 27.8862C34.5656 27.8428 34.1708 27.8376 33.7783 27.8706C33.0768 27.9699 32.3815 28.1098 31.6961 28.2896L31.5785 28.2999C30.9901 28.3513 31.1948 27.2734 29.2816 27.2651C28.5375 27.2466 27.7931 27.272 27.0521 27.3412C26.3005 27.4024 25.5531 27.5072 24.8137 27.6553C23.1908 27.9441 23.5398 29.238 23.6046 30.9978C23.8099 37.7192 23.7744 38.046 24.2126 39.3024C24.3013 39.5133 24.4608 39.6865 24.6635 39.7924C24.8663 39.8983 25.0996 39.9301 25.3233 39.8824C25.7628 39.8473 26.1824 39.684 26.5301 39.4127C26.8777 39.1415 27.1381 38.7742 27.2791 38.3564C27.3904 37.9892 27.4462 37.6075 27.4446 37.2239C27.499 34.4227 27.2744 31.6232 26.7739 28.8666ZM48.3865 30.3638C48.4062 28.567 47.9959 27.2488 48.0282 26.601C48.0193 25.128 46.2367 24.6067 44.6588 24.7445C44.3452 24.7705 44.0348 24.827 43.7321 24.9132C42.8426 25.1676 41.9838 25.4489 41.0917 25.6738C40.6042 25.7387 40.1536 25.9682 39.8144 26.3243C39.4753 26.6804 39.268 27.1417 39.2269 27.6318C38.9345 29.1665 38.8046 30.7278 38.8394 32.2897C39.0122 36.9829 38.6956 38.3942 41.908 38.1136C43.1058 38.009 44.8106 37.6538 47.2114 37.1761C48.6883 36.9001 48.5759 36.2922 48.0589 36.1014C47.8437 35.9867 47.6072 35.9174 47.3641 35.8977C46.6327 35.8512 45.8987 35.8657 45.1697 35.9412C44.6128 35.9831 44.0592 36.0608 43.5123 36.1737C43.2499 36.1966 43.0416 36.2148 43.0108 35.8618C42.7047 32.3576 42.5332 32.0774 42.9709 32.0391L43.0886 32.0288C44.5027 32.0523 45.6263 32.1012 46.4723 32.0273C47.7282 31.9212 48.3426 31.5438 48.3865 30.3638ZM44.9075 30.2254C44.9185 30.28 44.9171 30.3364 44.9033 30.3903C44.8896 30.4443 44.8638 30.4944 44.828 30.5371C44.7922 30.5797 44.7473 30.6138 44.6966 30.6367C44.6458 30.6596 44.5906 30.6708 44.5349 30.6694L44.4725 30.6749C43.0289 30.6539 42.6565 30.7742 42.6745 30.3019C42.8095 28.1417 42.7291 27.5607 43.6506 27.3331C43.9399 27.2782 44.1396 27.2027 44.2855 27.1899C44.5773 27.1644 44.6513 27.305 44.7217 27.7992L44.9075 30.2254Z" fill="#1E4854"/>
<path d="M133.663 27.0609C133.586 27.1377 124.345 34.7743 121.214 37.1419C119.438 38.425 117.372 39.2497 115.201 39.5428C113.029 39.8359 110.819 39.5882 108.766 38.8218C107.826 38.498 106.928 38.0616 106.092 37.5223C96.2866 32.1894 102.656 14.7636 102.656 14.7636L105.786 5.82854C105.989 5.25842 106.404 4.78886 106.945 4.51838C107.487 4.24789 108.112 4.1975 108.689 4.37777C109.237 4.60636 109.693 5.00916 109.989 5.52374C110.242 6.07699 110.27 6.70725 110.065 7.2805L107.314 15.0695C107.244 15.3036 107.26 15.5547 107.358 15.7783C107.456 16.002 107.63 16.1837 107.849 16.2911C107.926 16.2911 108.078 16.3679 108.155 16.3679C108.351 16.3681 108.543 16.3101 108.706 16.2014C108.869 16.0927 108.996 15.9381 109.072 15.7571L111.821 7.9669C111.821 7.89011 111.821 7.89011 111.898 7.8145L113.807 2.54422C114.009 1.97436 114.425 1.50501 114.966 1.23455C115.507 0.964094 116.131 0.913524 116.709 1.09344C117.256 1.32203 117.713 1.72484 118.008 2.23941C118.263 2.81885 118.29 3.47304 118.085 4.07178L118.008 4.30098L114.19 15.3755C114.118 15.6186 114.141 15.8801 114.254 16.1069C114.367 16.3337 114.563 16.509 114.801 16.5971C114.877 16.5971 115.03 16.6739 115.107 16.6739C115.303 16.674 115.494 16.6161 115.657 16.5074C115.821 16.3987 115.948 16.2441 116.023 16.0631L119.995 4.75936L121.141 1.55183C121.345 0.98338 121.76 0.515537 122.3 0.246059C122.84 -0.0234178 123.464 -0.0736782 124.04 0.105781C124.588 0.334374 125.045 0.737175 125.34 1.25175C125.593 1.805 125.621 2.43526 125.417 3.00851L123.734 7.5853C123.658 7.7377 123.658 7.8145 123.582 7.9669C123.582 8.04369 123.582 8.1193 123.505 8.1193L120.068 17.5907C119.999 17.8247 120.014 18.0758 120.112 18.2995C120.21 18.5231 120.384 18.7048 120.604 18.8123C120.68 18.8123 120.833 18.8891 120.91 18.8891C121.106 18.8892 121.297 18.8312 121.461 18.7225C121.624 18.6138 121.751 18.4592 121.826 18.2783L125.416 8.3544C125.658 7.83953 126.074 7.42681 126.591 7.18904C127.108 6.95128 127.693 6.90375 128.241 7.05485C128.789 7.28344 129.246 7.68624 129.541 8.20082C129.794 8.75407 129.822 9.38433 129.618 9.95758L124.574 23.6242C123.734 23.9301 122.97 24.2349 122.588 24.3873C117.777 22.555 115.18 24.6933 113.041 26.3733C112.946 26.4485 112.867 26.5418 112.807 26.6478C112.748 26.7538 112.71 26.8704 112.696 26.9909C112.682 27.1115 112.692 27.2337 112.725 27.3505C112.758 27.4673 112.814 27.5764 112.889 27.6717C112.964 27.7669 113.058 27.8464 113.163 27.9057C113.269 27.9649 113.386 28.0026 113.507 28.0168C113.627 28.0309 113.749 28.0212 113.866 27.9881C113.983 27.9551 114.092 27.8993 114.187 27.8241C116.249 26.1441 118.159 24.5397 122.207 26.2197C122.43 26.2959 122.672 26.2959 122.894 26.2197C123.124 26.1429 128.394 24.0814 130.226 23.317C131.219 22.9354 133.052 22.4002 134.045 23.7754C134.239 24.0146 134.383 24.2904 134.469 24.5863C134.555 24.8822 134.582 25.1924 134.546 25.4985C134.51 25.8047 134.414 26.1006 134.262 26.3689C134.111 26.6372 133.907 26.8725 133.663 27.0609Z" fill="#FE906D"/>
<path d="M98.3173 11.8793L99.8495 14.4578C99.8973 14.546 99.9219 14.6449 99.9209 14.7452C99.9194 14.829 99.8943 14.9107 99.8486 14.981C99.8029 15.0513 99.7383 15.1073 99.6623 15.1427C99.6057 15.1782 99.5424 15.2016 99.4763 15.2115C99.4102 15.2213 99.3427 15.2172 99.2783 15.1996C99.2138 15.182 99.1537 15.1513 99.1017 15.1092C99.0497 15.0672 99.007 15.0149 98.9763 14.9555L97.4394 12.378C97.4039 12.3214 97.3805 12.258 97.3707 12.1919C97.3609 12.1258 97.3649 12.0583 97.3825 11.9939C97.4001 11.9294 97.4309 11.8693 97.4729 11.8173C97.5149 11.7653 97.5672 11.7226 97.6266 11.6919C97.6834 11.6556 97.7471 11.6315 97.8138 11.6213C97.8804 11.6111 97.9484 11.6149 98.0135 11.6326C98.0785 11.6502 98.1392 11.6813 98.1915 11.7238C98.2438 11.7663 98.2867 11.8192 98.3173 11.8793Z" fill="#FE906D" stroke="#FE906D" stroke-width="0.633698"/>
<path d="M97.6975 17.8025C97.7959 17.8413 97.8791 17.9108 97.9347 18.0007C97.9904 18.0906 98.0154 18.1961 98.0062 18.3014C98.0104 18.359 97.9942 18.4162 97.9603 18.4629C97.9089 18.5892 97.811 18.6911 97.6868 18.7474C97.5625 18.8037 97.4214 18.8102 97.2925 18.7656L93.3187 17.2423C93.1939 17.1908 93.0933 17.0938 93.0373 16.971C92.9812 16.8482 92.974 16.7086 93.0169 16.5806C93.0682 16.4556 93.1652 16.3548 93.2881 16.2985C93.411 16.2423 93.5507 16.2348 93.6789 16.2777L97.6975 17.8025Z" fill="#FE906D" stroke="#FE906D" stroke-width="0.633698"/>
<path d="M97.1769 22.1807C97.2074 22.2297 97.2196 22.2878 97.2113 22.345C97.2128 22.4457 97.1798 22.5439 97.1176 22.6233C97.0555 22.7026 96.968 22.7582 96.8698 22.7809L94.029 23.6998C93.9031 23.7327 93.7696 23.7199 93.6524 23.6636C93.5351 23.6073 93.4415 23.5113 93.3885 23.3925C93.3556 23.2667 93.3684 23.1332 93.4247 23.016C93.481 22.8987 93.5771 22.8052 93.6958 22.7522L96.5378 21.8344C96.6683 21.8005 96.8069 21.8174 96.9256 21.8816C97.0442 21.9459 97.134 22.0528 97.1769 22.1807Z" fill="#FE906D" stroke="#FE906D" stroke-width="0.633698"/>
</svg>
