<svg width="52" height="51" viewBox="0 0 52 51" fill="none" xmlns="http://www.w3.org/2000/svg">
<path d="M49.8238 0.352961C45.6914 0.351652 41.5577 0.350342 37.4253 0.352961C36.6552 0.352961 36.2871 0.724942 36.2858 1.49641C36.2832 6.60853 36.2845 11.7206 36.2858 16.8328C36.2858 17.6317 36.6512 17.9893 37.462 17.9906C39.0626 17.9932 40.6644 18.0011 42.265 17.9841C42.5872 17.9801 42.6697 18.0692 42.6645 18.3862C42.6435 19.4471 42.6461 20.5094 42.6645 21.5703C42.6684 21.8519 42.5833 21.9174 42.3108 21.9174C37.3127 21.9095 32.3132 21.9095 27.315 21.9174C27.0334 21.9174 26.9653 21.8349 26.9692 21.5637C26.985 20.5028 26.9902 19.4406 26.9666 18.3796C26.9601 18.0496 27.0622 17.9815 27.3727 17.9841C28.9575 17.9998 30.5411 17.9919 32.1259 17.9906C33.0022 17.9906 33.3453 17.6501 33.3453 16.7764C33.3453 11.6971 33.3453 6.6177 33.3453 1.53701C33.3453 0.702676 32.9891 0.350342 32.1495 0.350342C28.0498 0.350342 23.9489 0.350342 19.8492 0.350342C18.9848 0.350342 18.6442 0.697437 18.6442 1.57631C18.6442 6.63996 18.6442 11.7023 18.6442 16.766C18.6442 17.6422 18.9861 17.988 19.8531 17.9893C21.421 17.9906 22.9901 18.0063 24.5579 17.9788C24.9626 17.9723 25.0308 18.1046 25.0229 18.4661C24.9993 19.4615 24.9915 20.4596 25.0255 21.455C25.0399 21.8624 24.8958 21.9187 24.537 21.9174C19.637 21.9069 14.7358 21.9056 9.83586 21.9187C9.45078 21.9187 9.30277 21.8637 9.3198 21.4314C9.35909 20.4687 9.35254 19.5034 9.32242 18.5407C9.30932 18.1216 9.38791 17.9657 9.85943 17.9762C11.4102 18.0116 12.9623 17.9919 14.5144 17.9893C15.3475 17.988 15.7011 17.633 15.7011 16.7935C15.7024 11.7141 15.7011 6.63472 15.7011 1.55404C15.7011 0.690888 15.3514 0.350342 14.4738 0.350342C10.3899 0.351652 6.30597 0.351652 2.22204 0.351652C1.34448 0.351652 1 0.692198 1 1.5619C1 6.64127 1 11.7206 1 16.8013C1 17.6344 1.35757 17.9906 2.19191 17.9919C3.77676 17.9945 5.36161 18.0024 6.94515 17.9841C7.27783 17.9801 7.38524 18.0469 7.37869 18.4019C7.35511 19.7903 7.36952 21.1787 7.36952 22.567C7.36952 23.5664 7.67994 23.8716 8.69372 23.8716C13.9866 23.8716 19.2795 23.8755 24.571 23.8624C24.9391 23.8624 25.0308 23.9502 25.0216 24.3156C24.9941 25.3281 24.998 26.3405 25.0203 27.353C25.0281 27.6936 24.9679 27.8206 24.5854 27.835C22.8539 27.9031 21.1394 28.1271 19.4628 28.579C17.912 28.9968 16.4136 29.5325 15.1523 30.5738C14.2053 31.3544 13.7168 32.3211 13.7286 33.5916C13.7652 37.3153 13.7495 41.039 13.7364 44.7628C13.7338 45.7189 14.0743 46.5074 14.7371 47.1754C15.7771 48.2259 17.079 48.8271 18.4595 49.2436C23.0163 50.6189 27.6215 50.6752 32.2425 49.6182C33.8378 49.2541 35.3689 48.6935 36.6853 47.6718C37.7253 46.865 38.2767 45.8525 38.2597 44.4785C38.2151 40.7876 38.2348 37.0966 38.2505 33.4043C38.2544 32.4481 37.9204 31.6557 37.2708 30.9798C36.4508 30.1245 35.4318 29.5862 34.346 29.1618C32.101 28.2869 29.7512 27.9464 27.3622 27.8258C27.0491 27.8101 26.9575 27.7276 26.964 27.4106C26.985 26.3825 26.9954 25.3517 26.9601 24.3248C26.9457 23.9161 27.0924 23.8611 27.4499 23.8624C30.1127 23.8768 32.7756 23.8703 35.4384 23.8703C38.1012 23.8703 40.764 23.8703 43.4268 23.8703C44.2598 23.8703 44.6135 23.514 44.6148 22.6744C44.6174 21.2533 44.6279 19.8322 44.6069 18.4111C44.6017 18.0731 44.6789 17.9762 45.0287 17.9815C46.6135 18.0024 48.197 17.9919 49.7819 17.9906C50.6267 17.9906 50.9843 17.6409 50.9843 16.8092C50.9856 11.7128 50.9856 6.6177 50.9843 1.5213C50.9843 0.713154 50.6241 0.351652 49.8212 0.351652L49.8238 0.352961ZM3.3537 16.0403C3.03542 16.0403 2.95028 15.9604 2.9529 15.6409C2.96731 13.4849 2.96076 11.329 2.96076 9.1731C2.96076 7.01718 2.96731 4.86127 2.9529 2.70535C2.95028 2.38707 3.03149 2.30324 3.35239 2.30455C6.6845 2.31634 10.0166 2.31634 13.3487 2.30455C13.667 2.30455 13.7495 2.38445 13.7495 2.70404C13.7377 7.01587 13.739 11.3277 13.7495 15.6382C13.7495 15.9565 13.6709 16.0403 13.35 16.039C10.0179 16.0272 6.68581 16.0272 3.3537 16.039V16.0403ZM36.2517 45.1046C36.2256 45.5578 35.8287 45.8604 35.4711 46.1276C34.3237 46.9855 32.9969 47.4413 31.6256 47.7452C27.5416 48.6515 23.4669 48.6254 19.4235 47.4871C18.3692 47.1911 17.3606 46.7759 16.4791 46.104C15.9591 45.7084 15.6422 45.233 15.6893 44.5244C15.7417 43.7438 15.7011 42.9579 15.7011 42.1196C20.7098 45.2815 31.5313 45.1505 36.2688 42.1235C36.2688 43.1386 36.3081 44.1249 36.2517 45.1046ZM36.2727 39.115C36.257 39.6114 35.8824 39.9283 35.5222 40.2126C34.7429 40.8255 33.843 41.2093 32.9078 41.5066C30.1494 42.3829 27.315 42.6042 24.4427 42.4444C22.2501 42.3226 20.0994 41.9782 18.0587 41.1202C17.3803 40.8347 16.7345 40.4902 16.1936 39.9768C15.8583 39.6585 15.6788 39.2892 15.6932 38.8071C15.7181 37.9754 15.6998 37.1424 15.6998 36.2517C18.9022 38.1025 22.3981 38.5661 25.9738 38.5609C29.543 38.557 33.0349 38.113 36.2806 36.2517C36.2806 37.2315 36.3015 38.1745 36.2714 39.1163L36.2727 39.115ZM33.936 31.1265C34.6302 31.416 35.293 31.767 35.8313 32.3093C36.4325 32.9157 36.4377 33.4436 35.8365 34.0461C35.1646 34.7193 34.3224 35.1162 33.4462 35.4331C30.5437 36.4836 27.5338 36.7206 24.4793 36.5648C22.4518 36.4613 20.4596 36.1483 18.5473 35.4344C17.7208 35.1253 16.9218 34.756 16.2604 34.1535C15.5151 33.4737 15.5033 32.883 16.2565 32.215C17.3488 31.2457 18.7018 30.8082 20.0758 30.4467C22.0117 29.9372 23.9921 29.7617 26.1912 29.746C28.7113 29.7866 31.3924 30.0643 33.936 31.1252V31.1265ZM20.9953 16.0403C20.6757 16.0403 20.5945 15.9591 20.5958 15.6395C20.6063 11.3277 20.6063 7.01587 20.5958 2.70535C20.5958 2.38576 20.677 2.30455 20.9966 2.30586C24.3287 2.31765 27.6608 2.31765 30.9929 2.30586C31.3125 2.30586 31.395 2.38707 31.3924 2.70666C31.378 4.87829 31.3846 7.05124 31.3846 9.22287C31.3846 11.3945 31.378 13.502 31.3924 15.6409C31.395 15.9604 31.3112 16.0417 30.9916 16.0403C27.6595 16.0286 24.3274 16.0286 20.9953 16.0403ZM48.6345 16.0403C45.3024 16.0286 41.9703 16.0286 38.6382 16.0403C38.3186 16.0403 38.2374 15.9591 38.2387 15.6395C38.2492 11.3277 38.2492 7.01587 38.2387 2.70535C38.2387 2.38576 38.3199 2.30455 38.6382 2.30455C41.9703 2.31634 45.3024 2.31634 48.6345 2.30455C48.9541 2.30455 49.0366 2.38576 49.0353 2.70535C49.0209 4.87698 49.0275 7.04993 49.0275 9.22156C49.0275 11.3932 49.0209 13.5007 49.0353 15.6395C49.0379 15.9591 48.9541 16.0403 48.6345 16.0403Z" fill="#1E4854" stroke="#1E4854" stroke-width="0.6"/>
<path d="M8.31819 6.23259C7.55196 6.23259 6.78574 6.23783 6.01951 6.23128C5.35937 6.22604 4.91797 5.82263 4.9219 5.24501C4.92583 4.6687 5.36592 4.27576 6.03391 4.27445C7.5834 4.27052 9.13157 4.26921 10.6811 4.27445C11.3412 4.27707 11.7839 4.6818 11.7787 5.25942C11.7747 5.83572 11.332 6.22735 10.6666 6.23259C9.8847 6.23783 9.10145 6.23259 8.31819 6.23259Z" fill="#1E4854" stroke="#1E4854" stroke-width="0.6"/>
<path d="M8.32307 10.1528C7.55685 10.1528 6.79062 10.158 6.02439 10.1514C5.36294 10.1462 4.92154 9.74672 4.92285 9.1691C4.92416 8.59148 5.36556 8.19593 6.03094 8.19462C7.58042 8.19069 9.1286 8.18938 10.6781 8.19462C11.3395 8.19724 11.7822 8.59803 11.7796 9.17565C11.777 9.75196 11.3356 10.1475 10.6715 10.1528C9.88959 10.158 9.10633 10.1541 8.32307 10.1541V10.1528Z" fill="#1E4854" stroke="#1E4854" stroke-width="0.6"/>
<path d="M8.3612 12.1121C9.12742 12.1121 9.89365 12.1082 10.6599 12.1121C11.3305 12.116 11.7706 12.4998 11.7798 13.0761C11.7889 13.6524 11.3449 14.0663 10.6887 14.0689C9.12349 14.0742 7.55829 14.0755 5.99309 14.0689C5.36308 14.0663 4.93216 13.6642 4.92299 13.1049C4.91382 12.5273 5.35653 12.1186 6.01405 12.1134C6.79599 12.1069 7.57925 12.1121 8.3625 12.1121H8.3612Z" fill="#1E4854" stroke="#1E4854" stroke-width="0.6"/>
<path d="M25.9935 4.27176C26.7768 4.27176 27.5587 4.26652 28.342 4.27307C28.9759 4.27831 29.4081 4.66732 29.4225 5.2266C29.4369 5.80291 28.9929 6.22728 28.342 6.2299C26.7768 6.23645 25.2116 6.23645 23.6464 6.2299C22.9928 6.22728 22.5514 5.80553 22.5658 5.2266C22.5802 4.66732 23.0111 4.27962 23.6464 4.27307C24.4283 4.26652 25.2116 4.27176 25.9948 4.27176H25.9935Z" fill="#1E4854" stroke="#1E4854" stroke-width="0.6"/>
<path d="M25.9735 10.1528C25.2073 10.1528 24.4411 10.1567 23.6748 10.1514C23.0095 10.1462 22.5681 9.75327 22.5654 9.17696C22.5628 8.59934 23.0042 8.19724 23.6657 8.19462C25.2152 8.18938 26.7633 8.19069 28.3128 8.19462C28.9782 8.19593 29.4196 8.59148 29.4222 9.16779C29.4248 9.7441 28.9821 10.1462 28.322 10.1514C27.54 10.158 26.7568 10.1528 25.9735 10.1528Z" fill="#1E4854" stroke="#1E4854" stroke-width="0.6"/>
<path d="M25.9939 12.1123C26.7772 12.1123 27.5591 12.1071 28.3424 12.1136C28.9763 12.1189 29.4085 12.5079 29.4216 13.0672C29.436 13.6435 28.9907 14.0665 28.3397 14.0692C26.7745 14.0757 25.2093 14.0757 23.6441 14.0692C22.9905 14.0665 22.5491 13.6448 22.5649 13.0659C22.5793 12.5066 23.0115 12.1189 23.6454 12.1136C24.4274 12.1071 25.2106 12.1123 25.9939 12.1123Z" fill="#1E4854" stroke="#1E4854" stroke-width="0.6"/>
<path d="M43.5943 6.23259C42.8281 6.23259 42.0618 6.23783 41.2956 6.23128C40.6394 6.22473 40.198 5.81346 40.2072 5.23584C40.2163 4.67525 40.6486 4.27707 41.2799 4.27445C42.8451 4.2679 44.4103 4.26921 45.9755 4.27445C46.6304 4.27707 47.0744 4.69097 47.0639 5.26859C47.0535 5.82787 46.6212 6.22473 45.9912 6.23128C45.1922 6.23914 44.3933 6.23259 43.5943 6.23259Z" fill="#1E4854" stroke="#1E4854" stroke-width="0.6"/>
<path d="M43.5844 10.1527C42.8182 10.1527 42.052 10.1592 41.2857 10.1513C40.6321 10.1448 40.1907 9.72566 40.2065 9.14673C40.2209 8.58745 40.6531 8.19713 41.2884 8.19582C42.8536 8.19058 44.4188 8.19058 45.984 8.19582C46.6179 8.19844 47.0501 8.59138 47.0632 9.15066C47.0776 9.72697 46.6323 10.1461 45.9813 10.1527C45.1824 10.1605 44.3834 10.154 43.5844 10.154V10.1527Z" fill="#1E4854" stroke="#1E4854" stroke-width="0.6"/>
<path d="M43.6809 12.1121C44.4471 12.1121 45.2133 12.1069 45.9796 12.1134C46.6318 12.1186 47.0772 12.5352 47.0628 13.1128C47.0497 13.6721 46.6174 14.0676 45.9861 14.0702C44.4209 14.0768 42.8557 14.0768 41.2905 14.0702C40.6356 14.0676 40.1942 13.6498 40.2073 13.0709C40.2191 12.5116 40.6513 12.1199 41.284 12.1147C42.0829 12.1082 42.8819 12.1134 43.6809 12.1134V12.1121Z" fill="#1E4854" stroke="#1E4854" stroke-width="0.6"/>
</svg>
