<svg width="50" height="51" viewBox="0 0 50 51" fill="none" xmlns="http://www.w3.org/2000/svg">
<g clip-path="url(#clip0_235_4297)">
<path d="M48.4886 23.8878C47.9848 23.8787 47.4797 23.8708 46.9759 23.893C46.7227 23.9035 46.6405 23.8173 46.617 23.5759C46.5556 22.9624 46.5034 22.3438 46.3899 21.7382C44.962 14.146 40.7032 8.74254 33.7297 5.4796C31.597 4.48114 29.326 3.92775 26.9728 3.75677C26.5669 3.72675 26.4102 3.60667 26.4546 3.17988C26.5003 2.74526 26.4716 2.3028 26.4625 1.86296C26.4455 1.00024 25.8151 0.35287 25.0007 0.351564C24.1836 0.350259 23.5506 0.995016 23.5362 1.85513C23.5284 2.34326 23.5141 2.8327 23.5428 3.31954C23.5597 3.61189 23.4697 3.71239 23.1786 3.7385C22.5482 3.79462 21.9139 3.85466 21.2926 3.97082C14.5096 5.23945 9.41554 8.90569 5.99206 14.873C4.4872 17.4964 3.64144 20.3521 3.40259 23.3736C3.37127 23.7664 3.27077 23.9622 2.83223 23.8956C2.5464 23.8513 2.2449 23.9126 1.95515 23.8826C1.04675 23.7886 0.388943 24.1254 0 24.962V25.7438C0.272782 26.5934 0.742645 26.9367 1.64974 26.9458C2.00736 26.9498 2.36628 26.9628 2.7239 26.9419C3.1272 26.9184 3.25903 27.109 3.29035 27.4875C3.5057 30.0274 4.17134 32.4472 5.28466 34.7403C6.5559 37.3598 8.24219 39.6648 10.4349 41.6017C11.8588 42.8598 13.3885 43.9484 15.0826 44.8046C17.5481 46.0497 20.1467 46.8498 22.9085 47.0677C23.2791 47.0965 23.4253 47.2635 23.4096 47.6277C23.3927 47.9853 23.4031 48.3442 23.407 48.7018C23.4175 49.6298 23.7359 50.0657 24.6091 50.3542H25.3909C26.2223 49.9639 26.5603 49.3074 26.4703 48.4003C26.4377 48.0779 26.4912 47.7477 26.4585 47.4254C26.4233 47.0847 26.5538 46.9764 26.8788 46.9607C27.8381 46.9124 28.7883 46.7675 29.7189 46.5391C37.1349 44.721 42.3021 40.2717 45.2218 33.2224C46.0036 31.3365 46.446 29.3565 46.5935 27.3191C46.6209 26.9484 46.707 26.7683 47.1286 26.8088C47.5802 26.8532 48.0383 26.8258 48.4938 26.8166C49.3565 26.7997 50 26.1693 50 25.3509C50 24.5339 49.3539 23.9048 48.4899 23.8904L48.4886 23.8878ZM26.4638 44.0619C26.4638 43.5111 26.4664 42.963 26.4638 42.4135C26.4572 41.4803 25.836 40.8042 24.9928 40.8081C24.1484 40.8133 23.5402 41.4868 23.5349 42.4239C23.5323 42.8638 23.5258 43.3023 23.5375 43.7421C23.5441 43.9745 23.5167 44.0671 23.2256 44.0384C19.3793 43.6599 15.9597 42.2464 13.0048 39.7679C9.26153 36.6289 7.06492 32.6116 6.37579 27.7733C5.25725 19.9227 9.64917 11.8293 16.8537 8.43583C18.9616 7.44259 21.1634 6.82393 23.5336 6.63468C23.5336 7.3708 23.5323 8.1004 23.5336 8.82999C23.5362 9.78016 24.1249 10.4419 24.9759 10.4562C25.8425 10.4706 26.4585 9.79582 26.4625 8.82216C26.4651 8.10823 26.4625 7.39299 26.4625 6.67775C34.5337 7.08236 43.0473 13.8027 43.7234 24.128C44.4138 34.6908 36.3766 43.301 26.4625 44.0606L26.4638 44.0619Z" fill="#1E4854"/>
<path d="M40.8886 24.338C39.975 22.9963 38.8852 21.8164 37.6335 20.7893C33.7937 17.6373 29.33 16.3451 24.7031 16.3712C22.7597 16.43 21.1139 16.6205 19.5085 17.063C15.2015 18.2468 11.6997 20.5922 9.13892 24.2897C8.64165 25.0076 8.63512 25.6798 9.13631 26.4028C10.8683 28.9062 13.1106 30.8261 15.824 32.1678C20.5514 34.5041 25.5045 34.9321 30.5791 33.5996C34.8835 32.4693 38.3462 30.0599 40.8834 26.3689C41.3546 25.6837 41.3585 25.0259 40.8886 24.3367V24.338ZM17.0431 29.5157C15.0931 28.4833 13.4982 27.2029 12.1735 25.5871C12.0482 25.4331 11.9816 25.3274 12.1343 25.1355C13.4695 23.4623 15.0944 22.1506 17.0848 21.0973C15.7066 23.9178 15.6857 26.6612 17.0431 29.5157ZM24.9825 31.3938C21.6673 31.386 18.946 28.6451 18.9551 25.3221C18.9643 22.0305 21.6986 19.3053 24.989 19.3079C28.3146 19.3105 31.0437 22.0357 31.0424 25.3535C31.0411 28.6686 28.2989 31.4016 24.9825 31.3938ZM37.7706 25.6824C36.4458 27.2969 34.8561 28.5759 32.9062 29.6057C34.291 26.767 34.3066 24.0339 32.9623 21.2017C33.1607 21.3048 33.2808 21.3635 33.3969 21.4288C35.0793 22.3594 36.5254 23.5732 37.7693 25.0363C37.9781 25.2817 37.9742 25.4344 37.7693 25.6837L37.7706 25.6824Z" fill="#1E4854"/>
<path d="M25.0202 21.2488C22.761 21.2397 20.9076 23.0682 20.8985 25.3157C20.888 27.5998 22.727 29.4532 25.002 29.4518C27.2573 29.4505 29.0976 27.6129 29.1015 25.3588C29.1054 23.1009 27.2756 21.2579 25.0202 21.2488ZM24.9315 26.5204C24.288 26.4826 23.7881 25.9148 23.8299 25.2701C23.8704 24.6488 24.4198 24.1567 25.0437 24.1802C25.6885 24.205 26.2027 24.7637 26.1701 25.4071C26.1375 26.0519 25.5749 26.5583 24.9315 26.5217V26.5204Z" fill="#1E4854"/>
</g>
<defs>
<clipPath id="clip0_235_4297">
<rect width="49.9987" height="50" fill="white" transform="translate(0 0.351562)"/>
</clipPath>
</defs>
</svg>
