<svg width="52" height="51" viewBox="0 0 52 51" fill="none" xmlns="http://www.w3.org/2000/svg">
<path d="M40.9955 21.5154C40.9421 23.2008 39.4313 24.6399 37.7459 24.6125C37.1841 24.6034 36.7748 24.2332 36.7396 23.7027C36.7057 23.2021 37.0524 22.7824 37.5843 22.6781C38.7131 22.4578 38.8721 22.3027 39.0637 21.2299C39.1641 20.6694 39.5943 20.3044 40.1052 20.3474C40.6814 20.3957 41.0177 20.8362 40.9968 21.5154H40.9955Z" fill="#1E4854" stroke="#1E4854" stroke-width="0.6"/>
<path d="M12.6963 40.0888C12.6989 39.5348 13.133 39.1164 13.6909 39.1294C14.2123 39.1412 14.6411 39.5805 14.6385 40.0993C14.6359 40.6102 14.1927 41.0599 13.6804 41.0717C13.1447 41.0834 12.6937 40.6337 12.6963 40.0888Z" fill="#1E4854" stroke="#1E4854" stroke-width="0.6"/>
<path d="M50.7993 30.2252C50.0693 28.489 49.2403 26.7944 48.4464 25.0855C47.6343 23.3401 47.1312 21.5334 47.152 19.5834C47.1612 18.7935 47.0843 17.9957 46.9865 17.2058C46.4716 13.0711 44.8057 9.45122 41.9524 6.43751C38.5385 2.8307 34.379 0.687731 29.3474 0.411387C26.932 0.27843 24.5414 0.361854 22.2237 1.14917C21.9683 1.23521 21.718 1.24694 21.4599 1.16221C20.1759 0.737265 18.875 0.415298 17.5076 0.389228C16.1755 0.363158 14.8289 0.265394 13.5267 0.549559C7.18645 1.93649 3.1182 5.77011 1.32327 12.0152C1.11992 12.723 1.13426 13.4543 1 14.1686V17.2892C1.1499 17.3453 1.08994 17.4795 1.10428 17.5812C1.81209 22.5528 4.32656 26.3304 8.59033 28.97C9.16779 29.3271 9.97075 29.404 10.3018 30.048C10.616 30.658 10.7489 31.3632 10.9536 32.028C11.3381 33.2833 11.6588 34.5555 11.943 35.8382C12.1176 36.6281 12.832 36.9735 13.4433 36.589C13.8448 36.3361 13.9712 35.9346 13.8383 35.3402C13.5111 33.8855 13.1448 32.4399 12.6834 31.0217C12.5439 30.5928 12.6834 30.6059 13.0171 30.6815C15.7244 31.298 18.4005 31.1481 21.0388 30.3087C21.3243 30.2174 21.5042 30.2591 21.7349 30.4351C23.1114 31.4857 24.6743 31.9941 26.4067 31.9498C27.3843 31.925 27.7962 31.1938 27.2996 30.3504C26.8382 29.5657 26.584 28.7288 26.5006 27.8242C26.4627 27.4018 26.5722 27.1138 26.8864 26.8048C30.5675 23.185 32.1487 18.7804 31.4839 13.6746C30.8934 9.13577 28.5692 5.58893 24.806 2.98451C24.7017 2.91282 24.5088 2.90109 24.5362 2.69905C25.3052 2.53089 26.0795 2.4227 26.8564 2.39663C33.0494 2.18546 38.047 4.53699 41.7673 9.49293C44.0458 12.5275 45.0404 16.0092 45.0638 19.7841C45.0769 21.845 45.5552 23.7963 46.4221 25.6617C47.2342 27.4097 48.028 29.1655 48.844 30.9109C48.9587 31.1573 48.9366 31.2485 48.6745 31.358C47.5379 31.8286 46.4195 32.3448 45.2815 32.8101C44.6897 33.0513 44.4355 33.4397 44.4447 34.0784C44.4668 35.5566 44.459 37.0361 44.4499 38.5143C44.4316 41.3116 42.5559 43.1808 39.7651 43.1912C38.6271 43.1952 37.4904 43.1834 36.3525 43.1952C35.5743 43.2043 35.2354 43.5627 35.2328 44.3449C35.2288 45.5636 35.2236 46.7824 35.238 48.0012C35.2419 48.2984 35.191 48.4118 34.8521 48.4118C28.3685 48.4001 21.8835 48.4001 15.3999 48.4118C15.0583 48.4118 15.0127 48.2945 15.014 47.9999C15.0153 46.8306 15.0075 45.6601 14.9723 44.4908C14.9515 43.8208 14.4692 43.4311 13.8461 43.5197C13.3299 43.5927 13.0275 44.0151 13.0327 44.6694C13.0431 46.1476 13.0783 47.6271 13.0614 49.1053C13.0549 49.6945 13.2439 50.1064 13.777 50.354H36.5011C37.1033 50.1481 37.3001 49.9004 37.3106 49.2513C37.3288 48.1954 37.3145 47.1383 37.3158 46.0824C37.3158 45.3199 37.3158 45.3251 38.0588 45.316C38.9021 45.3068 39.7442 45.3277 40.5889 45.2325C42.9117 44.9705 44.6141 43.8208 45.7625 41.7926C46.396 40.6742 46.5303 39.4567 46.5733 38.2197C46.6098 37.1808 46.5915 36.1393 46.5759 35.0991C46.5694 34.7054 46.7089 34.4799 47.0777 34.3157C47.9824 33.9116 48.9027 33.5427 49.8021 33.1256C51.013 32.5637 51.2581 31.3241 50.7967 30.2279L50.7993 30.2252ZM29.3996 13.101C30.3707 17.9553 28.9394 22.1552 25.3417 25.5626C24.776 26.0983 24.527 26.6471 24.5362 27.3836C24.5466 28.1983 24.6626 28.9947 24.9142 29.8368C23.9809 29.6191 23.204 29.2124 22.5692 28.5841C22.0725 28.0927 21.5915 28.0314 20.9437 28.2726C12.9649 31.2498 4.14537 25.9354 3.06476 17.5134C2.84707 15.8202 2.93701 14.1439 3.35935 12.4819C3.51577 12.5184 3.52229 12.6644 3.57573 12.7687C4.17274 13.947 4.89489 15.0407 5.77215 16.0287C5.92335 16.1982 5.98592 16.3559 5.95725 16.5918C5.56359 19.7568 6.64941 22.339 9.21732 24.1887C11.8569 26.0905 14.7338 26.2756 17.6927 24.92C18.0303 24.7648 18.3445 24.6997 18.7134 24.7283C22.2472 25.0112 25.6937 22.7848 26.9203 19.4426C28.143 16.1109 26.9881 12.3841 24.0682 10.2685C23.8388 10.103 23.6667 9.92179 23.5507 9.65327C22.1312 6.37364 18.7147 4.43271 15.0597 4.81594C11.5454 5.18484 8.53559 7.88832 7.99202 11.3948C7.82517 12.4728 7.22295 13.1988 6.72501 14.1113C5.72652 12.8012 5.00829 11.4143 4.50383 9.91006C4.43475 9.7041 4.46082 9.54768 4.5651 9.3678C6.87361 5.3582 10.2927 2.94541 14.9084 2.46702C21.8822 1.74488 28.0257 6.23416 29.3996 13.101ZM21.8092 15.0693C21.0701 13.2158 19.8878 11.7871 18.106 10.7482C19.2556 10.5462 20.2607 10.6791 21.2709 10.9659C21.9448 11.1575 22.2407 11.5368 22.2615 12.2355C22.2902 13.1884 22.2185 14.1139 21.8105 15.0693H21.8092ZM23.1818 16.6596C23.8675 15.6429 24.1256 14.4463 24.2311 13.1128C25.4369 14.8464 25.7784 16.6296 25.154 18.5315C24.4306 20.7357 22.852 22.0535 20.5253 22.6831C21.25 21.6925 21.8353 20.7227 21.9969 19.6121C22.1573 18.5119 22.564 17.5747 23.1805 16.6596H23.1818ZM15.7036 18.8717C15.0466 18.8782 14.2958 18.7674 13.5476 18.6097C13.3103 18.5588 13.2087 18.448 13.1422 18.216C12.5165 16.0261 13.4642 13.2796 15.306 11.967C15.4481 11.8653 15.5654 11.8353 15.7479 11.8797C18.033 12.431 19.9348 14.5649 20.2424 16.9125C20.2776 17.1797 20.2059 17.3231 20.0117 17.4834C18.8868 18.4115 17.3734 18.9212 15.7049 18.873L15.7036 18.8717ZM19.8957 19.8715C19.4277 21.0329 18.7564 21.8606 17.8857 22.5398C17.767 22.6323 17.6615 22.6154 17.5272 22.5789C16.4075 22.2751 15.4494 21.7068 14.5448 20.7644C16.4349 20.9338 18.1711 20.7983 19.8957 19.8728V19.8715ZM15.2526 9.68585C15.1496 9.7406 15.0479 9.77319 14.928 9.75885C13.3038 9.55029 11.7735 9.89181 10.2979 10.5827C10.5104 9.20877 12.4409 7.4373 14.301 6.96022C16.749 6.33323 18.8711 6.93806 20.6413 8.75906C18.7395 8.51009 16.9432 8.77991 15.2539 9.68585H15.2526ZM12.6938 11.8419C11.3746 13.5964 10.8376 15.5125 11.0657 17.7037C10.002 17.2071 9.11304 16.5553 8.28271 15.815C8.17842 15.7211 8.2058 15.6207 8.23839 15.506C8.70113 13.8936 10.8871 12.0739 12.6925 11.8406L12.6938 11.8419ZM10.2249 19.4661C11.2599 19.8532 12.0329 20.4359 12.5973 21.42C13.1591 22.3977 14.0846 23.0755 15.0688 23.6595C12.1593 24.4598 7.94249 22.047 7.85515 18.0153C8.62292 18.5732 9.36462 19.1441 10.2249 19.4661Z" fill="#1E4854" stroke="#1E4854" stroke-width="0.6"/>
</svg>
