<svg width="60" height="60" viewBox="0 0 60 60" fill="none" xmlns="http://www.w3.org/2000/svg">
<path d="M29 54C42.8071 54 54 42.8071 54 29C54 15.1929 42.8071 4 29 4C15.1929 4 4 15.1929 4 29C4 42.8071 15.1929 54 29 54Z" stroke="black" stroke-width="1.55" stroke-linecap="round" stroke-linejoin="round"/>
<path d="M34.6 41H22.2418C21.4341 41 21.0302 41 20.8432 40.8403C20.6809 40.7017 20.5948 40.4938 20.6115 40.281C20.6308 40.0358 20.9164 39.7503 21.4876 39.1791L32.8248 27.8418C33.3529 27.3138 33.6169 27.0498 33.9213 26.9509C34.1891 26.8639 34.4776 26.8639 34.7454 26.9509C35.0498 27.0498 35.3138 27.3138 35.8418 27.8418L41 33V34.6M34.6 41C36.8402 41 37.9603 41 38.816 40.564C39.5686 40.1805 40.1805 39.5686 40.564 38.816C41 37.9603 41 36.8402 41 34.6M34.6 41H23.4C21.1598 41 20.0397 41 19.184 40.564C18.4314 40.1805 17.8195 39.5686 17.436 38.816C17 37.9603 17 36.8402 17 34.6V23.4C17 21.1598 17 20.0397 17.436 19.184C17.8195 18.4314 18.4314 17.8195 19.184 17.436C20.0397 17 21.1598 17 23.4 17H34.6C36.8402 17 37.9603 17 38.816 17.436C39.5686 17.8195 40.1805 18.4314 40.564 19.184C41 20.0397 41 21.1598 41 23.4V34.6M27 24.3333C27 25.8061 25.8061 27 24.3333 27C22.8606 27 21.6667 25.8061 21.6667 24.3333C21.6667 22.8606 22.8606 21.6667 24.3333 21.6667C25.8061 21.6667 27 22.8606 27 24.3333Z" stroke="black" stroke-width="1.55" stroke-linecap="round" stroke-linejoin="round"/>
</svg>
