<svg width="59" height="51" viewBox="0 0 59 51" fill="none" xmlns="http://www.w3.org/2000/svg">
<g clip-path="url(#clip0_235_4697)">
<path d="M51.6963 0.351318C36.6907 0.351318 21.6851 0.351318 6.65172 0.351318C2.61497 0.351318 -0.00195312 2.99608 -0.00195312 7.03283C-0.00195312 19.2266 -0.00195312 31.4482 -0.00195312 43.6698C-0.00195312 47.7066 2.64281 50.3513 6.65172 50.3513C14.1684 50.3513 21.6573 50.3513 29.174 50.3513C36.6907 50.3513 44.1796 50.3513 51.6963 50.3513C55.6773 50.3513 58.3221 47.7066 58.3221 43.6976C58.3221 31.476 58.3221 19.2266 58.3221 7.00499C58.3221 2.99608 55.6773 0.351318 51.6963 0.351318ZM4.17399 6.94931C4.17399 5.30677 4.9535 4.49943 6.59604 4.49943C21.6573 4.49943 36.7185 4.49943 51.7519 4.49943C53.3388 4.49943 54.174 5.30677 54.174 6.89363C54.174 15.6074 54.174 24.3491 54.174 33.0629C54.174 33.5919 54.0348 33.6754 53.5337 33.6754C45.4045 33.6754 37.2753 33.6754 29.1183 33.6754C20.9613 33.6754 12.9435 33.6754 4.84214 33.6754C4.25751 33.6754 4.14615 33.5362 4.14615 32.9794C4.14615 24.2934 4.14615 15.6353 4.14615 6.94931H4.17399ZM54.1462 43.9204C54.1462 45.3402 53.2831 46.1754 51.8633 46.1754C36.7185 46.1754 21.5738 46.1754 6.429 46.1754C4.98134 46.1754 4.14615 45.3123 4.14615 43.8647C4.14615 42.0551 4.14615 40.2734 4.14615 38.4638C4.14615 37.9627 4.28535 37.8235 4.78647 37.8235C12.9156 37.8235 21.0448 37.8235 29.2018 37.8235C37.3588 37.8235 45.4323 37.8235 53.5337 37.8235C54.007 37.8235 54.2018 37.907 54.174 38.436C54.1462 40.2455 54.174 42.0829 54.174 43.8925L54.1462 43.9204Z" fill="#1E4854" stroke="#F3F6F6"/>
<path d="M26.0302 16.8326C24.8053 18.0575 23.6639 19.1989 22.5224 20.3682C21.9656 20.925 21.3532 21.2034 20.5458 21.2034C17.2607 21.2034 13.9478 21.2034 10.6627 21.2034C9.29861 21.2034 8.32422 20.3403 8.32422 19.1432C8.32422 17.9183 9.27077 17.0553 10.6349 17.0553C13.5302 17.0553 16.4534 17.0553 19.3487 17.0553C19.7942 17.0553 20.1004 16.9161 20.4066 16.6098C22.077 14.9116 23.7474 13.2691 25.4178 11.5987C26.7819 10.2346 28.5915 10.7078 29.1204 12.5452C29.9556 15.4127 30.763 18.2802 31.5703 21.1477C31.626 21.3147 31.5982 21.5096 31.793 21.621C32.322 20.5631 32.8788 19.5052 33.3799 18.4194C33.8253 17.4729 34.5492 17.0274 35.6071 17.0274C39.616 17.0274 43.6249 17.0274 47.6338 17.0274C48.9979 17.0274 49.9445 17.8905 49.9445 19.1432C49.9445 20.3403 48.9979 21.2034 47.6616 21.2034C44.1817 21.2034 40.6739 21.2034 37.1939 21.2034C36.8042 21.2034 36.5815 21.3147 36.4144 21.6767C35.3565 23.8203 34.2708 25.964 33.2129 28.1076C32.7117 29.1377 31.9601 29.6109 31.0135 29.5274C30.067 29.4439 29.4267 28.8314 29.1204 27.7457C28.1182 24.2657 27.116 20.7579 26.1138 17.278C26.0859 17.1666 26.0581 17.0831 25.9746 16.8882L26.0302 16.8326Z" fill="#1E4854" stroke="#F3F6F6"/>
<path d="M14.5588 39.9392C15.6724 39.9392 16.6468 40.8579 16.6746 41.9715C16.7024 43.1129 15.7559 44.0873 14.6145 44.1152C13.5009 44.1152 12.5265 43.1964 12.4987 42.0829C12.4708 40.9136 13.3895 39.967 14.5588 39.9392Z" fill="#1E4854" stroke="#F3F6F6"/>
<path d="M45.8239 41.9994C45.8239 43.1409 44.8773 44.1153 43.7359 44.1153C42.6223 44.1153 41.6758 43.1687 41.6758 42.0551C41.6758 40.8859 42.6223 39.9393 43.7638 39.9672C44.8773 39.9672 45.8239 40.9137 45.8239 42.0273V41.9994Z" fill="#1E4854" stroke="#F3F6F6"/>
</g>
<defs>
<clipPath id="clip0_235_4697">
<rect width="58.3241" height="50" fill="white" transform="translate(0 0.351562)"/>
</clipPath>
</defs>
</svg>
