<svg width="51" height="51" viewBox="0 0 51 51" fill="none" xmlns="http://www.w3.org/2000/svg">
<g clip-path="url(#clip0_235_4353)">
<path d="M0.666504 23.1076C0.692605 23.0932 0.736976 23.0841 0.743501 23.0619C1.27074 21.5076 2.40482 20.9086 3.98261 20.979C4.51898 21.0038 5.05666 20.9738 5.59303 20.9869C5.81489 20.9921 5.94539 20.949 6.00151 20.7011C6.48829 18.5621 7.32482 16.5654 8.485 14.7057C8.60898 14.5073 8.56461 14.399 8.41453 14.2542C7.91209 13.7674 7.41487 13.2754 6.92678 12.7729C5.75094 11.5632 5.75747 9.9384 6.94375 8.72993C7.62759 8.03304 8.31795 7.34268 9.01485 6.65753C10.2168 5.47386 11.912 5.46994 13.1114 6.64318C13.5995 7.12082 14.0875 7.59977 14.5587 8.09569C14.727 8.27187 14.851 8.2797 15.0533 8.15441C16.8999 7.00337 18.8809 6.17206 21.0069 5.69702C21.247 5.64351 21.3005 5.51693 21.2966 5.28985C21.2835 4.60731 21.2848 3.92347 21.294 3.23963C21.3148 1.54047 22.4985 0.364628 24.1925 0.355492C25.1856 0.350272 26.1774 0.348967 27.1706 0.355492C28.8084 0.365933 29.996 1.53264 30.0351 3.17568C30.0521 3.89085 30.0495 4.60731 30.0325 5.32378C30.0273 5.54955 30.1043 5.63568 30.3144 5.68397C32.4494 6.18119 34.4514 7.00598 36.3085 8.17138C36.5029 8.29405 36.6125 8.25751 36.76 8.10482C37.235 7.61282 37.7192 7.13126 38.2086 6.65362C39.4171 5.47516 41.1097 5.47255 42.3064 6.6497C43.002 7.33485 43.6937 8.02391 44.3762 8.7221C45.5795 9.95015 45.5782 11.571 44.3762 12.8017C43.8986 13.291 43.4183 13.7778 42.9237 14.2489C42.7488 14.416 42.7358 14.54 42.8624 14.7436C44.0147 16.5889 44.8408 18.5739 45.325 20.6958C45.3785 20.9295 45.4933 20.996 45.7269 20.9908C46.4264 20.9751 47.1259 20.9777 47.8254 20.9869C49.4606 21.0091 50.6482 22.1993 50.6626 23.8332C50.6717 24.8576 50.673 25.8834 50.6626 26.9091C50.6443 28.4895 49.4724 29.685 47.892 29.7202C46.8832 29.7424 45.8744 29.7333 44.8656 29.7228C44.0839 29.715 43.5423 29.206 43.5501 28.5183C43.558 27.8305 44.0982 27.345 44.8904 27.3359C45.8013 27.3268 46.7135 27.3359 47.6245 27.3333C48.2052 27.332 48.2861 27.255 48.2887 26.6951C48.2939 25.7842 48.2835 24.872 48.2926 23.9611C48.2966 23.5539 48.1347 23.3686 47.7119 23.3751C46.6874 23.3895 45.6617 23.3829 44.6359 23.3777C43.785 23.3738 43.3896 23.0567 43.2278 22.2084C42.7371 19.6375 41.7674 17.2714 40.2745 15.1168C39.8216 14.4643 39.8856 13.9331 40.4428 13.3707C41.1645 12.6424 41.8849 11.9129 42.6209 11.1991C42.9276 10.9002 42.9576 10.6496 42.6366 10.339C41.9697 9.69436 41.3094 9.04184 40.6712 8.36974C40.3554 8.03696 40.127 8.08002 39.8281 8.39062C39.1182 9.13058 38.3861 9.84835 37.6579 10.5687C37.0928 11.1286 36.5551 11.1965 35.9104 10.7488C33.7297 9.23629 31.3336 8.2549 28.7249 7.77856C27.9914 7.64414 27.6495 7.21087 27.6443 6.4422C27.6352 5.41774 27.6273 4.39198 27.6482 3.36752C27.6573 2.90554 27.4864 2.71892 27.0231 2.72806C26.1122 2.74633 25.2 2.74372 24.289 2.72806C23.8518 2.72153 23.6757 2.89771 23.6835 3.33881C23.7018 4.33064 23.6913 5.32378 23.6887 6.31692C23.6861 7.25002 23.3964 7.62457 22.4881 7.79814C19.9341 8.28753 17.5837 9.25587 15.4409 10.7332C14.7635 11.2004 14.2415 11.1351 13.6556 10.5544C12.9391 9.84444 12.2292 9.12667 11.514 8.41542C11.0977 8.00172 11.039 8.00303 10.6135 8.42586C9.97927 9.0575 9.35677 9.70088 8.70947 10.3182C8.37016 10.6418 8.39626 10.8976 8.72252 11.2121C9.44942 11.9116 10.1568 12.632 10.8667 13.3472C11.4461 13.9305 11.5088 14.4512 11.039 15.1325C9.54208 17.3027 8.56591 19.6844 8.08957 22.2763C7.95254 23.0188 7.5271 23.366 6.76757 23.3725C5.72614 23.3816 4.68472 23.3881 3.6433 23.3699C3.19828 23.362 3.02993 23.5487 3.03515 23.9793C3.0482 24.8902 3.05081 25.8025 3.03515 26.7134C3.02732 27.178 3.22047 27.3463 3.67984 27.3372C4.68864 27.3163 5.69743 27.3268 6.70623 27.332C7.53623 27.3359 7.94602 27.6608 8.0961 28.4648C8.57635 31.0383 9.5473 33.4043 11.0337 35.5616C11.5166 36.2624 11.4527 36.7713 10.8445 37.3834C10.1333 38.0999 9.42463 38.8176 8.70033 39.5197C8.38451 39.8251 8.38712 40.0744 8.70164 40.3785C9.38026 41.0349 10.0458 41.7031 10.7036 42.3791C10.9672 42.6492 11.1786 42.6414 11.4396 42.3752C12.1783 41.6183 12.93 40.8731 13.6817 40.1292C14.2454 39.5706 14.7675 39.5184 15.4291 39.9648C16.1834 40.4737 16.9665 40.9331 17.7691 41.3612C18.4751 41.7383 18.723 42.4013 18.4046 43.0212C18.0875 43.6398 17.3841 43.8342 16.6846 43.4701C16.1378 43.1856 15.6001 42.8828 15.0741 42.5618C14.8549 42.4274 14.7218 42.4352 14.5417 42.6257C14.0719 43.1217 13.5838 43.6006 13.0957 44.0783C11.8938 45.2567 10.2572 45.2606 9.05139 44.0796C8.34144 43.3853 7.64064 42.6832 6.94636 41.9732C5.74572 40.7452 5.75355 39.1256 6.96202 37.8963C7.42922 37.4199 7.89904 36.9449 8.3819 36.4855C8.5633 36.3133 8.60767 36.1841 8.46412 35.9544C7.3196 34.1234 6.49742 32.1554 6.01456 30.0504C5.95975 29.8129 5.86578 29.7032 5.59434 29.7137C4.96009 29.7372 4.32584 29.7215 3.69028 29.7202C2.23647 29.7176 1.33207 29.1107 0.794398 27.7783C0.765687 27.7078 0.773517 27.6113 0.666504 27.5969C0.666504 26.1 0.666504 24.6018 0.666504 23.105L0.666504 23.1076Z" fill="#1E4854" stroke="#1E4854" stroke-width="0.6"/>
<path d="M11.7826 25.3456C11.8021 18.4498 16.8135 12.6437 23.6441 11.6062C29.1396 10.771 34.8752 13.5168 37.6223 18.2893C37.9095 18.7865 37.9786 19.2668 37.625 19.7444C37.3261 20.1503 36.9059 20.2782 36.4152 20.1868C35.9715 20.1046 35.7366 19.781 35.5186 19.426C34.1092 17.1291 32.1412 15.5096 29.6198 14.5569C22.9602 12.0434 15.4771 16.3787 14.3274 23.4168C13.4856 28.5717 16.0513 33.5035 20.7612 35.7664C21.171 35.9635 21.543 36.1801 21.6578 36.6538C21.7687 37.1132 21.6748 37.5308 21.3093 37.8519C20.897 38.2133 20.4311 38.2394 19.9456 38.0163C17.4608 36.8705 15.4628 35.1582 13.9842 32.8562C12.5173 30.571 11.7839 28.064 11.7812 25.3456H11.7826Z" fill="#1E4854" stroke="#1E4854" stroke-width="0.6"/>
<path d="M50.1156 44.967C46.1208 38.1103 42.1744 31.2276 38.2032 24.3578C36.6828 21.7282 33.4411 21.7451 31.9194 24.3826C29.9814 27.7418 28.0408 31.0997 26.1028 34.4588C24.067 37.9864 22.0246 41.51 19.9966 45.0427C18.9734 46.8254 19.5098 48.8756 21.2546 49.8975C21.5678 50.0802 21.9163 50.2015 22.2491 50.3516H47.7365C47.8422 50.152 48.0523 50.2472 48.2063 50.2028C50.1299 49.6443 51.4232 47.2091 50.1169 44.967H50.1156ZM46.8882 47.9738C42.9509 47.9764 39.0149 47.9738 35.0776 47.9738C31.2055 47.9738 27.3348 47.9738 23.4627 47.9738C23.3492 47.9738 23.2344 47.9764 23.1208 47.9738C22.0337 47.949 21.5482 47.1112 22.0898 46.169C23.3087 44.0444 24.5394 41.925 25.7648 39.8043C28.5146 35.0409 31.263 30.2762 34.0166 25.5154C34.5778 24.5445 35.5448 24.5418 36.1151 25.4984C36.1569 25.5676 36.1947 25.6394 36.2352 25.7099C38.857 30.2475 41.4788 34.7851 44.0993 39.324C45.3979 41.5726 46.6964 43.8199 47.991 46.0698C48.6135 47.1504 48.1371 47.9751 46.8882 47.9751V47.9738Z" fill="#1E4854" stroke="#1E4854" stroke-width="0.6"/>
<path d="M33.8745 34.8386C33.8745 33.7345 33.8705 32.6291 33.8758 31.5251C33.8797 30.7329 34.3495 30.1926 35.0386 30.1743C35.7459 30.1548 36.2522 30.6951 36.2562 31.5159C36.2653 33.7254 36.2653 35.9335 36.2562 38.1429C36.2535 38.9703 35.7524 39.5119 35.0477 39.4962C34.343 39.4806 33.8784 38.9338 33.8758 38.1038C33.8718 37.0154 33.8758 35.927 33.8758 34.8386H33.8745Z" fill="#1E4854" stroke="#1E4854" stroke-width="0.6"/>
<path d="M35.0882 41.9341C35.7459 41.9393 36.2614 42.4574 36.2614 43.1139C36.2614 43.7638 35.7368 44.291 35.0869 44.2962C34.4252 44.3015 33.868 43.7416 33.8836 43.0878C33.8993 42.4431 34.437 41.9289 35.0882 41.9341Z" fill="#1E4854" stroke="#1E4854" stroke-width="0.6"/>
</g>
<defs>
<clipPath id="clip0_235_4353">
<rect width="50.0039" height="50" fill="white" transform="translate(0.666504 0.351562)"/>
</clipPath>
</defs>
</svg>
