<svg width="50" height="51" viewBox="0 0 50 51" fill="none" xmlns="http://www.w3.org/2000/svg">
<g id="Layer_1" clip-path="url(#clip0_235_4707)">
<path id="Vector" d="M27.8417 36.8488C27.6395 36.6544 27.629 36.5095 27.7112 36.2629C28.2253 34.726 28.7354 33.1864 29.2156 31.6377C29.5144 30.6735 28.845 29.7771 27.8404 29.7458C27.402 29.7327 26.961 29.7301 26.5226 29.7484C26.2812 29.7588 26.1977 29.6793 26.1403 29.4392C25.9107 28.4815 25.4997 27.6008 24.8956 26.8219C23.4069 24.9026 21.4407 23.9176 19.0126 23.8888C17.3973 23.8693 15.782 23.8849 14.1668 23.8849C18.565 23.0917 20.7635 19.3823 20.4895 15.9874C20.1907 12.2963 17.1194 9.34498 13.4935 9.24321C9.76853 9.13883 6.53409 11.7901 5.95609 15.3285C5.3507 19.0392 7.69791 23.1086 12.2188 23.8719C10.5762 23.8836 8.9335 23.8771 7.29084 23.8862C4.02248 23.9045 1.17816 26.0808 0.281807 29.22C0.186561 29.5566 0.193085 29.9193 0.0078125 30.2312V38.1391C0.121324 38.6897 0.127848 39.256 0.34052 39.7922C0.786738 40.9156 1.45476 41.8759 2.35503 42.6757C2.68382 42.968 2.81169 43.3085 2.80777 43.7482C2.79211 45.3856 2.79603 47.0244 2.80255 48.6618C2.80647 49.626 3.12091 50.0527 4.01074 50.341H22.3644C23.0142 50.0448 23.3364 49.5164 23.5413 48.8458C23.9471 47.5124 24.4155 46.1985 24.846 44.8729C24.9282 44.6198 25.0143 44.4906 25.3275 44.4515C27.1685 44.2192 28.4706 43.2276 29.059 41.4662C29.6487 39.6983 29.1869 38.1326 27.8417 36.8475V36.8488ZM8.79389 16.5341C8.80694 14.119 10.8045 12.1515 13.2274 12.1697C15.6437 12.188 17.6034 14.1908 17.58 16.615C17.5565 19.0091 15.572 20.9623 13.1713 20.9545C10.7549 20.9467 8.78215 18.953 8.79519 16.5328L8.79389 16.5341ZM9.27795 47.1966C9.22315 47.3675 9.13051 47.4184 8.95959 47.4171C8.01757 47.4106 7.07425 47.4119 6.13223 47.4171C5.97044 47.4171 5.85824 47.4171 5.86085 47.194C5.87129 46.2546 5.86607 45.3139 5.86607 44.3523C7.3091 44.5963 8.72343 44.428 10.1626 44.5049C9.86247 45.4183 9.56629 46.3068 9.27925 47.1992L9.27795 47.1966ZM11.2063 41.3736C11.1685 41.491 11.1059 41.5615 10.9611 41.5575C9.48279 41.508 7.99539 41.6919 6.52757 41.4623C4.53524 41.1492 2.98261 39.3708 2.94868 37.3563C2.91215 35.2413 2.90824 33.1251 2.94868 31.0114C2.99304 28.7594 4.89665 26.848 7.15384 26.8284C11.1881 26.7919 15.2236 26.7997 19.2592 26.8271C20.9853 26.8388 22.5836 28.0627 23.1538 29.7432C20.8731 29.7432 18.629 29.7432 16.3848 29.7432C15.3724 29.7432 14.964 30.0459 14.6378 31.0244C14.1563 32.4714 13.6671 33.9144 13.2 35.3653C13.1152 35.6275 13.0017 35.711 12.7251 35.7058C11.5377 35.6876 10.3491 35.6876 9.16182 35.7058C8.86304 35.711 8.78084 35.6393 8.78475 35.3327C8.80302 34.0149 8.79519 32.6971 8.79258 31.3793C8.79128 30.4008 8.18197 29.7327 7.31171 29.7432C6.45972 29.7536 5.86737 30.4138 5.86607 31.365C5.86346 33.2529 5.86215 35.1396 5.86607 37.0275C5.86737 38.0282 6.47146 38.6245 7.48133 38.6271C9.01047 38.631 10.5383 38.6271 12.1079 38.6271C11.8 39.5639 11.5038 40.4694 11.2063 41.3749V41.3736ZM22.0787 35.6993C21.1314 35.7058 20.5143 36.3099 20.5104 37.2454C20.5039 39.132 20.5052 41.0187 20.5104 42.9053C20.513 43.7025 20.8522 44.1788 21.6194 44.4241C21.8451 44.4958 21.883 44.5493 21.7995 44.7789C21.5176 45.5566 21.2606 46.342 21.014 47.1314C20.9501 47.3336 20.8705 47.4197 20.6474 47.4184C17.8827 47.4119 15.1192 47.4132 12.2919 47.4132C12.6024 46.466 12.8986 45.55 13.2013 44.6367C14.4695 40.806 15.7455 36.9779 17.0007 33.1433C17.122 32.7728 17.2825 32.6567 17.6778 32.6606C20.2142 32.6828 22.7519 32.6723 25.2896 32.6723H25.805C25.488 33.6456 25.1826 34.5655 24.893 35.4905C24.816 35.7358 24.6438 35.6993 24.469 35.6993C23.6718 35.6993 22.8746 35.6954 22.0787 35.6993ZM25.0522 41.5497C23.9762 41.6776 23.4382 41.2127 23.4382 40.155C23.4382 40.1223 23.4382 40.0897 23.4382 40.0571C23.4382 39.6683 23.45 39.2782 23.433 38.8907C23.4239 38.6702 23.5035 38.6154 23.7109 38.6232C24.1323 38.6376 24.5538 38.6115 24.9739 38.6323C25.7372 38.6702 26.3452 39.303 26.366 40.0519C26.3869 40.7982 25.8063 41.4597 25.0522 41.5497Z" fill="#1E4854"/>
<path id="Vector_2" d="M45.3719 0.356881C42.4924 0.355576 39.6128 0.356881 36.7333 0.356881C33.7559 0.356881 30.7798 0.342529 27.8024 0.3621C25.4134 0.377756 23.4641 2.28528 23.4485 4.65337C23.4224 8.65499 23.4119 12.6566 23.455 16.6582C23.4746 18.4118 24.3605 19.6956 25.9236 20.5085C26.8917 21.0121 27.9328 20.9795 28.9727 20.9482C29.3054 20.9391 29.4111 21.0108 29.4046 21.3644C29.3798 22.6 29.4111 23.8369 29.3889 25.0724C29.3759 25.8083 29.6003 26.3968 30.3022 26.6942C31.0146 26.9956 31.5822 26.7086 32.0936 26.1919C33.7311 24.5401 35.3842 22.904 37.0216 21.2509C37.2317 21.0395 37.4352 20.9456 37.7392 20.9469C40.2926 20.9599 42.8472 20.956 45.4006 20.9534C48.1066 20.9508 49.9894 19.0615 49.992 16.349C49.9946 12.5587 49.9946 8.7685 49.992 4.97825C49.9907 2.23048 48.1171 0.356881 45.3706 0.355576L45.3719 0.356881ZM47.0628 16.4508C47.0628 17.4163 46.4457 18.0243 45.4724 18.0256C42.7716 18.0295 40.0721 18.0582 37.3726 18.0099C36.4658 17.993 35.7939 18.2683 35.1872 18.9298C34.2973 19.8979 33.341 20.806 32.3233 21.8302C32.3233 21.0043 32.3272 20.3089 32.3233 19.6147C32.3167 18.6401 31.714 18.0347 30.7445 18.0295C29.8169 18.0243 28.8905 18.0321 27.9629 18.0269C26.9869 18.0217 26.3711 17.4189 26.3711 16.4547C26.3672 12.5835 26.3672 8.71239 26.3711 4.84125C26.3711 3.90315 26.9908 3.28862 27.9328 3.28862C33.7885 3.28601 39.6441 3.28601 45.4998 3.28862C46.4444 3.28862 47.0628 3.90054 47.0641 4.83864C47.0694 8.70979 47.0681 12.5809 47.0641 16.4521L47.0628 16.4508Z" fill="#1E4854"/>
<path id="Vector_3" d="M41.1067 9.31763C41.0975 9.65426 40.9384 10.017 40.6383 10.3184C39.2018 11.7575 37.7705 13.2018 36.3222 14.6305C35.6633 15.279 34.8231 15.2607 34.155 14.607C33.457 13.9246 32.7655 13.2344 32.0844 12.5364C31.4542 11.8906 31.4373 10.9825 32.0257 10.3993C32.6129 9.81735 33.5118 9.84605 34.1642 10.4736C34.446 10.7437 34.7357 11.0099 34.9888 11.3047C35.1936 11.5435 35.315 11.5096 35.5211 11.2995C36.5231 10.2766 37.5395 9.26805 38.5546 8.2595C39.0243 7.7924 39.5788 7.64627 40.2064 7.89286C40.7453 8.10423 41.1015 8.64831 41.1067 9.31763Z" fill="#1E4854"/>
</g>
<defs>
<clipPath id="clip0_235_4707">
<rect width="49.9948" height="50" fill="white" transform="translate(0 0.351562)"/>
</clipPath>
</defs>
</svg>
