<svg width="51" height="51" viewBox="0 0 51 51" fill="none" xmlns="http://www.w3.org/2000/svg">
<path d="M25.6216 0.351563C25.9987 0.618216 26.3386 0.911242 26.2819 1.43771C26.2331 1.89093 25.8668 2.25819 25.4273 2.308C24.9662 2.36074 24.5257 2.1019 24.3753 1.68874C24.221 1.26678 24.3714 0.795985 24.7523 0.526402C24.8432 0.461936 24.9418 0.408214 25.0366 0.350586C25.2319 0.350586 25.4273 0.350586 25.6226 0.350586L25.6216 0.351563Z" fill="#1E4854" stroke="#1E4854" stroke-width="0.6"/>
<path d="M49.5435 50.3515C49.9127 50.2001 50.1002 49.867 50.3249 49.5701C50.3249 50.091 50.0644 50.3515 49.5435 50.3515Z" fill="#1E4854" stroke="#1E4854" stroke-width="0.6"/>
<path d="M0.333496 49.6687C0.514195 49.9441 0.742756 50.1708 1.01722 50.3524C0.561405 50.3518 0.333496 50.1239 0.333496 49.6687Z" fill="#1E4854" stroke="#1E4854" stroke-width="0.6"/>
<path d="M50.2202 48.8933C49.809 46.3723 48.6506 44.3348 46.3874 43.0318C46.0739 42.8511 46.0006 42.7622 46.2087 42.4125C47.539 40.1689 46.5378 37.3217 44.5199 36.5129C44.26 36.4084 44.2962 36.2336 44.2962 36.0451C44.2952 34.8407 44.2962 33.6364 44.2962 32.4321C44.2962 31.3 44.0217 31.0285 42.8809 31.0285C37.4951 31.0285 32.1102 31.0255 26.7244 31.0353C26.4011 31.0353 26.2731 30.9835 26.2858 30.6221C26.3161 29.8095 26.3142 28.9949 26.2858 28.1822C26.2741 27.8374 26.3972 27.7436 26.7156 27.7319C27.6591 27.6977 28.5958 27.5825 29.5218 27.3959C31.0573 27.0873 32.5527 26.6634 33.8508 25.7364C34.8119 25.0498 35.2993 24.1482 35.2944 22.9214C35.2671 16.9984 35.2739 11.0744 35.2905 5.15134C35.2934 4.15017 34.9506 3.34337 34.1995 2.7075C32.7851 1.51 31.0788 1.01381 29.2991 0.72567C28.7951 0.644599 28.3605 1.01967 28.2696 1.49535C28.1719 2.00131 28.4474 2.46136 28.967 2.62545C29.2132 2.7036 29.473 2.73876 29.725 2.80127C30.8004 3.06792 31.8602 3.37853 32.7607 4.05933C33.4669 4.59361 33.464 5.0185 32.7607 5.56353C32.1893 6.006 31.5349 6.29707 30.8482 6.50219C27.3339 7.55122 23.801 7.55415 20.2593 6.65554C19.4554 6.4514 18.6838 6.1486 17.9951 5.67195C17.0897 5.04487 17.0946 4.56919 18.0069 3.93723C18.4093 3.65788 18.8498 3.45374 19.306 3.27988C20.0209 3.00639 20.7594 2.82569 21.5076 2.67039C22.1053 2.54634 22.4111 2.09508 22.33 1.53637C22.2528 1.006 21.8143 0.637762 21.2448 0.732507C19.5658 1.01186 17.9522 1.49047 16.5798 2.55708C15.7506 3.20174 15.3179 4.02905 15.3208 5.11813C15.3394 11.09 15.3394 17.0628 15.3208 23.0347C15.3179 24.1013 15.7281 24.915 16.5329 25.5694C17.2362 26.1408 18.044 26.5168 18.8889 26.8118C20.5113 27.3783 22.1913 27.6499 23.9026 27.7339C24.2307 27.7495 24.3411 27.8579 24.3294 28.1959C24.302 28.9597 24.2893 29.7274 24.3323 30.4893C24.3587 30.9523 24.2014 31.0402 23.7697 31.0392C18.3683 31.0246 12.9658 31.0285 7.5644 31.0304C6.6443 31.0304 6.29755 31.3791 6.29657 32.2992C6.2956 33.5524 6.28876 34.8056 6.30243 36.0587C6.30537 36.3205 6.23504 36.4524 5.98597 36.5647C5.01312 37.0033 4.388 37.772 4.04711 38.7673C3.55776 40.1972 3.77264 41.5432 4.60874 42.7925C2.30458 44.1931 1.1735 45.6426 0.571823 47.9322C0.504427 48.1881 0.532753 48.4772 0.337402 48.694V49.6708C0.431171 50.0332 0.658754 50.2607 1.02113 50.3545H13.5187C13.925 50.2607 14.2454 50.0722 14.3118 49.6141C14.3538 49.3221 14.3499 49.0291 14.3001 48.739C13.883 46.3293 12.7578 44.3729 10.6568 43.0396C10.1909 42.7436 10.1997 42.7378 10.4488 42.2348C11.4939 40.1259 10.7281 37.5551 8.77557 36.5032C8.49818 36.3537 8.37999 36.1447 8.38292 35.8351C8.3878 35.1845 8.38292 34.5331 8.3839 33.8825C8.3839 33.1226 8.39757 33.1099 9.13795 33.1089C11.2858 33.108 13.4337 33.1089 15.5816 33.1089C18.2501 33.1089 20.9186 33.107 23.5871 33.1109C24.1594 33.1109 24.2122 33.1646 24.2171 33.7136C24.2239 34.3973 24.2083 35.081 24.2229 35.7638C24.2307 36.132 24.1038 36.3801 23.7619 36.5403C23.3771 36.721 23.0362 36.973 22.7637 37.308C21.5163 38.8415 21.3386 40.5079 22.1796 42.2797C22.3466 42.6303 22.3173 42.8296 21.9715 43.0289C20.9195 43.6335 20.0981 44.4823 19.4779 45.5196C18.7853 46.679 18.2823 47.9087 18.2686 49.285C18.2618 49.9609 18.4572 50.1904 19.0833 50.3545H31.5808C32.1835 50.1172 32.454 49.7352 32.37 49.1248C32.0164 46.5657 30.9186 44.4471 28.6623 43.0552C28.2862 42.8237 28.2452 42.6479 28.4405 42.2514C29.4271 40.2529 28.8586 37.5629 26.7771 36.4797C26.5242 36.3479 26.4431 36.1535 26.4441 35.8859C26.448 35.1533 26.4421 34.4217 26.447 33.6891C26.4509 33.149 26.487 33.1119 27.036 33.1099C28.1583 33.105 29.2806 33.1089 30.4038 33.1089C34.1126 33.1089 37.8223 33.1089 41.531 33.1089C42.1669 33.1089 42.1825 33.1275 42.1844 33.7712C42.1864 34.4549 42.1757 35.1377 42.1893 35.8214C42.1962 36.1515 42.0936 36.3791 41.7801 36.5198C41.4978 36.6467 41.2536 36.8401 41.027 37.0541C39.6986 38.3092 39.3099 40.4825 40.1186 42.1439C40.4185 42.7593 40.4077 42.7436 39.8607 43.1002C39.2473 43.4996 38.6691 43.946 38.1983 44.5204C37.1161 45.84 36.489 47.35 36.2673 49.0359C36.1764 49.7313 36.3894 50.0947 37.0497 50.3545H49.5472C49.9848 50.2715 50.2456 50.0117 50.3286 49.5731V49.1824C50.1674 49.1345 50.2397 48.9949 50.2231 48.8962L50.2202 48.8933ZM12.036 48.3766H2.55268C2.78026 46.3449 4.94279 44.3055 6.96858 44.2019C9.33037 44.0798 11.487 45.8409 12.035 48.3766H12.036ZM8.29403 41.6887C7.69919 42.3891 6.8377 42.3813 6.25067 41.6702C5.93811 41.2912 5.77401 40.7911 5.77401 40.2246C5.76717 39.6698 5.9215 39.1687 6.28778 38.7448C6.87774 38.0621 7.71384 38.0718 8.29599 38.7643C8.96311 39.5575 8.96213 40.9025 8.29403 41.6897V41.6887ZM17.3065 7.69285C22.1024 9.63854 26.908 9.76747 31.7781 8.26523C32.2089 8.13239 32.6181 7.92532 33.0264 7.72899C33.2423 7.62545 33.3106 7.6489 33.3087 7.89602C33.3018 8.95286 33.3185 10.0097 33.2989 11.0666C33.2901 11.5686 32.8906 11.8245 32.5244 12.0619C31.6267 12.643 30.6255 12.9732 29.5873 13.1822C26.2028 13.863 22.8438 13.8396 19.5335 12.7583C18.884 12.5463 18.2696 12.2523 17.7353 11.8138C17.4423 11.5735 17.2919 11.2902 17.2997 10.8907C17.3212 9.81924 17.3075 8.74774 17.3075 7.69383L17.3065 7.69285ZM17.3065 14.0388C22.6484 16.1457 27.9571 16.1662 33.3038 14.031C33.3038 15.0693 33.3185 16.1369 33.297 17.2045C33.2882 17.6401 32.9404 17.8833 32.6171 18.1031C31.6316 18.7712 30.5161 19.1189 29.3646 19.3348C26.2067 19.9286 23.0645 19.9101 19.9584 19.0056C19.2083 18.7868 18.4923 18.484 17.8574 18.0162C17.4833 17.7417 17.2763 17.4106 17.2968 16.9046C17.3358 15.9347 17.3085 14.9609 17.3085 14.0378L17.3065 14.0388ZM20.1694 25.1494C19.3538 24.9286 18.5734 24.6112 17.8799 24.1101C17.4882 23.8269 17.2743 23.486 17.2958 22.9634C17.3349 22.0111 17.3065 21.0558 17.3065 20.1474C22.6523 22.2641 27.958 22.2553 33.3028 20.1474C33.3028 21.1779 33.3224 22.2445 33.2931 23.3102C33.2813 23.738 32.9209 23.9773 32.5957 24.1961C31.6502 24.831 30.5826 25.166 29.4818 25.3877C26.362 26.0148 23.253 25.9826 20.1694 25.1494ZM29.2053 46.4182C29.6097 47.0052 29.9242 47.6401 30.0532 48.3863C27.4931 48.3863 24.9731 48.3863 22.454 48.3863C21.9012 48.3863 21.3483 48.3785 20.7955 48.3903C20.566 48.3951 20.5181 48.3277 20.5845 48.1089C21.2956 45.7638 23.2569 44.0769 25.5025 44.2019C27.118 44.2918 28.3116 45.1201 29.2063 46.4182H29.2053ZM26.8084 40.2871C26.8084 40.837 26.6296 41.3645 26.2145 41.7923C25.6744 42.3481 24.9604 42.351 24.4036 41.8148C23.5636 41.004 23.5783 39.3983 24.432 38.6061C24.9643 38.1129 25.6451 38.1129 26.1725 38.6208C26.6316 39.0623 26.8133 39.619 26.8084 40.2881V40.2871ZM42.4101 38.6491C42.9531 38.1002 43.672 38.1031 44.22 38.6462C45.0239 39.4422 45.0336 40.9777 44.2405 41.7864C43.6847 42.3529 42.9541 42.3539 42.3944 41.7894C42.0184 41.4104 41.8103 40.8605 41.8084 40.2402C41.7996 39.6307 41.9764 39.0886 42.4101 38.6501V38.6491ZM38.591 48.3756C38.7775 46.3801 40.9733 44.3064 43 44.201C45.3608 44.0789 47.5204 45.839 48.0684 48.3756H38.59H38.591Z" fill="#1E4854" stroke="#1E4854" stroke-width="0.6"/>
</svg>
