<svg width="52" height="52" viewBox="0 0 52 52" fill="none" xmlns="http://www.w3.org/2000/svg">
<g id="Layer_1">
<path id="Vector" d="M30.1775 44.3039C30.1775 42.2392 30.1868 40.1737 30.1691 38.109C30.1658 37.7526 30.2465 37.6424 30.6197 37.6466C31.8429 37.6626 31.8438 37.6458 31.8438 38.8883C31.8438 42.1854 31.8513 45.4826 31.8345 48.7789C31.8328 49.1824 31.8934 49.3102 32.3482 49.3354C34.1438 49.4346 35.2342 48.055 35.1938 46.4989C35.1257 43.8802 35.1779 41.259 35.1745 38.6386C35.1695 35.2389 32.6281 32.6774 29.2343 32.6606C27.0998 32.6497 24.9653 32.6497 22.8309 32.6606C19.3875 32.6791 16.8596 35.2112 16.852 38.6479C16.8453 41.3548 16.8444 44.0618 16.8537 46.7688C16.8596 48.4409 18.3677 49.6473 19.9986 49.3202C20.3265 49.2547 20.1743 49.0226 20.1752 48.8738C20.1853 46.2711 20.1827 43.6684 20.1827 41.0657C20.1827 40.0594 20.197 39.0522 20.1743 38.0468C20.1668 37.7189 20.266 37.6475 20.5821 37.6475C21.8481 37.6466 21.8481 37.634 21.8481 38.8976C21.8481 42.7672 21.8422 46.6368 21.8574 50.5064C21.8591 50.8822 21.7901 51.0201 21.3841 50.9915C20.4005 50.9226 19.4043 51.0907 18.4274 50.8755C16.5737 50.4669 15.2085 48.8251 15.1933 46.9226C15.1706 44.0593 15.1858 41.1968 15.1908 38.3335C15.1925 37.6534 15.3161 36.9875 15.5195 36.3411C15.5927 36.109 15.6053 35.9897 15.3085 35.9939C12.7764 36.0275 10.2367 35.8341 7.71469 36.083C5.02537 36.3478 2.85559 38.6731 2.72108 41.3851C2.64458 42.9219 2.52436 44.4813 2.80346 46.0055C3.09266 47.5809 4.10231 48.5956 5.60964 49.1336C5.99215 49.2698 6.02998 49.142 6.0283 48.8032C6.01737 46.0963 6.03334 43.3893 6.01148 40.6823C6.00812 40.2519 6.10732 40.1308 6.54615 40.1434C7.68779 40.1762 7.68779 40.1527 7.68779 41.3128C7.68779 43.7592 7.70376 46.2064 7.67518 48.6528C7.66929 49.1714 7.76513 49.3429 8.32754 49.3329C10.4612 49.2942 12.5956 49.3261 14.7301 49.3085C15.0857 49.306 15.1984 49.3816 15.1942 49.7574C15.1799 50.9823 15.1967 50.9831 13.9601 50.9831C11.6692 50.9831 9.37923 50.9856 7.08839 50.9831C3.5399 50.9789 1.01619 48.472 1.03048 44.9344C1.03637 43.5482 0.91783 42.1569 1.11203 40.7756C1.61559 37.196 4.58317 34.4495 8.19724 34.3545C10.8302 34.2856 13.47 34.2268 16.1038 34.4142C16.3198 34.4294 16.4409 34.3722 16.5704 34.1923C18.1483 32.0032 20.3097 30.9784 22.9914 30.991C25.0561 31.0003 27.1217 30.9826 29.1864 30.9952C31.7849 31.012 33.8807 32.0419 35.4284 34.1469C35.5419 34.3016 35.6251 34.4437 35.8706 34.4193C37.8958 34.2175 39.9268 34.3621 41.9554 34.3276C43.2719 34.3058 44.5875 34.2806 45.8662 34.7152C48.9095 35.7492 50.9817 38.552 50.9901 41.7609C50.9943 43.2161 51.1221 44.678 50.9019 46.1265C50.4891 48.8411 48.0898 50.9453 45.3467 50.973C42.6397 51.0008 39.9327 50.9747 37.2258 50.9907C36.8945 50.9924 36.8306 50.8982 36.8306 50.5855C36.8306 49.316 36.8189 49.316 38.0774 49.316C39.9865 49.316 41.8949 49.3026 43.8032 49.3261C44.2202 49.3312 44.3513 49.253 44.3471 48.8024C44.3227 46.0786 44.3429 43.354 44.3253 40.6293C44.3227 40.246 44.4068 40.1342 44.8044 40.1418C45.9999 40.1653 45.9999 40.146 45.9999 41.3607C45.9999 43.8248 46.0091 46.2888 45.9906 48.7528C45.9881 49.1597 46.0503 49.258 46.4665 49.1151C48.1436 48.5401 49.3222 47 49.3222 45.2287C49.3222 43.7911 49.4584 42.3443 49.2407 40.9152C48.8203 38.1578 46.5228 36.0838 43.7359 36.0073C41.43 35.9443 39.1206 35.9964 36.813 35.9846C36.4717 35.9829 36.4086 36.0695 36.5154 36.3974C36.7592 37.1431 36.8416 37.9173 36.8399 38.7025C36.8348 41.3397 36.8399 43.9778 36.8374 46.615C36.834 49.1933 35.0719 50.9663 32.5037 50.9797C31.8967 50.9831 31.2864 50.9444 30.6828 50.9923C30.2187 51.0293 30.1607 50.8494 30.1649 50.4434C30.1859 48.3963 30.1742 46.3485 30.1742 44.3006L30.1775 44.3039Z" fill="black" stroke="#1E4854" stroke-width="0.8"/>
<path id="Vector_2" d="M3.52422 23.4889C3.52422 22.6911 3.52001 21.8925 3.52506 21.0947C3.53431 19.5823 4.59608 18.518 6.11602 18.502C7.01806 18.4928 7.92095 18.4903 8.82299 18.5054C9.11639 18.5104 9.28032 18.4566 9.377 18.1313C9.6477 17.2183 10.0134 16.339 10.48 15.5067C10.6119 15.2705 10.5834 15.1233 10.3858 14.9342C9.72252 14.2978 9.07436 13.6446 8.43124 12.9872C7.32743 11.8598 7.32239 10.4088 8.42451 9.29243C9.53336 8.16928 10.6498 7.05203 11.7738 5.94318C12.8952 4.83685 14.395 4.84273 15.524 5.9499C16.1554 6.56948 16.785 7.19158 17.397 7.83133C17.6064 8.05075 17.7703 8.11716 18.057 7.95323C18.8859 7.47993 19.7728 7.13105 20.6832 6.8511C20.9581 6.7662 21.0254 6.64346 21.022 6.37864C21.0086 5.44213 21.0111 4.50478 21.0178 3.56827C21.0296 2.11474 22.0855 1.03027 23.5382 1.01346C25.1859 0.99412 26.8345 0.994961 28.483 1.01346C29.9366 1.02943 30.9966 2.11222 31.0093 3.56322C31.0177 4.49974 31.0185 5.43709 31.0059 6.3736C31.0025 6.63253 31.0572 6.76536 31.3388 6.85026C32.2669 7.13021 33.1673 7.49338 34.0147 7.9692C34.2601 8.10707 34.4022 8.06588 34.5888 7.87253C35.2152 7.22352 35.8566 6.58881 36.4997 5.95579C37.6287 4.84525 39.1251 4.8318 40.25 5.93729C41.3882 7.05623 42.5173 8.18442 43.6354 9.32437C44.6921 10.4004 44.6887 11.8556 43.6354 12.946C42.9964 13.6068 42.3449 14.2575 41.6825 14.8938C41.4647 15.1032 41.4067 15.2595 41.569 15.5479C42.028 16.3633 42.3827 17.2301 42.6484 18.1262C42.7434 18.4465 42.8981 18.5121 43.1982 18.5062C44.1003 18.4894 45.0023 18.4936 45.9043 18.502C47.4234 18.5163 48.4945 19.5814 48.5003 21.0888C48.5071 22.7373 48.5138 24.3851 48.497 26.0336C48.4852 27.2568 47.5722 28.2984 46.4121 28.4741C46.1204 28.5187 45.9472 28.4876 45.9968 28.1227C46.0288 27.884 46.0103 27.6376 46.001 27.3947C45.9892 27.082 45.9565 26.8121 46.3936 26.7079C46.7164 26.6305 46.835 26.2934 46.835 25.9546C46.835 24.3237 46.8425 22.6928 46.8308 21.0619C46.8266 20.4751 46.4852 20.1716 45.8539 20.1682C44.5525 20.1607 43.2512 20.1565 41.9498 20.1724C41.6236 20.1766 41.474 20.1069 41.3899 19.7521C41.0108 18.1599 40.3887 16.6601 39.5144 15.2738C39.3429 15.0015 39.3656 14.8501 39.5925 14.6282C40.5249 13.7211 41.4387 12.7947 42.355 11.8699C42.8846 11.3344 42.8829 10.941 42.35 10.4046C41.2865 9.33362 40.2197 8.26512 39.1512 7.19914C38.5837 6.63337 38.1827 6.63841 37.6044 7.21344C36.6939 8.11884 35.7801 9.02089 34.8848 9.94143C34.6771 10.155 34.5292 10.1869 34.2744 10.0255C32.8596 9.12849 31.3262 8.50135 29.6995 8.11464C29.3842 8.03982 29.3363 7.90111 29.3388 7.622C29.3514 6.32064 29.3472 5.01927 29.343 3.71791C29.3414 2.97811 29.0429 2.67799 28.3014 2.67547C26.7748 2.67043 25.2481 2.67043 23.7206 2.67547C22.9791 2.67799 22.6832 2.97811 22.6815 3.71959C22.6782 5.02095 22.6723 6.32232 22.6866 7.62369C22.6899 7.9112 22.6277 8.0373 22.3184 8.11128C20.6925 8.50135 19.1599 9.13018 17.7468 10.0263C17.4769 10.197 17.3357 10.1255 17.1398 9.92545C16.2411 9.00912 15.329 8.10455 14.4177 7.20083C13.846 6.63421 13.4408 6.63757 12.8692 7.20755C11.7998 8.27353 10.7322 9.3395 9.66703 10.4097C9.1374 10.9418 9.13909 11.3344 9.6746 11.8733C10.5918 12.7964 11.5064 13.7219 12.4396 14.629C12.6682 14.8518 12.6884 15.004 12.5169 15.2772C11.6527 16.6483 11.0247 18.1279 10.6573 19.7059C10.564 20.106 10.3909 20.18 10.026 20.1741C8.77676 20.1539 7.52751 20.164 6.27827 20.1674C5.47038 20.1691 5.19044 20.4532 5.18959 21.267C5.18791 22.7937 5.19464 24.3203 5.18623 25.8478C5.18371 26.3186 5.34596 26.67 5.81506 26.7995C5.99328 26.8482 6.02691 26.9239 6.02439 27.0794C6.0185 27.4434 5.99748 27.8108 6.02943 28.1715C6.06306 28.5439 5.85289 28.5061 5.61834 28.4733C4.48343 28.3135 3.55784 27.2753 3.5301 26.0925C3.50908 25.2257 3.5259 24.3573 3.5259 23.4897H3.52422V23.4889Z" fill="black" stroke="#1E4854" stroke-width="0.8"/>
<path id="Vector_3" d="M36.8047 23.4974C36.7526 23.4974 36.6996 23.4899 36.6484 23.4983C36.1641 23.579 36.0036 23.4352 35.975 22.8888C35.7127 17.8388 31.6321 13.8229 26.5006 13.5152C21.6045 13.2218 17.138 16.7342 16.204 21.6101C16.1023 22.1389 16.0207 22.6702 16.0249 23.2091C16.0266 23.4344 15.9602 23.5252 15.7298 23.4999C15.5752 23.4831 15.418 23.4966 15.2616 23.4966C14.6081 23.4966 14.3167 23.1749 14.3873 22.5315C14.9741 17.1957 18.5461 13.1798 23.6902 12.0718C29.9843 10.7166 36.3886 15.0537 37.4705 21.4092C37.5605 21.938 37.5849 22.4768 37.6698 23.0065C37.7387 23.436 37.5571 23.5554 37.1679 23.4983C37.0494 23.4806 36.9258 23.4957 36.8039 23.4957L36.8047 23.4974Z" fill="black" stroke="#1E4854" stroke-width="0.8"/>
<path id="Vector_4" d="M25.9854 50.9841C24.9976 50.9841 24.0098 50.9749 23.022 50.99C22.7521 50.9942 22.6782 50.9227 22.6723 50.647C22.6412 49.317 22.6311 49.317 23.9594 49.317C25.6054 49.317 27.2523 49.3288 28.8983 49.3078C29.2649 49.3028 29.3582 49.4003 29.354 49.7643C29.3405 50.9833 29.3556 50.9833 28.1173 50.9833C27.407 50.9833 26.6966 50.9833 25.9862 50.9833L25.9854 50.9841Z" fill="black" stroke="#1E4854" stroke-width="0.8"/>
<path id="Vector_5" d="M26.0463 20.1681C23.3099 20.1454 21.03 22.3968 21.0157 25.1365C21.0014 27.8956 23.2241 30.1453 25.979 30.1587C28.7432 30.1722 30.9911 27.9578 31.0105 25.2029C31.029 22.4573 28.7953 20.1917 26.0471 20.169L26.0463 20.1681ZM26.0135 28.4925C24.164 28.4925 22.6769 27.0045 22.6819 25.1575C22.687 23.3274 24.2111 21.8175 26.0387 21.8344C27.8521 21.8503 29.3401 23.3459 29.3443 25.1575C29.3493 27.0045 27.8622 28.4925 26.0135 28.4925Z" fill="black" stroke="#1E4854" stroke-width="0.8"/>
<path id="Vector_6" d="M11.8566 23.4998C9.11689 23.4964 6.85631 25.7544 6.85547 28.4967C6.85379 31.2533 9.0883 33.4878 11.8474 33.4895C14.6073 33.4912 16.8444 31.2617 16.8494 28.5043C16.8545 25.7612 14.6015 23.5023 11.8566 23.4998ZM11.8718 31.8241C10.0198 31.8309 8.52421 30.3513 8.52169 28.5077C8.51917 26.6733 10.0299 25.1609 11.86 25.1651C13.6717 25.1693 15.1714 26.6599 15.184 28.4698C15.1966 30.3185 13.7171 31.8174 11.8718 31.8241Z" fill="black" stroke="#1E4854" stroke-width="0.8"/>
<path id="Vector_7" d="M40.2014 23.4999C37.4642 23.4805 35.1884 25.7327 35.1758 28.4725C35.1632 31.2307 37.3885 33.4779 40.1434 33.4896C42.9067 33.5014 45.153 31.2845 45.1698 28.5288C45.1866 25.784 42.9496 23.5192 40.2014 23.4999ZM40.1644 31.8242C38.3166 31.8217 36.8328 30.3287 36.8412 28.4809C36.8496 26.6717 38.3427 25.177 40.1543 25.1661C41.9845 25.1543 43.5027 26.6642 43.5036 28.4977C43.5044 30.343 42.0147 31.8276 40.1644 31.8242Z" fill="black" stroke="#1E4854" stroke-width="0.8"/>
</g>
</svg>
