<svg width="52" height="52" viewBox="0 0 52 52" fill="none" xmlns="http://www.w3.org/2000/svg">
<path d="M1.00163 21.5677C1.1765 21.4829 1.14909 21.2963 1.19998 21.1541C1.69064 19.7682 2.95382 18.7713 4.42449 18.7204C5.91994 18.6695 7.41801 18.6956 8.91347 18.6943C11.7439 18.6917 14.5756 18.6943 17.406 18.6943C17.5848 18.6943 17.7662 18.6877 17.941 18.7165C18.3234 18.7804 18.5491 19.0153 18.5818 19.4028C18.6157 19.81 18.4265 20.084 18.0363 20.2197C17.8301 20.2915 17.6187 20.2719 17.4073 20.2719C13.242 20.2719 9.07659 20.2719 4.91253 20.2719C3.37793 20.2719 2.56234 21.0849 2.56234 22.6117C2.56234 27.2821 2.56234 31.9524 2.56234 36.6228C2.56234 38.0948 3.41316 38.9404 4.89818 38.943C6.49281 38.9456 8.08745 38.956 9.68077 38.9378C10.2262 38.9312 10.6464 39.1165 11.0209 39.5028C12.2567 40.7751 13.5069 42.0331 14.7348 43.2806C14.9697 43.1853 14.8888 43.0327 14.8901 42.9217C14.8979 42.1244 14.8862 41.3271 14.8966 40.5298C14.9097 39.4898 15.4669 38.9456 16.5082 38.9456C18.8349 38.9443 21.1616 38.9482 23.4883 38.9417C23.8589 38.9417 24.1617 39.0291 24.3404 39.3801C24.6249 39.9387 24.2256 40.4972 23.5209 40.5011C21.8937 40.5089 20.2664 40.5037 18.6405 40.5037C18.0546 40.5037 17.4686 40.5233 16.884 40.4959C16.55 40.4802 16.4417 40.5702 16.4469 40.92C16.4678 42.2536 16.4508 43.5886 16.4573 44.9222C16.4599 45.3594 16.4521 45.7822 15.9627 45.9818C15.493 46.1737 15.2046 45.8866 14.9071 45.589C13.3098 43.9879 11.7034 42.3959 10.1114 40.7895C9.8987 40.5742 9.6873 40.4933 9.38977 40.4959C7.90997 40.5102 6.42887 40.5024 4.94777 40.5024C2.87422 40.5024 1.57189 39.4845 1.05253 37.4632C1.0447 37.4345 1.01729 37.411 0.999023 37.3849C0.999023 32.1116 0.999023 26.8384 0.999023 21.5664L1.00163 21.5677Z" fill="black" stroke="#1E4854"/>
<path d="M1 9.75278C1.1579 9.45265 1.40845 9.27779 1.71641 9.13555C3.29278 8.41131 4.8574 7.66227 6.43376 6.93803C6.67909 6.82581 6.75608 6.69792 6.75999 6.43172C6.76913 5.68529 6.67387 4.93495 6.84482 4.19505C7.22455 2.55083 8.66651 1.36073 10.3577 1.35942C17.6301 1.35029 24.9039 1.34768 32.1763 1.35942C34.135 1.36334 35.7218 2.91752 35.7662 4.87101C35.804 6.51393 35.7818 8.15815 35.7779 9.80107C35.7766 10.3452 35.4699 10.6819 35.0145 10.6832C34.563 10.6832 34.2302 10.3413 34.225 9.8102C34.2133 8.28081 34.2237 6.75143 34.2198 5.22073C34.2159 3.75398 33.382 2.91621 31.927 2.91621C24.8164 2.91621 17.7071 2.91621 10.5965 2.91621C9.1663 2.91621 8.31809 3.7579 8.31157 5.17898C8.30896 5.65136 8.30113 6.12245 8.31287 6.59483C8.33245 7.38171 7.9762 7.93239 7.27414 8.26254C6.21845 8.76103 5.16014 9.25169 4.10184 9.74626C4.01441 9.78671 3.92959 9.83499 3.78865 9.90807C4.87828 10.327 5.91701 10.7237 6.95574 11.1243C8.01404 11.5327 8.31026 11.9686 8.31026 13.1078C8.31026 14.1008 8.31287 15.0926 8.31026 16.0856C8.30765 16.6951 8.01404 17.063 7.53513 17.0722C7.04839 17.0826 6.75347 16.7264 6.75217 16.1104C6.74825 15.1174 6.73912 14.1243 6.75869 13.1326C6.76521 12.8298 6.68561 12.6824 6.38548 12.5701C4.85087 12.0012 3.32931 11.397 1.79732 10.8189C1.46978 10.6976 1.19835 10.5266 1 10.2408V9.75278Z" fill="black" stroke="#1E4854"/>
<path d="M13.0525 12.7933C12.9234 11.6045 13.4205 10.8372 14.5115 10.37C15.3858 9.99548 15.7786 9.0233 15.5293 8.1268C15.3049 7.31905 14.4527 6.70442 13.615 6.74357C12.7093 6.78663 11.9708 7.44432 11.8024 8.363C11.7815 8.47392 11.7737 8.58875 11.758 8.70098C11.6954 9.16945 11.3718 9.47089 10.9581 9.44871C10.5249 9.42522 10.213 9.06505 10.2091 8.58353C10.196 7.04501 11.4527 5.54433 12.9899 5.25855C14.762 4.92971 16.448 5.90971 16.9935 7.58526C17.5402 9.26602 16.7625 11.0512 15.113 11.808C14.7059 11.9959 14.5441 12.2334 14.5911 12.6667C14.6185 12.9238 14.6054 13.1874 14.5885 13.447C14.5584 13.8829 14.3157 14.1321 13.8812 14.1687C13.4584 14.2039 13.1217 13.9416 13.0604 13.5084C13.0264 13.2696 13.0539 13.0216 13.0539 12.7933H13.0525Z" fill="black" stroke="#1E4854"/>
<path d="M24.9236 5.82233C26.4347 5.82233 27.9471 5.81972 29.4582 5.82233C30.0859 5.82363 30.4447 6.09767 30.4591 6.57006C30.4735 7.05811 30.0846 7.38173 29.4543 7.38173C26.4308 7.38434 23.4085 7.38565 20.385 7.38173C19.6359 7.38173 19.1988 6.85845 19.4559 6.28428C19.6255 5.90454 19.953 5.8158 20.3393 5.81841C21.8674 5.82494 23.3955 5.82102 24.9223 5.82102L24.9236 5.82233Z" fill="#010101" stroke="#1E4854"/>
<path d="M24.925 10.8593C23.4621 10.8593 21.9993 10.8593 20.5365 10.8593C20.3746 10.8593 20.2102 10.8632 20.0497 10.8398C19.636 10.7771 19.4116 10.5031 19.3946 10.1103C19.3764 9.71229 19.5904 9.42781 19.9962 9.33777C20.1528 9.30254 20.3185 9.29993 20.4803 9.29863C23.4386 9.29602 26.3969 9.29732 29.3552 9.29863C29.4844 9.29863 29.6162 9.29602 29.7441 9.31429C30.1786 9.37953 30.4736 9.71099 30.4579 10.1038C30.4435 10.5044 30.1382 10.811 29.7023 10.8515C29.5575 10.8646 29.41 10.8606 29.2639 10.8606C27.8167 10.8606 26.3708 10.8606 24.9237 10.8606L24.925 10.8593Z" fill="#010101" stroke="#1E4854"/>
<path d="M13.452 29.1847C12.2984 29.1847 11.1448 29.1873 9.99127 29.1847C9.41188 29.1821 9.07259 28.8924 9.07129 28.4134C9.07129 27.9332 9.41318 27.6292 9.98344 27.6292C12.2749 27.6253 14.5664 27.6266 16.8579 27.6292C17.4242 27.6292 17.7791 27.9358 17.7844 28.4056C17.7883 28.8767 17.4346 29.1834 16.8657 29.1847C15.7278 29.1886 14.5912 29.1847 13.4533 29.1847H13.452Z" fill="black" stroke="#1E4854"/>
<path d="M13.4163 32.6818C12.2628 32.6818 11.1092 32.6818 9.95693 32.6818C9.56545 32.6818 9.24835 32.537 9.11525 32.1494C8.99911 31.8127 9.08654 31.5087 9.37232 31.2777C9.53283 31.1472 9.72204 31.1211 9.9217 31.1211C12.2601 31.1211 14.5999 31.1172 16.9383 31.125C17.4421 31.1263 17.7735 31.4408 17.7826 31.878C17.7918 32.3229 17.4381 32.674 16.924 32.6805C15.7548 32.6935 14.5855 32.6844 13.415 32.6844L13.4163 32.6818Z" fill="black" stroke="#1E4854"/>
<path d="M13.4024 25.694C12.2814 25.694 11.1605 25.6966 10.0396 25.6927C9.40927 25.6901 9.06999 25.4148 9.07129 24.9228C9.07129 24.4321 9.42232 24.1346 10.0343 24.1333C12.2932 24.1294 14.5507 24.1294 16.8096 24.1333C17.4125 24.1333 17.7818 24.4387 17.7844 24.9176C17.7883 25.4004 17.4333 25.6901 16.8148 25.6927C15.6782 25.6979 14.5403 25.694 13.4024 25.6927V25.694Z" fill="#010101" stroke="#1E4854"/>
<path d="M5.16935 28.4538C5.16935 27.3968 5.16544 26.3398 5.17066 25.2841C5.17457 24.7021 5.46427 24.3615 5.93796 24.3563C6.41296 24.351 6.73658 24.6995 6.73789 25.2645C6.74441 27.3942 6.74441 29.5238 6.73789 31.6535C6.73658 32.2159 6.41687 32.5813 5.95623 32.5878C5.49167 32.5943 5.17327 32.2381 5.16935 31.673C5.16152 30.6004 5.16674 29.5264 5.16674 28.4538H5.16935Z" fill="black" stroke="#1E4854"/>
<path d="M11.7859 36.1596C11.1687 36.1596 10.5527 36.17 9.93549 36.1557C9.39133 36.1426 9.07031 35.8399 9.07031 35.3766C9.07031 34.9147 9.39133 34.608 9.94071 34.6028C11.1739 34.5898 12.407 34.5911 13.6402 34.6028C14.1857 34.608 14.5276 34.9134 14.5393 35.3584C14.5511 35.8216 14.1974 36.1466 13.635 36.1583C13.0191 36.17 12.4018 36.1609 11.7846 36.1609L11.7859 36.1596Z" fill="#010101" stroke="#1E4854"/>
<path d="M21.9748 14.3489C21.4058 14.3489 20.8369 14.3554 20.2679 14.3476C19.7434 14.3397 19.3897 14.0213 19.3858 13.5737C19.3806 13.1288 19.7368 12.7947 20.2601 12.7908C21.4306 12.7817 22.5999 12.7817 23.7704 12.7908C24.2754 12.7947 24.6069 13.1027 24.6225 13.5411C24.6382 13.9992 24.2976 14.3371 23.7795 14.3463C23.1779 14.358 22.5764 14.3489 21.9761 14.3489H21.9748Z" fill="black" stroke="#1E4854"/>
<path d="M5.17191 35.0046C5.17583 34.5296 5.49293 34.1798 5.93139 34.1694C6.37768 34.159 6.74306 34.5413 6.74175 35.0176C6.74175 35.503 6.38942 35.8541 5.91964 35.8397C5.46552 35.8254 5.168 35.4939 5.17191 35.0046Z" fill="#020202" stroke="#1E4854"/>
<path d="M14.5936 15.6445C14.591 16.1129 14.2543 16.4744 13.8224 16.4705C13.3982 16.4666 13.0394 16.0855 13.0381 15.6392C13.0381 15.1864 13.3865 14.825 13.8263 14.825C14.2765 14.825 14.5962 15.1655 14.5936 15.6445Z" fill="#020202" stroke="#1E4854"/>
<path d="M50.8936 25.2634C50.2815 20.1128 47.7291 16.2306 43.0274 13.9561C38.8607 11.9413 34.4944 11.8682 30.1085 13.1836C24.8026 14.7743 20.8134 19.6496 20.3593 25.1629C20.0801 28.5532 20.2875 31.9604 20.2654 35.3597C20.2601 36.0905 20.7534 36.6386 21.4672 36.6516C22.8622 36.679 24.3185 36.9478 25.5386 35.8726C25.6039 36.0618 25.6508 36.1936 25.6952 36.328C26.4442 38.6064 27.6435 40.6095 29.379 42.2694C31.0089 43.8275 32.8959 44.8832 35.2004 45.0058C37.8207 45.1455 39.966 44.0637 41.8203 42.3177C43.6081 40.6343 44.8152 38.579 45.5681 36.251C45.6542 35.9848 45.6934 35.8478 45.9935 36.0853C46.3772 36.3893 46.8352 36.5759 47.3324 36.6203C47.5607 36.6412 47.626 36.7364 47.6116 36.9661C47.5699 37.6329 47.502 38.2958 47.3741 38.9496C46.5129 43.3251 44.0348 46.3238 39.8068 47.8336C39.5328 47.9315 39.3762 47.9733 39.2535 47.6027C39.0343 46.9371 38.5123 46.5796 37.8076 46.5718C36.3435 46.5561 34.8794 46.5522 33.4152 46.5718C32.5422 46.5835 31.8937 47.2542 31.8597 48.1312C31.8441 48.537 31.8832 48.9467 31.8506 49.3513C31.771 50.3456 32.2042 50.9968 33.1203 51.3491H38.1978C38.7798 51.0333 39.3201 50.6601 39.354 49.9281C39.3683 49.5992 39.5119 49.5418 39.7742 49.4648C42.1322 48.7693 44.1718 47.5505 45.8173 45.7105C47.977 43.2951 48.9505 40.4046 49.1462 37.218C49.1697 36.8395 49.2206 36.6581 49.6839 36.6555C50.4969 36.6516 50.9823 36.0866 50.9875 35.2619C50.9953 34.0744 51.0032 32.8869 50.9875 31.6994C50.9562 29.5528 51.148 27.397 50.8949 25.2621L50.8936 25.2634ZM37.7346 49.7167C37.4958 49.9685 36.9346 49.7819 36.5171 49.7858C35.5905 49.7963 34.664 49.7793 33.7375 49.795C33.4792 49.7989 33.3943 49.7206 33.4165 49.4674C33.4544 49.0355 33.2404 48.4757 33.5026 48.2016C33.7441 47.9498 34.3026 48.1455 34.7215 48.1312C35.0294 48.1207 35.3387 48.1286 35.648 48.1286C36.2652 48.1286 36.8837 48.1416 37.501 48.122C37.7646 48.1129 37.8403 48.199 37.8194 48.4509C37.7815 48.8828 37.9955 49.4426 37.7359 49.7167H37.7346ZM25.0297 33.448C25.0245 34.3863 24.4125 35.0635 23.4781 35.1066C22.947 35.1314 22.2789 35.3245 21.9187 35.0309C21.5951 34.7673 21.8274 34.0848 21.8208 33.5889C21.8052 32.451 21.8274 31.3131 21.8091 30.1765C21.8039 29.8594 21.8887 29.7472 22.2136 29.7707C22.6012 29.7994 22.9927 29.7707 23.3829 29.7798C24.3603 29.8033 25.0179 30.474 25.0245 31.4488C25.0271 31.7738 25.0245 32.0987 25.0245 32.4236H25.0323C25.0323 32.7655 25.0336 33.1061 25.0323 33.448H25.0297ZM44.6429 29.0451C44.6455 29.2344 44.5855 29.3061 44.3976 29.3035C43.9591 29.297 43.5207 29.3009 43.0822 29.3009C40.9578 29.2761 38.9221 28.8768 37.0886 27.7363C35.6715 26.8541 34.5897 25.6784 33.9607 24.1138C33.8158 23.7523 33.5927 23.4992 33.1699 23.5161C32.751 23.5331 32.5409 23.7875 32.4274 24.1673C32.1912 24.9646 31.8754 25.7267 31.3678 26.3948C30.2364 27.8864 28.6966 28.3065 26.914 28.086C26.6935 28.0586 26.5982 27.9725 26.5904 27.7128C26.4429 23.3217 30.0211 19.1354 34.3691 18.6304C39.3357 18.0536 43.5468 21.1268 44.5033 26.0294C44.6977 27.0264 44.6299 28.0377 44.6455 29.0451H44.6429ZM39.9817 41.8283C36.9555 44.2672 33.3722 43.9906 30.4856 41.1641C27.9736 38.7043 26.6178 35.7095 26.6165 32.1522C26.6165 31.4527 26.6204 30.752 26.5904 30.0539C26.576 29.7159 26.6504 29.618 27.0132 29.6572C28.5426 29.8216 29.995 29.5945 31.2882 28.6928C32.1742 28.0756 32.7928 27.2313 33.3069 26.2356C35.8137 29.6715 39.2979 30.8342 43.2949 30.8851C43.6525 30.8903 44.01 30.876 44.3676 30.8603C44.5333 30.8538 44.6364 30.8616 44.6442 31.0795C44.8178 35.4132 43.3862 39.084 39.9817 41.8283ZM49.1045 35.1222C48.683 35.1014 48.2602 35.1288 47.8387 35.1131C46.8704 35.0779 46.2088 34.3862 46.2049 33.418C46.201 32.7668 46.2023 32.117 46.2062 31.4658C46.2114 30.5001 46.8835 29.8072 47.8491 29.7811C48.2719 29.7694 48.696 29.7968 49.1175 29.7733C49.3916 29.7576 49.4372 29.8699 49.4333 30.11C49.4203 30.8903 49.4281 31.672 49.4281 32.4523C49.4281 33.2327 49.419 34.0143 49.4333 34.7947C49.4372 35.0479 49.3655 35.1353 49.1058 35.1222H49.1045ZM49.0419 28.2256C48.4259 28.2139 47.8087 28.1708 47.1928 28.2883C46.8574 28.3522 46.5638 28.5271 46.2284 28.6132C46.8626 22.3521 41.6755 16.887 35.5331 16.981C32.4443 17.028 29.854 18.2233 27.7818 20.5004C25.703 22.7854 24.8914 25.527 25.0506 28.6615C24.1136 28.1173 23.1467 28.2217 22.1928 28.2152C22.0061 28.2139 21.8195 28.2726 21.8078 27.9477C21.689 24.7362 22.3585 21.7505 24.3068 19.1289C26.379 16.3403 29.199 14.7522 32.5761 14.1767C35.7393 13.6364 38.8764 13.7995 41.8477 15.1241C46.2493 17.0854 48.6843 20.5382 49.342 25.2856C49.4581 26.1286 49.4033 26.9742 49.4333 27.8185C49.4451 28.1278 49.3707 28.2322 49.0405 28.2256H49.0419Z" fill="black" stroke="#1E4854"/>
<path d="M35.6396 40.7843C34.7301 40.7582 33.9275 40.4489 33.2372 39.8604C32.8757 39.5524 32.8157 39.1179 33.0663 38.7786C33.3325 38.4171 33.7853 38.3414 34.1833 38.6507C35.1568 39.4076 36.1002 39.3932 37.0698 38.6442C37.4587 38.344 37.8789 38.4132 38.1516 38.7512C38.4256 39.0918 38.3708 39.5629 38.0002 39.8721C37.3191 40.4424 36.5322 40.7517 35.6396 40.783V40.7843Z" fill="black" stroke="#1E4854"/>
<path d="M31.7067 32.1885C32.7924 32.182 33.681 32.9963 33.7567 34.0663C33.7906 34.5374 33.5375 34.8923 33.1212 34.9615C32.658 35.0385 32.3265 34.8023 32.2234 34.296C32.1634 34.0037 32.0799 33.744 31.7197 33.7544C31.3648 33.7636 31.2943 34.0089 31.2473 34.3156C31.1768 34.7749 30.818 35.0202 30.373 34.968C29.9593 34.9197 29.7036 34.6131 29.6984 34.1577C29.6866 33.1007 30.6092 32.1963 31.7067 32.1885Z" fill="black" stroke="#1E4854"/>
<path d="M39.5432 32.1886C40.6236 32.2003 41.5201 33.0668 41.5358 34.1147C41.5423 34.6105 41.2944 34.925 40.8624 34.9694C40.4188 35.0151 40.0951 34.7802 39.9986 34.3013C39.9438 34.0298 39.8968 33.7754 39.5601 33.7571C39.2469 33.7388 39.1047 33.9046 39.0473 34.2138C38.9377 34.7958 38.6049 35.0438 38.1142 34.9616C37.668 34.8859 37.4566 34.5388 37.5088 33.9607C37.5975 32.9546 38.4901 32.1781 39.5445 32.1886H39.5432Z" fill="black" stroke="#1E4854"/>
</svg>
