<svg width="50" height="51" viewBox="0 0 50 51" fill="none" xmlns="http://www.w3.org/2000/svg">
<g clip-path="url(#clip0_235_4459)">
<path d="M49.9021 37.3438C49.2328 30.9631 43.408 26.2827 37.0117 27.0068C36.5719 27.0564 36.3671 26.9351 36.1518 26.5488C31.7936 18.6702 27.4159 10.8021 23.0486 2.93001C22.7133 2.32718 22.3323 1.77001 21.7895 1.3355C19.5973 -0.419503 16.5244 0.242049 15.1048 2.79431C11.1681 9.86782 7.22227 16.9374 3.32211 24.0305C2.16342 26.1365 0.769853 28.1264 0 30.4359V31.9C0.0939482 32.478 0.232261 33.0378 0.563689 33.5375C1.52666 34.9872 2.89673 35.6527 4.61259 35.654C11.767 35.6553 18.9227 35.654 26.0771 35.654C26.7648 35.654 26.7674 35.6657 26.6421 36.3429C26.419 37.5473 26.3198 38.7582 26.4947 39.9795C27.1536 44.583 29.6289 47.7968 33.8853 49.6484C34.877 50.0803 35.9247 50.2747 36.9986 50.3517H39.3421C39.53 50.1768 39.7701 50.2708 39.9828 50.2368C46.2616 49.2412 50.5637 43.6526 49.9021 37.3438ZM27.823 32.5837C23.9359 32.5811 20.0488 32.5811 16.163 32.5811C12.3255 32.5811 8.48665 32.5811 4.64913 32.5811C3.17075 32.5811 2.52094 31.4746 3.24121 30.175C8.04431 21.5265 12.8513 12.8781 17.6518 4.22702C17.9598 3.67246 18.3721 3.30189 19.0245 3.29667C19.6769 3.29145 20.1023 3.64897 20.4102 4.20484C24.7306 11.9908 29.0561 19.7741 33.3868 27.5549C33.5395 27.8302 33.5199 27.9385 33.2198 28.0807C31.2169 29.0267 29.6185 30.4464 28.4258 32.311C28.2575 32.5746 28.0709 32.585 27.823 32.585V32.5837ZM38.2539 47.4236C33.4012 47.4184 29.4658 43.4517 29.4828 38.5847C29.4997 33.7594 33.4638 29.8357 38.3074 29.8488C43.1366 29.8618 47.0641 33.8207 47.055 38.6616C47.0445 43.4934 43.0935 47.4275 38.2539 47.4223V47.4236Z" fill="#1E4854"/>
<path d="M20.501 16.4766C20.501 17.4187 20.5062 18.3621 20.4997 19.3042C20.4931 20.2045 19.876 20.8609 19.0435 20.8648C18.2084 20.8687 17.5768 20.2137 17.5742 19.3185C17.5677 17.4174 17.5677 15.5162 17.5742 13.6138C17.5768 12.7239 18.2188 12.0676 19.0539 12.078C19.8681 12.0884 20.4905 12.7343 20.4997 13.5994C20.5088 14.5585 20.5023 15.5176 20.5023 16.4753L20.501 16.4766Z" fill="#1E4854"/>
<path d="M19.0548 23.7957C19.8456 23.8061 20.5045 24.4755 20.5006 25.2662C20.4967 26.0752 19.7999 26.7485 18.9935 26.725C18.2041 26.7015 17.5569 26.0191 17.5725 25.2297C17.5882 24.4389 18.2641 23.7865 19.0548 23.797V23.7957Z" fill="#1E4854"/>
<path d="M40.4346 40.1008C39.7352 40.1008 39.0371 40.1073 38.3377 40.0995C37.4283 40.089 36.8124 39.4758 36.8072 38.5663C36.7993 37.1518 36.8006 35.7374 36.8072 34.323C36.8111 33.4278 37.4452 32.7728 38.2803 32.7793C39.1141 32.7859 39.7274 33.4409 39.7339 34.3438C39.7391 35.1724 39.7469 36.0023 39.7287 36.8309C39.7222 37.1075 39.8031 37.1845 40.0784 37.1792C40.9069 37.161 41.7368 37.1688 42.5654 37.174C43.4696 37.1806 44.1234 37.7938 44.1286 38.6289C44.1338 39.4653 43.4801 40.0916 42.5824 40.1008C41.8673 40.1073 41.1523 40.1021 40.4372 40.1021L40.4346 40.1008Z" fill="#1E4854"/>
</g>
<defs>
<clipPath id="clip0_235_4459">
<rect width="49.97" height="50" fill="white" transform="translate(0 0.351562)"/>
</clipPath>
</defs>
</svg>
