<svg width="53" height="53" viewBox="0 0 53 53" fill="none" xmlns="http://www.w3.org/2000/svg">
<g id="Layer_1">
<path id="Vector" d="M51.2809 7.76271C49.2695 5.7652 47.2637 3.76215 45.269 1.7494C44.9917 1.47078 44.7062 1.35156 44.3111 1.35156C39.8004 1.36265 35.2897 1.35849 30.7791 1.35849C29.5717 1.35849 28.9465 1.99476 28.9451 3.22154C28.9451 6.07294 28.9451 8.92434 28.9451 11.8617C28.7788 11.7854 28.6721 11.7369 28.5667 11.687C25.2066 10.086 21.7092 9.68952 18.0746 10.4893C10.2773 12.2027 4.80042 19.8517 5.74164 27.7364C5.78462 28.0968 5.70422 28.3574 5.51708 28.6443C4.34713 30.4353 3.17441 32.2249 2.03496 34.0352C1.0979 35.524 2.04051 37.2692 3.79543 37.3496C4.29584 37.3732 4.80042 37.4536 5.29529 37.4162C5.8567 37.3732 5.92046 37.6158 5.91353 38.0954C5.88719 40.0305 5.95789 41.9684 5.88581 43.9022C5.82343 45.5573 7.0516 46.7231 8.64572 46.694C10.2856 46.6635 11.9282 46.7355 13.5695 46.7494C13.8398 46.7522 13.9659 46.8145 14.0061 47.1084C14.1614 48.2368 14.3499 49.3596 14.5162 50.4866C14.6258 51.2296 14.7574 51.3529 15.5157 51.3529C21.2878 51.3529 27.0613 51.3529 32.8334 51.3529C33.7497 51.3529 33.9327 51.1353 33.7857 50.2287C33.4336 48.0455 33.1093 45.8595 33.0302 43.6457C32.9124 40.3369 33.4406 37.1861 35.269 34.3388C36.0175 33.173 36.5664 31.9074 36.9282 30.5684C37.0239 30.2135 37.1722 30.0915 37.5562 30.0943C41.6524 30.1109 45.7486 30.1054 49.8448 30.104C51.0064 30.104 51.6538 29.4691 51.6538 28.3283C51.6551 21.7785 51.6524 15.2274 51.6607 8.67759C51.6607 8.30055 51.5429 8.02747 51.2795 7.76548L51.2809 7.76271ZM45.2301 3.53343C46.6704 4.97091 48.0483 6.34602 49.4927 7.78627H47.9221C47.1639 7.78627 46.4042 7.78073 45.646 7.78904C45.3757 7.79182 45.226 7.72251 45.2274 7.41477C45.2357 6.14363 45.2315 4.87249 45.2315 3.53343H45.2301ZM34.257 33.5819C32.2623 36.7951 31.6122 40.2786 31.7965 43.9826C31.8908 45.883 32.1306 47.7669 32.4494 49.6396C32.5174 50.0388 32.4148 50.1192 32.0211 50.1165C29.3762 50.0984 26.7314 50.1068 24.0865 50.1068C21.4417 50.1068 18.7968 50.1012 16.152 50.1137C15.8096 50.1151 15.689 50.0347 15.6432 49.6743C15.5004 48.5279 15.305 47.3871 15.1276 46.2434C15.0388 45.6751 14.8614 45.5268 14.2612 45.5171C12.3954 45.488 10.5282 45.4602 8.66235 45.4339C7.58528 45.4187 7.15002 44.9875 7.14863 43.9257C7.14724 41.6787 7.14863 39.4317 7.14863 37.1847C7.14863 36.4181 6.97674 36.2448 6.21434 36.2129C5.4547 36.1811 4.69507 36.1409 3.93543 36.1062C3.01362 36.0646 2.64073 35.3923 3.13699 34.6174C4.35545 32.7142 5.585 30.8179 6.82149 28.9257C7.01278 28.6332 7.07378 28.3449 7.03774 27.9997C6.41256 22.0225 8.51403 17.193 13.4724 13.837C22.1611 7.95816 33.9659 12.8764 36.0549 23.1702C36.8007 26.8464 36.2462 30.3785 34.2584 33.5806L34.257 33.5819ZM50.4159 28.2146C50.4159 28.6221 50.3424 28.8647 49.8531 28.8633C45.7749 28.8523 41.6967 28.8564 37.6185 28.855C37.5354 28.855 37.4522 28.8356 37.3552 28.8245C37.9055 25.4034 37.4869 22.1334 35.9593 19.0338C34.7131 16.5054 32.9194 14.4386 30.5781 12.8597C30.2925 12.6671 30.1775 12.4647 30.1802 12.1112C30.1969 9.19049 30.1886 6.27116 30.1899 3.35045C30.1899 2.63518 30.2204 2.6033 30.908 2.6033C35.1068 2.6033 39.3055 2.61023 43.5043 2.59082C43.9354 2.58943 43.9992 2.72944 43.9937 3.10787C43.9729 4.52456 43.9826 5.94125 43.9867 7.35794C43.9895 8.44472 44.5634 9.02276 45.6446 9.02692C47.096 9.03246 48.5473 9.04078 49.9986 9.01998C50.3438 9.01444 50.4187 9.11702 50.4173 9.44832C50.4076 15.7028 50.4076 21.9587 50.4145 28.2132L50.4159 28.2146Z" fill="#1E4854" stroke="#1E4854" stroke-width="1.4"/>
<path id="Vector_2" d="M40.3093 11.5582C37.9444 11.5582 35.5796 11.5582 33.2148 11.5596C32.8904 11.5596 32.591 11.5388 32.4371 11.1881C32.2874 10.8471 32.444 10.4783 32.8183 10.3702C32.9957 10.3189 33.1926 10.3161 33.3811 10.3161C37.9902 10.3134 42.5979 10.3134 47.207 10.3134C47.2929 10.3134 47.3803 10.3092 47.4662 10.3134C47.9555 10.3397 48.2633 10.5962 48.2217 10.9746C48.1718 11.4196 47.8751 11.5609 47.4565 11.5596C45.075 11.554 42.6922 11.5568 40.3107 11.5568L40.3093 11.5582Z" fill="#1E4854" stroke="#1E4854" stroke-width="1.4"/>
<path id="Vector_3" d="M41.7297 15.0237C39.9151 15.0237 38.1006 15.0237 36.2847 15.0223C36.1142 15.0223 35.9368 15.0181 35.7732 14.9765C35.4405 14.8906 35.2894 14.648 35.3282 14.3167C35.3643 14.0104 35.5472 13.8163 35.8702 13.7886C35.9728 13.7803 36.0768 13.7803 36.1807 13.7803C39.9138 13.7803 43.6468 13.7803 47.3812 13.7803C47.4851 13.7803 47.5891 13.7775 47.6917 13.7913C48.0119 13.8329 48.1879 14.0381 48.2171 14.3417C48.2462 14.6494 48.0923 14.8837 47.7901 14.9682C47.6113 15.0181 47.4158 15.0223 47.2273 15.0237C45.3948 15.0278 43.5636 15.0264 41.7311 15.0264L41.7297 15.0237Z" fill="#1E4854" stroke="#1E4854" stroke-width="1.4"/>
<path id="Vector_4" d="M42.8527 18.4642C41.3348 18.4642 39.8155 18.4698 38.2976 18.4614C37.7348 18.4587 37.3994 18.0456 37.5879 17.6076C37.7099 17.322 37.9428 17.2166 38.2533 17.218C41.3417 17.2222 44.4302 17.2222 47.5186 17.2194C47.9289 17.2194 48.2034 17.4079 48.2145 17.8155C48.2255 18.2535 47.9358 18.4628 47.5117 18.4628C45.9591 18.467 44.4052 18.4642 42.8527 18.4642Z" fill="#1E4854" stroke="#1E4854" stroke-width="1.4"/>
<path id="Vector_5" d="M43.5317 21.899C42.2356 21.899 40.9395 21.9004 39.6434 21.899C39.1319 21.899 38.8533 21.68 38.8477 21.2933C38.8422 20.9065 39.1305 20.6584 39.624 20.6584C42.2328 20.6542 44.8416 20.6542 47.4518 20.6584C47.9398 20.6584 48.2544 20.919 48.2198 21.2988C48.1754 21.7743 47.858 21.9087 47.4186 21.9046C46.1225 21.8935 44.8264 21.9004 43.5303 21.9004L43.5317 21.899Z" fill="#1E4854" stroke="#1E4854" stroke-width="1.4"/>
<path id="Vector_6" d="M43.8247 24.099C45.0335 24.099 46.2423 24.0934 47.451 24.1018C47.9805 24.1045 48.3118 24.4331 48.2107 24.8434C48.1316 25.165 47.9154 25.3396 47.5744 25.3396C45.0709 25.3396 42.5661 25.341 40.0626 25.3368C39.6731 25.3368 39.4277 25.1178 39.4277 24.7352C39.4277 24.2917 39.7244 24.1004 40.1458 24.099C41.3726 24.0962 42.598 24.099 43.8247 24.099Z" fill="#1E4854" stroke="#1E4854" stroke-width="1.4"/>
<path id="Vector_7" d="M36.2369 6.12146C37.2197 6.12146 38.2011 6.11869 39.1839 6.12146C39.701 6.12423 39.9616 6.33355 39.9644 6.73416C39.9671 7.13338 39.6996 7.3621 39.1923 7.36349C37.1754 7.36765 35.1598 7.36765 33.1429 7.36349C32.6619 7.36349 32.3445 7.09595 32.3819 6.71891C32.4263 6.27949 32.7104 6.11591 33.1346 6.11869C34.1687 6.127 35.2028 6.12146 36.2369 6.12146Z" fill="#1E4854" stroke="#1E4854" stroke-width="1.4"/>
<path id="Vector_8" d="M33.2046 24.0574C33.1977 23.4391 32.901 23.0566 32.3008 22.893C31.8683 22.7765 31.4261 22.7003 30.9881 22.6074C30.0898 22.4161 29.8459 21.8353 30.3421 21.0688C30.5764 20.707 30.8037 20.341 31.0408 19.9806C31.178 19.7727 31.2542 19.5495 31.2459 19.2889C31.2612 18.9673 31.1295 18.6914 30.9021 18.4627C30.209 17.7641 29.5201 17.0585 28.8118 16.3751C28.3488 15.9288 27.8539 15.8899 27.2994 16.2254C26.9307 16.4472 26.5731 16.6912 26.2126 16.9254C25.4364 17.43 24.8694 17.1943 24.6795 16.2905C24.5936 15.8858 24.5062 15.481 24.4064 15.0804C24.2387 14.4039 23.8977 14.0796 23.224 14.0602C22.2398 14.0311 21.2542 14.0311 20.27 14.0602C19.6074 14.0796 19.2387 14.4317 19.0876 15.0846C18.9836 15.5378 18.8838 15.9925 18.7868 16.4486C18.6399 17.1375 18.0091 17.3953 17.4089 17.0072C17.0042 16.7452 16.6063 16.4694 16.1932 16.2199C15.6429 15.8886 15.1439 15.9385 14.6823 16.3862C13.9753 17.0724 13.2767 17.7668 12.5919 18.4738C12.1636 18.916 12.1192 19.4081 12.438 19.9418C12.6931 20.3715 12.9648 20.7929 13.2517 21.2018C13.4333 21.461 13.4749 21.6704 13.3418 21.9947C13.1907 22.3607 12.9953 22.5381 12.6141 22.5908C12.1885 22.6504 11.7685 22.7544 11.3471 22.8472C10.6291 23.0067 10.2867 23.4225 10.2811 24.16C10.2742 25.0762 10.2728 25.9911 10.2811 26.9074C10.2881 27.6171 10.6221 28.0302 11.3152 28.1952C11.7851 28.3061 12.2551 28.4253 12.7319 28.4918C13.0535 28.5362 13.1686 28.7053 13.3058 28.977C13.4915 29.3416 13.4416 29.6008 13.2143 29.9085C12.9371 30.2814 12.6945 30.6806 12.4547 31.0798C12.1206 31.6357 12.1622 32.132 12.6072 32.5908C13.2919 33.2978 13.9906 33.9936 14.6975 34.6784C15.137 35.104 15.6415 35.1553 16.1669 34.8447C16.5523 34.6174 16.9224 34.3624 17.298 34.1184C18.0452 33.6318 18.6232 33.8619 18.8145 34.7255C18.9088 35.1455 18.9933 35.5683 19.0918 35.9884C19.2387 36.6149 19.6074 36.9642 20.2437 36.9809C21.2445 37.0086 22.2481 37.0086 23.2503 36.9823C23.8866 36.9656 24.2429 36.6371 24.4009 35.9925C24.5243 35.4907 24.6282 34.9834 24.7322 34.4774C24.7793 34.2431 24.8971 34.1239 25.1217 34.0033C25.5334 33.7802 25.8439 33.8287 26.1974 34.1059C26.5356 34.3707 26.9113 34.5869 27.28 34.8115C27.8581 35.1636 28.3502 35.1234 28.8339 34.6548C29.5298 33.9825 30.2146 33.2978 30.8855 32.6019C31.3402 32.1292 31.3776 31.6205 31.0255 31.0452C30.7649 30.6182 30.4918 30.1982 30.2104 29.7865C30.0649 29.5731 30.0469 29.3984 30.13 29.1295C30.2686 28.6803 30.5306 28.5043 30.9659 28.4405C31.4247 28.3726 31.8808 28.2686 32.3299 28.1453C32.9052 27.9859 33.1963 27.6088 33.2046 27.0155C33.2185 26.0313 33.2171 25.0457 33.2046 24.0602V24.0574ZM31.9723 26.6343C31.9806 26.8991 31.8822 26.992 31.6424 27.0391C31.117 27.1403 30.5972 27.265 30.0746 27.3773C29.6518 27.4688 29.369 27.7197 29.2096 28.1162C29.2027 28.1328 29.1957 28.148 29.186 28.1619C28.5026 29.2126 28.8034 30.1178 29.5229 31.0299C30.0469 31.6939 29.997 31.7327 29.3995 32.3288C28.9961 32.7322 28.583 33.1259 28.1949 33.5431C28.0161 33.7344 27.8802 33.74 27.6723 33.5944C27.2481 33.2978 26.8059 33.0274 26.3734 32.746C25.9811 32.491 25.575 32.4563 25.1453 32.6532C24.9263 32.753 24.7017 32.8445 24.4744 32.9235C23.9531 33.1051 23.6551 33.4655 23.5539 34.0061C23.4638 34.4802 23.3307 34.9473 23.26 35.4228C23.2199 35.6959 23.0993 35.7569 22.8525 35.7527C22.1275 35.7416 21.4012 35.7375 20.6748 35.7541C20.3976 35.761 20.2742 35.6765 20.2271 35.3951C20.1453 34.903 20.0205 34.4164 19.9207 33.9271C19.8237 33.4475 19.5548 33.1231 19.0904 32.9568C18.8478 32.8694 18.6094 32.7668 18.3751 32.6587C17.9288 32.4522 17.5087 32.4882 17.0998 32.7599C16.6826 33.0358 16.2612 33.3047 15.8398 33.575C15.7538 33.6304 15.6651 33.6817 15.5972 33.7219C15.4461 33.7247 15.3962 33.6194 15.3269 33.55C14.7862 33.015 14.2567 32.4702 13.7078 31.9434C13.5359 31.7771 13.5359 31.6607 13.6704 31.4694C13.967 31.0466 14.2332 30.6016 14.5173 30.1691C14.7876 29.7588 14.8154 29.336 14.6157 28.891C14.5173 28.672 14.4106 28.453 14.333 28.2257C14.168 27.7405 13.8478 27.4508 13.3404 27.3524C12.8497 27.2581 12.3646 27.1347 11.8739 27.0405C11.6216 26.992 11.5024 26.9032 11.5134 26.6094C11.5398 25.8844 11.5398 25.158 11.5134 24.433C11.5037 24.1419 11.6174 24.0477 11.8711 23.9992C12.3784 23.9021 12.8816 23.7774 13.389 23.6762C13.8353 23.5875 14.1278 23.3255 14.2983 22.9152C14.4106 22.6449 14.5173 22.3732 14.6324 22.1029C14.807 21.6912 14.7862 21.2989 14.5423 20.9204C14.2526 20.4713 13.9753 20.0139 13.6717 19.5744C13.5401 19.3845 13.5345 19.2667 13.7092 19.099C14.2567 18.5722 14.796 18.0344 15.3227 17.4868C15.4863 17.3163 15.6083 17.3011 15.8023 17.4355C16.2279 17.7308 16.6701 17.9983 17.1026 18.2839C17.5115 18.5542 17.9315 18.5902 18.3779 18.3851C18.6121 18.277 18.8492 18.173 19.0932 18.0871C19.5589 17.9207 19.8264 17.5963 19.9235 17.1167C20.0261 16.6094 20.1439 16.1062 20.2409 15.5975C20.2839 15.3743 20.3795 15.28 20.6207 15.2842C21.3637 15.298 22.1067 15.2966 22.8497 15.2842C23.0937 15.28 23.2199 15.3341 23.26 15.6099C23.3335 16.1034 23.4624 16.5886 23.5664 17.0779C23.6704 17.57 23.931 17.9235 24.4231 18.0912C24.6504 18.1688 24.8722 18.2659 25.0898 18.3698C25.5722 18.5999 26.02 18.5487 26.458 18.252C26.8434 17.99 27.2564 17.7668 27.6252 17.4854C27.8969 17.2775 28.0549 17.3413 28.2656 17.5658C28.7383 18.069 29.2276 18.5597 29.7322 19.0311C29.947 19.2321 29.9928 19.3734 29.8029 19.6271C29.5132 20.0125 29.2775 20.4367 29.0086 20.8373C28.7244 21.2587 28.6634 21.6884 28.8922 22.1555C29.0058 22.387 29.0932 22.631 29.1874 22.8708C29.3579 23.3019 29.6518 23.5833 30.1203 23.6762C30.611 23.7732 31.0962 23.8924 31.5869 23.9867C31.8572 24.038 31.9931 24.1295 31.9778 24.4525C31.9459 25.1774 31.9543 25.9038 31.975 26.6288L31.9723 26.6343Z" fill="#1E4854" stroke="#1E4854" stroke-width="1.4"/>
<path id="Vector_9" d="M21.7754 19.2432C18.3196 19.2252 15.4668 22.0642 15.4668 25.5227C15.4668 28.9577 18.2766 31.78 21.7241 31.8035C25.1799 31.8285 28.0216 28.9937 28.0202 25.5227C28.0202 22.0669 25.2284 19.2613 21.7754 19.2432ZM21.7449 30.556C18.9614 30.5421 16.7019 28.2743 16.7116 25.5047C16.7213 22.7559 18.9766 20.5005 21.7268 20.4881C24.5076 20.4756 26.7698 22.7268 26.774 25.513C26.7795 28.2979 24.5131 30.5698 21.7435 30.556H21.7449Z" fill="#1E4854" stroke="#1E4854" stroke-width="1.4"/>
<path id="Vector_10" d="M20.6567 26.6995C21.7879 25.5669 22.8705 24.4774 23.9587 23.392C24.3648 22.9858 24.685 22.9429 24.9831 23.2409C25.2783 23.5362 25.2367 23.8675 24.8361 24.2708C23.6412 25.4699 22.4449 26.6676 21.2445 27.8611C20.8175 28.2867 20.5278 28.2839 20.0995 27.8611C19.5215 27.2914 18.949 26.7161 18.3778 26.1394C17.9911 25.7485 17.9481 25.3951 18.2448 25.1123C18.5442 24.8267 18.8699 24.8738 19.2761 25.2814C19.7377 25.7458 20.1896 26.2198 20.6581 26.7008L20.6567 26.6995Z" fill="#1E4854" stroke="#1E4854" stroke-width="1.4"/>
</g>
</svg>
