<svg width="52" height="51" viewBox="0 0 52 51" fill="none" xmlns="http://www.w3.org/2000/svg">
<path d="M43.8025 25.0067C41.7467 25.0067 39.691 25.0094 37.634 25.0053C37.0194 25.0053 36.6933 24.7705 36.6343 24.317C36.5753 23.8594 36.8342 23.4944 37.2958 23.4139C37.4756 23.383 37.6621 23.3871 37.8446 23.3871C41.8232 23.3857 45.8018 23.3871 49.779 23.3871C50.5949 23.3871 50.984 23.6407 50.9988 24.1774C51.0136 24.7329 50.6083 25.0067 49.7697 25.0067C47.781 25.0067 45.7911 25.0067 43.8025 25.0067Z" fill="#1E4854" stroke="#1E4854" stroke-width="0.6"/>
<path d="M43.8131 39.3511C45.8688 39.3511 47.9245 39.3551 49.9816 39.3484C50.4418 39.3471 50.8122 39.4665 50.9678 39.9415C51.102 40.3508 50.8471 40.811 50.4163 40.917C50.2084 40.968 49.9856 40.9694 49.7696 40.9694C45.791 40.972 41.8124 40.972 37.8352 40.972C37.752 40.972 37.6674 40.9747 37.5842 40.972C36.9495 40.9479 36.6114 40.65 36.6275 40.1294C36.6436 39.6329 36.975 39.3565 37.595 39.3551C39.6681 39.3497 41.7399 39.3538 43.8131 39.3538V39.3511Z" fill="#1E4854" stroke="#1E4854" stroke-width="0.6"/>
<path d="M43.8093 7.43519C45.8153 7.43519 47.8214 7.43519 49.8261 7.43519C50.01 7.43519 50.1965 7.43117 50.3749 7.4674C50.7708 7.54925 50.9761 7.82567 50.9922 8.21346C51.0083 8.58247 50.8204 8.86426 50.4648 8.97832C50.2636 9.04273 50.0368 9.04944 49.8221 9.04944C45.81 9.05346 41.7992 9.05346 37.787 9.04944C37.5723 9.04944 37.3442 9.04541 37.1443 8.97832C36.7686 8.85218 36.5955 8.55832 36.6304 8.15979C36.6626 7.78273 36.8746 7.54388 37.2423 7.4674C37.4194 7.43117 37.6072 7.43653 37.7911 7.43653C39.7971 7.43519 41.8032 7.43653 43.8079 7.43653L43.8093 7.43519Z" fill="#1E4854" stroke="#1E4854" stroke-width="0.6"/>
<path d="M42.2632 10.3592C43.8331 10.3592 45.4045 10.3538 46.9744 10.3619C47.6212 10.3645 47.9942 10.7725 47.8869 11.324C47.805 11.7426 47.4682 11.9721 46.8952 11.9721C44.4732 11.9761 42.0498 11.9734 39.6278 11.9734C38.9596 11.9734 38.2913 11.9774 37.6231 11.9721C36.979 11.9667 36.6328 11.6822 36.6261 11.1697C36.6194 10.6504 36.9575 10.3619 37.6016 10.3605C39.1555 10.3551 40.7093 10.3592 42.2632 10.3592Z" fill="#1E4854" stroke="#1E4854" stroke-width="0.6"/>
<path d="M42.2658 42.2762C43.8532 42.2762 45.4407 42.2708 47.0267 42.2802C47.5608 42.2843 47.8815 42.5862 47.8989 43.0451C47.9164 43.5282 47.593 43.8502 47.0442 43.8891C46.9113 43.8985 46.7771 43.8918 46.6429 43.8918C44.2035 43.8918 41.7653 43.8918 39.3258 43.8918C38.7408 43.8918 38.1557 43.8998 37.572 43.8891C36.9682 43.877 36.6314 43.5818 36.626 43.0867C36.6207 42.5835 36.9508 42.2936 37.5546 42.2762C37.6713 42.2722 37.7881 42.2762 37.9048 42.2762C39.358 42.2762 40.8113 42.2762 42.2658 42.2762Z" fill="#1E4854" stroke="#1E4854" stroke-width="0.6"/>
<path d="M42.2632 26.3109C43.7499 26.3109 45.2367 26.3109 46.7235 26.3122C46.906 26.3122 47.0938 26.3082 47.2723 26.3458C47.6614 26.4276 47.8788 26.6826 47.8963 27.0811C47.9124 27.4796 47.7218 27.7574 47.3394 27.8688C47.1676 27.9198 46.9771 27.9238 46.7959 27.9251C43.7714 27.9278 40.7482 27.9278 37.7237 27.9251C37.5586 27.9251 37.3869 27.9225 37.2285 27.8822C36.8179 27.7789 36.6113 27.4984 36.6301 27.0771C36.6489 26.6531 36.8864 26.3995 37.3037 26.3351C37.4996 26.3055 37.7036 26.3109 37.9035 26.3109C39.3567 26.3096 40.8099 26.3109 42.2645 26.3109H42.2632Z" fill="#1E4854" stroke="#1E4854" stroke-width="0.6"/>
<path d="M22.0201 16.9691C22.0402 15.1375 21.2391 13.8439 19.7295 12.91C18.5111 12.1559 17.1438 11.854 15.7617 11.5963C15.2035 11.493 14.6413 11.4125 14.0119 11.3105C14.1837 11.1643 14.2843 11.0784 14.385 10.9925C16.438 9.20919 17.2418 5.65866 16.1616 3.16282C15.2156 0.974262 13.0351 0.134264 10.825 0.398609C8.46069 0.681739 6.96721 2.03164 6.53916 4.18397C6.29763 5.39968 6.34996 6.61271 6.68677 7.80964C7.07725 9.19578 7.80721 10.3632 9.00012 11.3038C8.35335 11.4085 7.77769 11.4877 7.20875 11.5977C5.57706 11.9103 3.97623 12.3062 2.64109 13.3783C1.55822 14.2492 0.997326 15.3643 1.00001 16.7678C1.00672 20.6002 0.998668 24.4311 1.00404 28.2635C1.00806 30.5352 2.4425 32.4111 4.63508 32.9599C5.05776 33.0659 5.12754 33.2364 5.1262 33.6241C5.11412 38.7782 5.11815 43.9322 5.11815 49.0849C5.11815 50.153 5.31271 50.3516 6.3607 50.3516C9.79047 50.3516 13.2216 50.3516 16.6513 50.3516C17.706 50.3516 17.8979 50.1584 17.8979 49.0916C17.8979 43.9041 17.8979 38.7165 17.8952 33.5302C17.8952 33.2659 17.8939 33.0807 18.2374 32.9935C20.6326 32.3843 22.004 30.6184 22.0067 28.1642C22.0107 24.4325 21.9785 20.7008 22.0201 16.9705V16.9691ZM8.01386 5.69623C8.00178 5.2078 8.04472 4.72742 8.17891 4.25777C8.65392 2.60461 10.1796 1.72033 12.0797 1.99675C13.8737 2.25707 14.8144 3.24736 14.9767 5.08435C15.1122 6.61674 14.813 8.04849 13.8455 9.28031C12.5641 10.912 10.5298 10.9294 9.21213 9.32728C8.34664 8.27661 8.02862 7.03271 8.01386 5.69623ZM20.3938 28.3346C20.3924 29.7475 19.6705 30.6895 18.4212 31.2638C17.9315 31.4893 17.8993 31.4584 17.8993 30.9284C17.8993 27.5992 17.8993 24.2688 17.8993 20.9396C17.8993 20.8055 17.9033 20.6713 17.8979 20.5384C17.8765 20.0178 17.5759 19.677 17.1277 19.6595C16.6701 19.6407 16.3199 20.003 16.2877 20.5344C16.2783 20.6847 16.2864 20.835 16.2864 20.9866C16.2864 30.0548 16.2823 39.123 16.2971 48.1926C16.2971 48.6555 16.175 48.7723 15.7255 48.7548C14.7902 48.7186 13.8509 48.7226 12.9156 48.7548C12.5238 48.7683 12.4554 48.6421 12.4567 48.2785C12.4701 44.1791 12.4648 40.0798 12.4648 35.9804C12.4648 35.8462 12.4661 35.7121 12.4648 35.5792C12.4567 34.9499 12.1561 34.5863 11.653 34.5943C11.1565 34.6024 10.8559 34.9754 10.8546 35.6047C10.8519 39.8047 10.8478 44.0033 10.8626 48.2033C10.8639 48.6207 10.7995 48.7763 10.3326 48.7562C9.28056 48.7132 8.22453 48.7213 7.17118 48.7535C6.77533 48.7656 6.71763 48.6368 6.71763 48.2798C6.72971 43.6786 6.72568 39.0774 6.72568 34.4762C6.72568 29.8911 6.72568 25.3074 6.72568 20.7223C6.72568 20.4713 6.74313 20.2177 6.57137 20.0044C6.35533 19.7347 6.08562 19.6045 5.7354 19.6917C5.3892 19.7776 5.19195 20.0097 5.12754 20.3492C5.09936 20.4955 5.11815 20.6498 5.11815 20.8001C5.11815 24.1628 5.11815 27.5268 5.11815 30.8895C5.11815 31.4745 5.09131 31.5013 4.55189 31.245C3.32812 30.6654 2.62231 29.7167 2.61828 28.3359C2.60755 24.4714 2.61828 20.6055 2.61157 16.741C2.61023 15.7078 3.08524 14.9577 3.92122 14.4035C4.94639 13.7218 6.12185 13.4548 7.29999 13.2186C10.6721 12.545 14.016 12.702 17.329 13.6078C17.7973 13.7353 18.2481 13.911 18.6762 14.1378C19.8195 14.743 20.426 15.6273 20.4099 16.9906C20.3669 20.7719 20.3978 24.5532 20.3924 28.3346H20.3938Z" fill="#1E4854" stroke="#1E4854" stroke-width="0.6"/>
<path d="M36.4022 36.603C36.0493 36.2353 35.5622 36.289 35.0925 36.7519C34.8188 37.0216 34.537 37.286 34.2807 37.5718C34.1237 37.7462 34.0244 37.765 33.8513 37.5839C33.4085 37.1236 32.8463 36.9586 32.2143 36.9679C31.4279 36.9814 30.6416 36.9706 29.8553 36.972C29.0354 36.972 28.2156 36.9639 27.3957 36.9747C26.0914 36.9908 25.2058 37.8898 25.2018 39.1994C25.1977 40.7721 25.1991 42.3447 25.2018 43.9174C25.2018 45.3854 26.0579 46.2549 27.5312 46.2643C29.0703 46.275 30.6094 46.275 32.1499 46.2643C33.6487 46.2549 34.5102 45.3854 34.5155 43.8905C34.5196 42.6185 34.529 41.3477 34.5088 40.0757C34.5035 39.7268 34.6081 39.4839 34.8617 39.2504C35.3408 38.809 35.7916 38.3353 36.2506 37.871C36.7121 37.404 36.7618 36.9733 36.4049 36.6016L36.4022 36.603ZM32.8959 44.018C32.8919 44.4421 32.6759 44.6567 32.2384 44.6554C30.651 44.65 29.0623 44.65 27.4749 44.6554C27.0159 44.6554 26.8039 44.4407 26.8053 43.9831C26.8093 42.4118 26.8106 40.8405 26.8053 39.2692C26.8039 38.8197 26.9904 38.5835 27.4601 38.5849C29.0475 38.5902 30.6363 38.5889 32.2237 38.5849C32.4746 38.5849 32.7148 38.6211 32.8127 38.868C32.9013 39.0881 32.6584 39.178 32.5403 39.2987C31.7782 40.073 30.9999 40.8325 30.2431 41.6107C30.0512 41.808 29.9385 41.8402 29.7386 41.6201C29.391 41.2364 29.0153 40.8781 28.6409 40.5198C28.2384 40.1334 27.7835 40.1132 27.4426 40.4474C27.1045 40.7801 27.1152 41.2552 27.495 41.6443C28.1015 42.2669 28.7161 42.8815 29.3373 43.4893C29.7855 43.9268 30.1908 43.9228 30.643 43.4759C31.3662 42.7607 32.0774 42.0348 32.8973 41.2095C32.8973 42.2575 32.9026 43.1391 32.8946 44.0207L32.8959 44.018Z" fill="#1E4854" stroke="#1E4854" stroke-width="0.6"/>
<path d="M36.3995 4.67906C36.0788 4.34628 35.5903 4.3597 35.1998 4.72871C34.8845 5.02794 34.5745 5.33254 34.2807 5.6519C34.1264 5.81964 34.0297 5.8505 33.854 5.66801C33.4125 5.20909 32.8543 5.03734 32.2209 5.04807C31.436 5.06149 30.6496 5.05076 29.8646 5.0521C29.0622 5.0521 28.2598 5.04673 27.4587 5.0521C26.0887 5.06283 25.2044 5.94979 25.2017 7.31177C25.199 8.88308 25.199 10.4544 25.2017 12.0243C25.2031 13.4548 26.0645 14.3337 27.5043 14.3457C29.0756 14.3592 30.6469 14.3605 32.2169 14.3457C33.642 14.3323 34.5074 13.4427 34.5142 12.0082C34.5195 10.7053 34.5235 9.40103 34.5101 8.0981C34.5074 7.8096 34.5826 7.59759 34.7959 7.39631C35.3179 6.90251 35.8238 6.39126 36.3243 5.87599C36.7202 5.46941 36.7403 5.02929 36.4021 4.67906H36.3995ZM32.8959 12.0955C32.8932 12.5208 32.6758 12.7369 32.2397 12.7355C30.651 12.7315 29.0636 12.7315 27.4748 12.7355C27.0172 12.7355 26.8025 12.5222 26.8039 12.0633C26.8093 10.492 26.8025 8.92065 26.8079 7.34934C26.8093 6.83944 26.9877 6.66903 27.5084 6.66768C29.0797 6.66366 30.651 6.66768 32.2223 6.66366C32.4732 6.66366 32.7121 6.70257 32.8114 6.94813C32.9013 7.16819 32.6597 7.2581 32.5403 7.37886C31.7781 8.15311 30.9999 8.9126 30.243 9.69087C30.0512 9.88812 29.9371 9.92033 29.7372 9.69892C29.3896 9.31515 29.0153 8.95554 28.6409 8.59726C28.237 8.21081 27.7834 8.18934 27.4426 8.52615C27.1058 8.85758 27.1165 9.33394 27.4963 9.72308C28.1028 10.3457 28.7174 10.9603 29.3386 11.5681C29.7868 12.0069 30.1894 12.0029 30.6443 11.5534C31.3675 10.8382 32.0787 10.1109 32.8986 9.28429C32.8986 10.3323 32.9026 11.2139 32.8972 12.0955H32.8959Z" fill="#1E4854" stroke="#1E4854" stroke-width="0.6"/>
<path d="M36.3952 20.6376C36.0812 20.3183 35.5955 20.3183 35.2305 20.6604C34.9004 20.9691 34.577 21.2857 34.2751 21.6212C34.1087 21.805 34.0134 21.7903 33.8471 21.6212C33.415 21.1797 32.8715 21.0026 32.257 21.0093C31.4532 21.0174 30.6508 21.0107 29.847 21.012C29.0271 21.012 28.2073 20.9999 27.3874 21.0147C26.0791 21.0388 25.2029 21.9379 25.1988 23.2475C25.1948 24.8376 25.1961 26.4264 25.1988 28.0165C25.2015 29.416 26.0751 30.2963 27.4853 30.3043C29.058 30.3137 30.6306 30.3124 32.2046 30.3043C33.6297 30.2963 34.5046 29.412 34.5113 27.9762C34.518 26.6706 34.5207 25.3663 34.5072 24.0607C34.5046 23.7708 34.581 23.5602 34.7931 23.3589C35.3271 22.8517 35.8477 22.331 36.3563 21.7997C36.7226 21.4172 36.724 20.9758 36.3952 20.639V20.6376ZM32.8984 28.0178C32.8984 28.4619 32.6984 28.6941 32.2274 28.6914C30.64 28.6834 29.0513 28.686 27.4639 28.6901C26.9983 28.6901 26.8037 28.4606 26.805 28.0084C26.8104 26.4371 26.809 24.8658 26.805 23.2945C26.805 22.8396 27.009 22.6182 27.4719 22.6195C29.0593 22.6249 30.6481 22.6236 32.2355 22.6195C32.4663 22.6195 32.685 22.6544 32.795 22.8718C32.9265 23.1308 32.6541 23.2167 32.5307 23.3428C31.7833 24.1076 31.0104 24.8497 30.2724 25.6226C30.0375 25.8695 29.906 25.8453 29.694 25.6119C29.3572 25.2415 28.9963 24.8926 28.6326 24.5464C28.2314 24.1653 27.7698 24.1506 27.4344 24.4914C27.1016 24.8282 27.1204 25.2952 27.5041 25.6883C28.0999 26.2975 28.7024 26.9014 29.3103 27.4985C29.7826 27.9628 30.1838 27.9668 30.6521 27.5025C31.3727 26.79 32.0825 26.0654 32.897 25.2455C32.897 26.2814 32.8984 27.1483 32.897 28.0151L32.8984 28.0178Z" fill="#1E4854" stroke="#1E4854" stroke-width="0.6"/>
</svg>
