<svg width="37" height="38" viewBox="0 0 37 38" fill="none" xmlns="http://www.w3.org/2000/svg">
<path opacity="0.1" fill-rule="evenodd" clip-rule="evenodd" d="M18.5 36.3516C28.165 36.3516 36 28.5165 36 18.8516C36 9.18658 28.165 1.35156 18.5 1.35156C8.83502 1.35156 1 9.18658 1 18.8516C1 28.5165 8.83502 36.3516 18.5 36.3516Z" stroke="#0A142F" stroke-width="1.5"/>
<path d="M24.2202 15.6162C24.139 15.5245 24.0081 15.5014 23.9007 15.558C23.8339 15.5932 23.7083 15.6393 23.5592 15.6849C23.7473 15.4277 23.8985 15.1397 23.9653 14.8809C23.9942 14.7693 23.952 14.6517 23.8601 14.5852C23.7682 14.5192 23.6458 14.5192 23.5539 14.5852C23.4091 14.6891 22.7102 15.0012 22.2683 15.1024C21.2696 14.2026 20.1074 14.1092 18.8992 14.8347C17.9171 15.4244 17.7034 16.6237 17.7451 17.3547C15.4971 17.1321 14.0998 15.9108 13.3132 14.9001C13.2582 14.8292 13.1695 14.7918 13.0861 14.7973C12.9985 14.8039 12.9194 14.8539 12.8745 14.9314C12.5026 15.5772 12.3995 16.2912 12.5774 16.9963C12.6747 17.381 12.8446 17.7201 13.0418 17.9949C12.9472 17.9471 12.8558 17.8872 12.7698 17.8158C12.6907 17.7487 12.5801 17.7361 12.4866 17.7806C12.3936 17.8262 12.3343 17.9229 12.3343 18.029C12.3343 19.2398 13.0706 20.0477 13.7583 20.4698C13.6472 20.4561 13.5312 20.4308 13.4142 20.394C13.3138 20.3627 13.2048 20.394 13.1353 20.4753C13.0658 20.5561 13.0493 20.6715 13.0926 20.7699C13.4789 21.6487 14.2109 22.2533 15.1166 22.4726C14.3258 22.9502 13.2673 23.1843 12.298 23.0695C12.1724 23.0513 12.0527 23.1332 12.0132 23.2574C11.9736 23.3817 12.0255 23.518 12.1361 23.5817C13.6066 24.4309 14.936 24.7342 16.0849 24.7342C17.7568 24.7342 19.0472 24.0923 19.8327 23.5553C21.9503 22.1099 23.2701 19.5146 23.0863 17.1925C23.4256 16.9348 23.9333 16.4588 24.248 15.9471C24.3132 15.8438 24.3014 15.7075 24.2202 15.6162Z" fill="#1E4854"/>
</svg>
