<svg width="60" height="60" viewBox="0 0 60 60" fill="none" xmlns="http://www.w3.org/2000/svg">
<path d="M45.002 39.5922C48.6418 41.4206 51.7624 44.3549 54.0401 48.0241C54.4912 48.7507 54.7167 49.114 54.7947 49.6171C54.9532 50.6394 54.254 51.8963 53.3019 52.3009C52.8333 52.5 52.3062 52.5 51.252 52.5M40.002 28.8306C43.7063 26.9897 46.252 23.1672 46.252 18.75C46.252 14.3328 43.7063 10.5103 40.002 8.6694M35.002 18.75C35.002 24.9632 29.9652 30 23.752 30C17.5388 30 12.502 24.9632 12.502 18.75C12.502 12.5368 17.5388 7.5 23.752 7.5C29.9652 7.5 35.002 12.5368 35.002 18.75ZM6.40011 47.3459C10.3859 41.3614 16.6755 37.5 23.752 37.5C30.8286 37.5 37.1182 41.3614 41.104 47.3459C41.9771 48.6569 42.4137 49.3124 42.3635 50.1498C42.3243 50.8018 41.8969 51.6 41.3759 51.994C40.7068 52.5 39.7866 52.5 37.9461 52.5H9.55793C7.71746 52.5 6.79723 52.5 6.12813 51.994C5.60715 51.6 5.17975 50.8018 5.14062 50.1498C5.09035 49.3124 5.52694 48.6569 6.40011 47.3459Z" stroke="#9FE2D9" stroke-width="2" stroke-linecap="round" stroke-linejoin="round"/>
</svg>
