<svg width="59" height="51" viewBox="0 0 59 51" fill="none" xmlns="http://www.w3.org/2000/svg">
<g clip-path="url(#clip0_235_4470)">
<path d="M51.6972 0.351318C36.6917 0.351318 21.6861 0.351318 6.6527 0.351318C2.61595 0.351318 -0.000976562 2.99608 -0.000976562 7.03283C-0.000976562 19.2266 -0.000976562 31.4482 -0.000976562 43.6698C-0.000976562 47.7066 2.64379 50.3513 6.6527 50.3513C14.1694 50.3513 21.6583 50.3513 29.175 50.3513C36.6917 50.3513 44.1805 50.3513 51.6972 50.3513C55.6783 50.3513 58.3231 47.7066 58.3231 43.6976C58.3231 31.476 58.3231 19.2266 58.3231 7.00499C58.3231 2.99608 55.6783 0.351318 51.6972 0.351318ZM4.17497 6.94931C4.17497 5.30677 4.95448 4.49943 6.59702 4.49943C21.6583 4.49943 36.7195 4.49943 51.7529 4.49943C53.3398 4.49943 54.175 5.30677 54.175 6.89363C54.175 15.6074 54.175 24.3491 54.175 33.0629C54.175 33.5919 54.0358 33.6754 53.5347 33.6754C45.4055 33.6754 37.2763 33.6754 29.1193 33.6754C20.9623 33.6754 12.9445 33.6754 4.84312 33.6754C4.25849 33.6754 4.14713 33.5362 4.14713 32.9794C4.14713 24.2934 4.14713 15.6353 4.14713 6.94931H4.17497ZM54.1471 43.9204C54.1471 45.3402 53.2841 46.1754 51.8643 46.1754C36.7195 46.1754 21.5747 46.1754 6.42998 46.1754C4.98232 46.1754 4.14713 45.3123 4.14713 43.8647C4.14713 42.0551 4.14713 40.2734 4.14713 38.4638C4.14713 37.9627 4.28633 37.8235 4.78744 37.8235C12.9166 37.8235 21.0458 37.8235 29.2028 37.8235C37.3598 37.8235 45.4333 37.8235 53.5347 37.8235C54.0079 37.8235 54.2028 37.907 54.175 38.436C54.1471 40.2455 54.175 42.0829 54.175 43.8925L54.1471 43.9204Z" fill="#1E4854" stroke="#F3F6F6"/>
<path d="M26.0293 16.8326C24.8043 18.0575 23.6629 19.1989 22.5215 20.3682C21.9647 20.925 21.3522 21.2034 20.5448 21.2034C17.2598 21.2034 13.9468 21.2034 10.6618 21.2034C9.29763 21.2034 8.32324 20.3403 8.32324 19.1432C8.32324 17.9183 9.26979 17.0553 10.6339 17.0553C13.5293 17.0553 16.4524 17.0553 19.3477 17.0553C19.7932 17.0553 20.0994 16.9161 20.4056 16.6098C22.076 14.9116 23.7464 13.2691 25.4168 11.5987C26.7809 10.2346 28.5905 10.7078 29.1195 12.5452C29.9546 15.4127 30.762 18.2802 31.5693 21.1477C31.625 21.3147 31.5972 21.5096 31.7921 21.621C32.321 20.5631 32.8778 19.5052 33.3789 18.4194C33.8244 17.4729 34.5482 17.0274 35.6061 17.0274C39.615 17.0274 43.6239 17.0274 47.6328 17.0274C48.997 17.0274 49.9435 17.8905 49.9435 19.1432C49.9435 20.3403 48.997 21.2034 47.6607 21.2034C44.1807 21.2034 40.6729 21.2034 37.193 21.2034C36.8032 21.2034 36.5805 21.3147 36.4134 21.6767C35.3555 23.8203 34.2698 25.964 33.2119 28.1076C32.7108 29.1377 31.9591 29.6109 31.0126 29.5274C30.066 29.4439 29.4257 28.8314 29.1195 27.7457C28.1172 24.2657 27.115 20.7579 26.1128 17.278C26.0849 17.1666 26.0571 17.0831 25.9736 16.8882L26.0293 16.8326Z" fill="#1E4854" stroke="#F3F6F6"/>
<path d="M14.5588 39.9392C15.6724 39.9392 16.6468 40.8579 16.6746 41.9715C16.7024 43.1129 15.7559 44.0873 14.6145 44.1152C13.5009 44.1152 12.5265 43.1964 12.4987 42.0829C12.4708 40.9136 13.3895 39.967 14.5588 39.9392Z" fill="#1E4854" stroke="#F3F6F6"/>
<path d="M45.8239 41.9994C45.8239 43.1409 44.8773 44.1153 43.7359 44.1153C42.6223 44.1153 41.6758 43.1687 41.6758 42.0551C41.6758 40.8859 42.6223 39.9393 43.7638 39.9672C44.8773 39.9672 45.8239 40.9137 45.8239 42.0273V41.9994Z" fill="#1E4854" stroke="#F3F6F6"/>
</g>
<defs>
<clipPath id="clip0_235_4470">
<rect width="58.3241" height="50" fill="white" transform="translate(0 0.351562)"/>
</clipPath>
</defs>
</svg>
