<svg width="51" height="50" viewBox="0 0 51 50" fill="none" xmlns="http://www.w3.org/2000/svg">
<g id="Layer_1" clip-path="url(#clip0_235_4917)">
<path id="Vector" d="M17.8848 6.96358C17.8848 6.56499 17.8848 6.1664 17.8848 5.75608C17.9082 4.95889 18.4709 4.37273 19.2095 4.38445C19.9363 4.38445 20.4991 4.95889 20.5108 5.72091C20.5225 6.57671 20.5225 7.43252 20.5108 8.28832C20.4991 9.06206 19.9363 9.62478 19.2212 9.6365C18.4827 9.6365 17.9082 9.06206 17.8965 8.26487C17.8965 7.83111 17.8965 7.38562 17.8965 6.95186L17.8848 6.96358Z" fill="#1E4854"/>
<path id="Vector_2" d="M24.026 7.01048C24.026 6.57672 24.0143 6.13123 24.026 5.69747C24.0612 4.9589 24.6122 4.4079 25.3039 4.39618C26.0307 4.38446 26.6286 4.93545 26.6403 5.69747C26.6638 6.58844 26.6638 7.47942 26.6403 8.38211C26.6169 9.10896 26.0307 9.65995 25.3391 9.65995C24.6357 9.65995 24.0612 9.10896 24.026 8.38211C24.0026 7.9249 24.026 7.46769 24.026 7.01048Z" fill="#1E4854"/>
<path id="Vector_3" d="M30.1589 7.01048C30.1589 6.57672 30.1471 6.13123 30.1589 5.69747C30.194 4.9589 30.745 4.4079 31.4367 4.39618C32.1635 4.38446 32.7614 4.93545 32.7732 5.69747C32.7966 6.58844 32.7966 7.47942 32.7732 8.38211C32.7497 9.10896 32.1635 9.65995 31.4719 9.65995C30.7685 9.65995 30.194 9.10896 30.1589 8.38211C30.1354 7.9249 30.1589 7.46769 30.1589 7.01048Z" fill="#1E4854"/>
<path id="Vector_4" d="M20.5088 14.0562C20.5088 14.49 20.5206 14.9355 20.5088 15.3692C20.4737 16.1312 19.8875 16.6822 19.1724 16.6705C18.4807 16.6588 17.9063 16.0961 17.8945 15.3575C17.8711 14.4783 17.8711 13.6107 17.8945 12.7315C17.9063 11.9695 18.4924 11.4067 19.2076 11.4067C19.9344 11.4067 20.4854 11.9695 20.5206 12.7432C20.5323 13.177 20.5206 13.6224 20.5206 14.0562H20.5088Z" fill="#1E4854"/>
<path id="Vector_5" d="M24.026 14.0562C24.026 13.6224 24.026 13.177 24.026 12.7432C24.0495 11.9812 24.6122 11.4067 25.3273 11.4067C26.0542 11.4067 26.6286 11.9695 26.6403 12.7315C26.6638 13.6107 26.6638 14.4783 26.6403 15.3575C26.6169 16.1195 26.0307 16.6822 25.3156 16.6705C24.6122 16.6705 24.0612 16.1078 24.026 15.3692C24.0026 14.9355 24.026 14.49 24.026 14.0562Z" fill="#1E4854"/>
<path id="Vector_6" d="M32.7969 14.0797C32.7969 14.5017 32.8087 14.9237 32.7969 15.3341C32.7735 16.0961 32.199 16.6588 31.4722 16.6588C30.7571 16.6588 30.1826 16.0843 30.1709 15.3223C30.1592 14.4665 30.1592 13.6107 30.1709 12.7549C30.1826 11.9812 30.7453 11.4185 31.4605 11.4067C32.199 11.4067 32.7735 11.9695 32.7969 12.7784C32.7969 13.2121 32.7969 13.6576 32.7969 14.0914V14.0797Z" fill="#1E4854"/>
<path id="Vector_7" d="M20.5098 21.0433C20.5098 21.477 20.5215 21.9225 20.5098 22.3563C20.4864 23.1183 19.9119 23.681 19.1851 23.681C18.47 23.681 17.8955 23.1066 17.8838 22.3445C17.8721 21.4887 17.8721 20.6329 17.8838 19.7771C17.8955 19.0034 18.4582 18.4407 19.1734 18.429C19.9119 18.429 20.4864 18.9917 20.5098 19.8006C20.5098 20.2226 20.5098 20.6447 20.5098 21.055V21.0433Z" fill="#1E4854"/>
<path id="Vector_8" d="M26.6534 21.1253C26.6534 21.5474 26.6651 21.9694 26.6534 22.3797C26.6182 23.1417 26.032 23.6927 25.3169 23.681C24.6252 23.6693 24.0508 23.1066 24.0391 22.3797C24.0156 21.4887 24.0156 20.5978 24.0391 19.6951C24.0625 18.9682 24.6487 18.4172 25.3521 18.4172C26.0555 18.4172 26.6299 18.9682 26.6651 19.6951C26.6885 20.164 26.6651 20.6447 26.6651 21.1136L26.6534 21.1253Z" fill="#1E4854"/>
<path id="Vector_9" d="M30.1576 21.055C30.1576 20.6212 30.1458 20.1757 30.1576 19.742C30.181 18.98 30.7554 18.4172 31.4823 18.4172C32.2091 18.4172 32.7719 18.9917 32.7836 19.7537C32.7953 20.6095 32.7953 21.4653 32.7836 22.3211C32.7719 23.0948 32.2091 23.6576 31.494 23.6693C30.7554 23.681 30.181 23.0948 30.1576 22.2977C30.1576 21.8756 30.1576 21.4536 30.1576 21.0433V21.055Z" fill="#1E4854"/>
<path id="Vector_10" d="M6.47656 22.8135C6.47656 22.3914 6.47656 21.9694 6.47656 21.5591C6.50001 20.7619 7.06273 20.1757 7.8013 20.1874C8.52815 20.1874 9.09087 20.7619 9.10259 21.5239C9.11431 22.3797 9.11431 23.2355 9.10259 24.0913C9.09087 24.865 8.52815 25.4278 7.81302 25.4395C7.07445 25.4395 6.50001 24.865 6.47656 24.0679C6.47656 23.6458 6.47656 23.2238 6.47656 22.8135Z" fill="#1E4854"/>
<path id="Vector_11" d="M44.1915 22.8135C44.1915 23.2356 44.1915 23.6576 44.1915 24.0679C44.168 24.8651 43.6053 25.4513 42.8667 25.4396C42.1516 25.4396 41.5889 24.8651 41.5654 24.0914C41.5537 23.2356 41.5537 22.3798 41.5654 21.524C41.5772 20.7502 42.1399 20.1875 42.8667 20.1758C43.5936 20.1758 44.1563 20.7268 44.1915 21.4888C44.2032 21.9226 44.1915 22.368 44.1915 22.8018V22.8135Z" fill="#1E4854"/>
<path id="Vector_12" d="M46.161 41.2191C46.0203 41.1253 45.8679 41.0316 45.7155 40.9378C48.4705 38.1124 47.9546 34.3493 45.9148 32.2742C43.7225 30.0351 40.2759 29.8006 37.8022 31.7467C36.5713 32.708 35.821 33.9858 35.5865 35.5333C35.27 37.6435 35.9382 39.4372 37.4388 40.9495C36.3954 41.5239 35.5396 42.2273 34.7893 43.1183C33.617 41.1957 32.0226 39.742 30.0062 38.7572C33.7342 35.5216 33.4646 30.5626 30.6979 27.7139C27.896 24.8182 23.3474 24.6892 20.311 27.3856C17.5678 29.8241 16.5009 35.1464 20.651 38.769C18.6463 39.742 17.0637 41.1957 15.8796 43.1183C15.1176 42.2156 14.2501 41.5122 13.2536 40.9612C16.1961 37.9366 15.3521 33.9858 13.2301 32.0398C10.9675 29.9647 7.45053 29.9178 5.12931 31.9225C2.98394 33.7748 1.91712 37.8076 4.95346 40.9612C4.80106 41.055 4.63693 41.1488 4.49625 41.2426C1.9054 42.919 0.510321 45.2989 0.346195 48.3704C0.287578 49.4724 0.815128 49.9999 1.91712 49.9999C4.6721 49.9999 7.43881 49.9999 10.1938 49.9999C10.2993 49.9999 10.4165 49.9999 10.522 49.9999C11.2137 49.9296 11.7413 49.3668 11.7413 48.6869C11.7413 48.0069 11.2137 47.4325 10.5103 47.3856C9.98277 47.3504 9.45522 47.3856 8.91595 47.3856C7.00505 47.3856 5.08242 47.3856 3.14807 47.3856C3.17152 47.2566 3.17152 47.1746 3.19496 47.0808C3.74596 44.7244 5.98512 42.8487 8.55252 42.579C10.9324 42.3328 13.5232 43.7396 14.5431 45.8381C14.6369 46.0257 14.6604 46.2015 14.6135 46.4126C14.4728 47.1277 14.3673 47.8545 14.3673 48.5814C14.3673 49.4489 14.8948 49.9999 15.7624 49.9999C22.1399 49.9999 28.5174 49.9999 34.8948 49.9999C35.7624 49.9999 36.2899 49.4489 36.3016 48.5931C36.3016 47.9014 36.2313 47.2098 36.0789 46.5298C35.9968 46.2015 36.0789 45.9319 36.2313 45.6506C37.4154 43.5755 39.8655 42.2742 42.1633 42.579C44.8011 42.9307 46.5596 44.3844 47.4388 46.8932C47.4857 47.0339 47.5678 47.1863 47.474 47.3739C45.1293 47.3739 42.7964 47.3739 40.4517 47.3739C39.5373 47.3739 38.9394 47.8897 38.9277 48.6634C38.9159 49.4606 39.5256 49.9999 40.4634 49.9999C43.2419 49.9999 46.0203 49.9999 48.7987 49.9999C49.8421 49.9999 50.3814 49.4724 50.3227 48.4524C50.1703 45.334 48.7753 42.919 46.1492 41.2191H46.161ZM9.11524 39.9061C7.21606 39.9061 5.69203 38.3704 5.69203 36.4595C5.69203 34.572 7.21606 33.0597 9.0918 33.048C10.991 33.048 12.5267 34.572 12.515 36.4946C12.515 38.3821 10.991 39.9061 9.10352 39.9061H9.11524ZM20.5103 32.8721C20.5103 30.2344 22.6909 28.0773 25.3286 28.0656C27.9898 28.0656 30.1703 30.2461 30.1586 32.9073C30.1586 35.545 27.9781 37.7021 25.3403 37.7139C22.6791 37.7139 20.4986 35.5333 20.5103 32.8721ZM33.195 47.3739C27.9195 47.3739 22.6322 47.3739 17.3567 47.3739C17.2864 47.3739 17.2161 47.3622 17.1457 47.3504C17.4974 44.2672 20.1235 41.4067 23.3122 40.5978C27.8726 39.4489 32.5267 42.3797 33.4998 46.9753C33.5701 47.2918 33.5467 47.3739 33.195 47.3739ZM41.5771 39.9061C39.678 39.9061 38.1539 38.3704 38.1539 36.4595C38.1539 34.572 39.678 33.0597 41.5654 33.0597C43.4646 33.0597 44.9886 34.5955 44.9886 36.5064C44.9886 38.3821 43.4529 39.9061 41.5771 39.9178V39.9061Z" fill="#1E4854"/>
<path id="Vector_13" d="M49.1148 16.4596C47.6142 15.9437 46.1253 15.4162 44.613 14.9238C44.273 14.8066 44.1792 14.6542 44.1792 14.3142C44.2027 12.7081 44.1792 11.102 44.191 9.4959C44.2027 8.69871 43.8744 8.19461 43.1359 7.8898C41.5649 7.24502 40.0175 6.55334 38.4583 5.90856C38.1534 5.7796 38.0245 5.61547 38.0245 5.26377C38.0479 4.00938 38.0362 2.74326 38.0245 1.47714C38.0245 0.52755 37.5087 0 36.5825 0C29.0679 0 21.5649 0 14.0503 0C13.1124 0 12.5966 0.52755 12.5849 1.46542C12.5849 2.70809 12.5614 3.95076 12.5849 5.19343C12.5849 5.61547 12.4442 5.79132 12.069 5.94373C10.5333 6.57679 9.02097 7.25674 7.49694 7.8898C6.73492 8.20633 6.40667 8.71043 6.43012 9.53107C6.46529 11.1372 6.43012 12.7433 6.44184 14.3494C6.44184 14.6776 6.33633 14.8183 6.03152 14.9238C4.50749 15.4279 2.99518 15.9555 1.48287 16.483C0.603621 16.7878 0.333984 17.1512 0.333984 18.1243C0.333984 19.5662 0.333984 21.0082 0.333984 22.4502C0.333984 24.9941 0.333984 27.5264 0.333984 30.0703C0.333984 30.6448 0.509834 31.1137 1.02566 31.3951C1.94008 31.9109 2.96001 31.2544 2.97173 30.129C2.97173 26.4947 2.97173 22.8605 2.97173 19.2263C2.97173 18.8863 3.0538 18.7339 3.4055 18.6166C5.22261 18.0188 7.02801 17.3857 8.8334 16.7644C10.0878 16.3306 11.3422 15.8968 12.6318 15.4513V16.4361C12.6318 20.129 12.6318 23.8218 12.6318 27.5029C12.6318 28.3587 13.1828 28.9449 13.9448 28.9449C14.7068 28.9449 15.2461 28.347 15.2578 27.5029C15.2578 27.3622 15.2578 27.2098 15.2578 27.0692C15.2578 19.1207 15.2578 11.1723 15.2578 3.22392C15.2578 2.76671 15.3398 2.6143 15.8322 2.62603C22.1394 2.64947 28.4348 2.64947 34.742 2.62603C35.2929 2.62603 35.4571 2.74326 35.4571 3.3177C35.4336 11.2427 35.4454 19.1794 35.4454 27.1043C35.4454 28.3118 35.8908 28.9332 36.7466 28.9449C37.6259 28.9449 38.0714 28.3236 38.0714 27.0809C38.0714 25.5803 38.0714 24.0797 38.0714 22.5909V15.4513C41.1194 16.4947 44.0972 17.5381 47.0749 18.5346C47.5673 18.6987 47.7314 18.898 47.7314 19.4373C47.708 22.9777 47.7314 26.5299 47.708 30.0703C47.708 30.6448 47.8721 31.1137 48.3879 31.4068C49.3258 31.9343 50.3457 31.2661 50.3457 30.1055C50.3457 26.1196 50.3457 22.1336 50.3457 18.1594C50.3457 17.163 50.0878 16.7995 49.1265 16.4713L49.1148 16.4596ZM12.409 12.7315C11.3305 13.095 10.2519 13.4701 9.11476 13.857C9.11476 12.626 9.11476 11.4654 9.11476 10.3048C9.11476 10.1641 9.1382 10.0586 9.27888 10C10.3809 9.53107 11.4829 9.06213 12.62 8.58148C12.62 9.90621 12.62 11.1606 12.62 12.415C12.62 12.5791 12.5849 12.6729 12.409 12.7315ZM41.5649 13.8687C40.4278 13.4701 39.3375 13.095 38.259 12.7315C38.0362 12.6612 38.0597 12.5088 38.0597 12.3447C38.0597 11.1254 38.0597 9.89449 38.0597 8.58148C38.8568 8.92145 39.5954 9.23798 40.3457 9.54279C41.1663 9.88667 41.5767 10.5041 41.5767 11.3951V13.857L41.5649 13.8687Z" fill="#1E4854"/>
</g>
<defs>
<clipPath id="clip0_235_4917">
<rect width="50" height="50" fill="white" transform="translate(0.333984)"/>
</clipPath>
</defs>
</svg>
